<?xml version="1.0" encoding="UTF-8" standalone="no"?>
<!-- Created with Inkscape (http://www.inkscape.org/) -->

<svg
   width="119mm"
   height="62mm"
   viewBox="0 0 119.00001 62"
   version="1.1"
   id="svg450041"
   inkscape:version="1.1.1 (eb90963e84, 2021-10-02)"
   sodipodi:docname="BuyerRex_logo3.svg"
   xmlns:inkscape="http://www.inkscape.org/namespaces/inkscape"
   xmlns:sodipodi="http://sodipodi.sourceforge.net/DTD/sodipodi-0.dtd"
   xmlns:xlink="http://www.w3.org/1999/xlink"
   xmlns="http://www.w3.org/2000/svg"
   xmlns:svg="http://www.w3.org/2000/svg">
  <sodipodi:namedview
     id="namedview450043"
     pagecolor="#ffffff"
     bordercolor="#666666"
     borderopacity="1.0"
     inkscape:pageshadow="2"
     inkscape:pageopacity="0.0"
     inkscape:pagecheckerboard="0"
     inkscape:document-units="mm"
     showgrid="false"
     width="209mm"
     scale-x="1"
     inkscape:zoom="0.53165938"
     inkscape:cx="-110.97331"
     inkscape:cy="-184.32855"
     inkscape:window-width="1884"
     inkscape:window-height="1043"
     inkscape:window-x="36"
     inkscape:window-y="0"
     inkscape:window-maximized="1"
     inkscape:current-layer="layer1"
     inkscape:snap-nodes="false" />
  <defs
     id="defs450038">
    <linearGradient
       inkscape:collect="always"
       xlink:href="#IaTgA~1Np_BMY0IkWaeQ3c"
       id="linearGradient447674"
       gradientUnits="userSpaceOnUse"
       gradientTransform="matrix(4.3088194,0,0,3.0446751,-56.638571,24.571894)"
       x1="41.5"
       y1="3.25"
       x2="41.5"
       y2="61.803001"
       spreadMethod="reflect" />
    <linearGradient
       id="IaTgA~1Np_BMY0IkWaeQ3c"
       x1="41.5"
       x2="41.5"
       y1="3.25"
       y2="61.803001"
       gradientUnits="userSpaceOnUse"
       spreadMethod="reflect"
       gradientTransform="matrix(7.9999999,0,0,7.9999999,115.58589,581.96048)">
      <stop
         offset="0"
         stop-color="#1a6dff"
         id="stop16" />
      <stop
         offset="1"
         stop-color="#c822ff"
         id="stop18" />
    </linearGradient>
    <linearGradient
       inkscape:collect="always"
       xlink:href="#nKEdfJkkRaIvB5Lr2l9FSa-9"
       id="linearGradient447676"
       gradientUnits="userSpaceOnUse"
       gradientTransform="matrix(4.3210204,0,0,4.3210204,-23.335503,-21.206361)"
       x1="31.877001"
       y1="5.7529998"
       x2="32.126999"
       y2="59.002998"
       spreadMethod="reflect" />
    <linearGradient
       id="nKEdfJkkRaIvB5Lr2l9FSa-9"
       x1="31.877001"
       x2="32.126999"
       y1="5.7529998"
       y2="59.002998"
       gradientUnits="userSpaceOnUse"
       spreadMethod="reflect"
       gradientTransform="matrix(1.14327,0,0,1.14327,347.95955,191.24473)">
      <stop
         offset="0"
         stop-color="#1a6dff"
         id="stop2-5" />
      <stop
         offset="1"
         stop-color="#c822ff"
         id="stop4-8" />
    </linearGradient>
    <linearGradient
       inkscape:collect="always"
       xlink:href="#nKEdfJkkRaIvB5Lr2l9FSb-2"
       id="linearGradient447678"
       gradientUnits="userSpaceOnUse"
       gradientTransform="matrix(4.3210202,0,0,4.3210202,-23.335503,-21.206361)"
       x1="32"
       y1="10"
       x2="32"
       y2="53.546001"
       spreadMethod="reflect" />
    <linearGradient
       id="nKEdfJkkRaIvB5Lr2l9FSb-2"
       x1="32"
       x2="32"
       y1="10"
       y2="53.546001"
       gradientUnits="userSpaceOnUse"
       spreadMethod="reflect"
       gradientTransform="matrix(1.14327,0,0,1.14327,347.95955,191.24473)">
      <stop
         offset="0"
         stop-color="#6dc7ff"
         id="stop9-3" />
      <stop
         offset="1"
         stop-color="#e6abff"
         id="stop11-7" />
    </linearGradient>
  </defs>
  <g
     inkscape:label="Layer 1"
     inkscape:groupmode="layer"
     id="layer1">
    <path
       style="fill:#0084ff;fill-opacity:1;stroke-width:0;stroke-opacity:0"
       d="M 66.499981,119.36747 V 56.192484 h 27.149497 c 14.932222,0 30.407892,0.327938 34.390382,0.728751 22.08492,2.222713 33.2082,9.746236 36.28344,24.541242 1.2448,5.988765 0.46324,14.941655 -1.73124,19.831623 -2.1136,4.70971 -8.06074,10.76545 -11.95551,12.17382 -2.24579,0.81209 -3.16071,1.90955 -1.59194,1.90955 2.14192,0 9.52924,4.5153 12.46381,7.61818 6.3799,6.74581 9.11663,14.98121 8.51779,25.63181 -1.19382,21.2327 -14.33284,31.39287 -43.01125,33.25986 -5.30337,0.34525 -21.0888,0.6339 -35.078736,0.64143 l -25.436243,0.0137 z m 59.086819,40.52391 c 7.5431,-1.6177 11.82836,-6.56346 12.5462,-14.47997 0.53496,-5.89966 -1.09934,-10.67709 -4.75256,-13.89279 -4.37743,-3.85317 -6.35272,-4.28103 -21.49422,-4.65582 l -13.466248,-0.33333 v 17.03399 17.034 h 11.937268 c 6.56549,0 13.4188,-0.31774 15.22956,-0.70608 z m 0.53405,-56.31381 c 5.06397,-2.68096 7.21939,-6.985805 6.74961,-13.480429 -0.34376,-4.752502 -2.65159,-8.550478 -6.2949,-10.359482 -2.19115,-1.087963 -4.36791,-1.296853 -15.35434,-1.473449 L 98.419972,78.058442 v 13.734305 13.734303 l 12.468748,-0.24324 c 11.29575,-0.22036 12.72871,-0.38088 15.23213,-1.70624 z"
       id="path459250"
       transform="scale(0.26458333)" />
    <g
       id="g853"
       transform="translate(1.3739953,0.30880057)">
      <path
         style="fill:#0084ff;fill-opacity:1;stroke-width:0;stroke-opacity:0"
         d="m 192.45215,131.01445 c -8.6017,-1.87139 -14.68809,-6.75705 -17.70127,-14.20917 -1.474,-3.64543 -1.52417,-4.48988 -1.7146,-28.859055 L 172.8401,62.842482 h 8.29733 8.29732 l 0.21135,23.773744 0.21135,23.773744 1.6625,3.325 c 2.27118,4.54237 4.78478,5.78945 11.10501,5.50957 5.5787,-0.24705 7.7763,-1.48679 9.84248,-5.55249 1.24443,-2.4487 1.34357,-4.16805 1.54085,-26.723324 l 0.21085,-24.106244 h 8.6004 8.6004 l -0.005,19.783745 c -0.008,29.001803 -1.09591,35.309733 -7.17805,41.619943 -6.31874,6.55568 -19.68189,9.40129 -31.78428,6.76828 z"
         id="path459289"
         transform="scale(0.26458333)" />
      <path
         style="fill:#0084ff;fill-opacity:1;stroke-width:0;stroke-opacity:0"
         d="m 265.99993,116.48427 v -14.1882 L 256.5961,88.055524 C 251.42399,80.223225 245.59534,71.346168 243.64354,68.328731 l -3.54872,-5.486249 h 9.1789 9.17891 l 7.5974,11.960968 c 4.17857,6.578531 7.87312,11.873122 8.21011,11.765757 0.33699,-0.107365 3.95348,-5.414988 8.03664,-11.794717 l 7.42392,-11.599508 9.08711,-0.185016 c 4.99791,-0.101758 9.0871,-0.0084 9.0871,0.20756 0,0.215916 -5.68574,9.025875 -12.63499,19.577685 l -12.635,19.185109 v 14.35607 14.35607 h -8.3125 -8.31249 z"
         id="path459328"
         transform="scale(0.26458333)" />
      <path
         style="fill:#0084ff;fill-opacity:1;stroke-width:0;stroke-opacity:0"
         d="M 317.20491,96.757473 V 62.842482 h 23.60749 23.6075 v 6.317499 6.317498 h -14.9625 -14.96249 v 6.649998 6.649998 h 13.96499 13.965 v 6.317498 6.317497 h -13.965 -13.96499 v 8.3125 8.3125 h 15.29499 15.295 v 6.3175 6.31749 h -23.94 -23.93999 z"
         id="path459367"
         transform="scale(0.26458333)" />
      <path
         style="fill:#0084ff;fill-opacity:1;stroke-width:0;stroke-opacity:0"
         d="M 381.70989,96.703395 V 62.734327 l 18.78625,0.247483 c 17.78458,0.234287 18.99419,0.329884 22.68633,1.79292 5.12545,2.030991 8.69569,5.634537 10.02826,10.121802 2.83384,9.542563 -0.56826,18.288922 -8.65237,22.244107 l -3.67438,1.797705 2.56131,1.146736 c 4.09047,1.83135 7.23429,6.20058 13.19833,18.34275 3.06969,6.24957 5.58126,11.56125 5.58126,11.80375 0,0.24248 -3.98114,0.44088 -8.84697,0.44088 h -8.84697 l -4.72705,-9.85447 c -6.87424,-14.33072 -8.73771,-16.08052 -17.12514,-16.08052 h -4.34386 v 12.9675 12.96749 h -8.3125 -8.3125 z m 33.03766,-6.079652 c 1.50894,-1.510323 1.84861,-2.504638 2.04455,-5.984999 0.43389,-7.706613 -2.35079,-9.815377 -12.97096,-9.822556 l -5.48625,-0.0037 v 9.036334 9.036334 l 7.30154,-0.225086 c 6.92014,-0.213329 7.39607,-0.319699 9.11112,-2.036318 z"
         id="path459406"
         transform="scale(0.26458333)" />
    </g>
    <path
       style="fill:#b3b3b3;fill-opacity:1;stroke-width:0;stroke-opacity:0"
       d="m 62.663122,48.382568 v -7.464835 h 3.943245 c 2.168781,0 4.443224,0.02973 5.054314,0.06606 2.510046,0.149233 4.025849,0.610822 4.988734,1.519161 0.728721,0.687437 1.005586,1.389401 1.005586,2.549554 0,0.775739 -0.167431,1.381937 -0.534379,1.934771 -0.502179,0.756562 -1.518859,1.401579 -2.747682,1.743223 -0.213481,0.05935 -0.388149,0.124693 -0.388149,0.1452 0,0.02051 0.146963,0.0717 0.326586,0.113753 0.481642,0.112768 1.142368,0.459917 1.607722,0.844706 0.602025,0.497792 1.108697,1.168707 2.403666,3.182826 0.637931,0.992203 1.308684,2.034948 1.490562,2.31721 l 0.330686,0.513207 H 77.507292 74.870571 L 73.590626,53.84123 c -1.432034,-2.244558 -1.717628,-2.62922 -2.253155,-3.034741 -0.631185,-0.47796 -1.021149,-0.572448 -2.500307,-0.605814 l -1.259689,-0.02841 v 2.837572 2.837571 H 65.1203 62.663122 Z m 8.612982,-0.962086 c 0.52951,-0.151513 0.798367,-0.304051 1.046162,-0.593547 0.566103,-0.661361 0.513014,-1.968767 -0.103,-2.536587 C 71.70335,43.814791 70.850889,43.6562 68.806062,43.655351 l -1.228587,-5.3e-4 v 1.966132 1.966132 l 1.664036,-0.03029 c 1.311907,-0.02389 1.74245,-0.05273 2.034593,-0.136327 z"
       id="path478857" />
    <path
       style="fill:#b3b3b3;fill-opacity:1;stroke-width:0;stroke-opacity:0"
       d="m 83.191421,48.382568 v -7.464835 h 6.749457 6.749455 v 1.430761 1.430758 h -4.261176 -4.261178 v 1.430761 1.430761 h 4.012348 4.012351 v 1.430761 1.430758 h -4.012351 -4.012348 v 1.741797 1.741794 h 4.416695 4.416695 v 1.430761 1.430758 h -6.904974 -6.904974 z"
       id="path478896" />
    <path
       style="fill:#b3b3b3;fill-opacity:1;stroke-width:0;stroke-opacity:0"
       d="m 102.68232,52.457125 c 1.54038,-1.744906 3.01654,-3.415149 3.28037,-3.711652 l 0.47968,-0.539096 -3.18736,-3.566562 -3.18737,-3.566565 2.35481,-0.0738 2.3548,-0.0738 0.8709,0.944692 c 0.479,0.519583 1.49258,1.649211 2.2524,2.510284 l 1.3815,1.56559 2.17995,-2.498693 2.17994,-2.498696 h 2.34822 c 1.29151,0 2.34821,0.06483 2.34821,0.144066 0,0.07923 -1.39949,1.715817 -3.10998,3.636851 l -3.10997,3.492788 1.22602,1.401914 c 0.67431,0.771051 2.12052,2.409663 3.21381,3.641362 l 1.98779,2.239449 -2.35326,0.07134 -2.35327,0.07134 -1.29637,-1.438571 c -0.713,-0.791216 -1.75132,-1.928839 -2.30737,-2.528052 l -1.01101,-1.08948 -2.21801,2.518921 -2.21802,2.51892 h -2.45355 -2.453565 z"
       id="path478935" />
    <path
       id="path7-8-3-7"
       style="fill:url(#linearGradient447676);stroke-width:4.32102"
       d="M 114.9375 4.71875 C 52.987038 4.71875 2.5917969 55.113994 2.5917969 117.06445 C 2.5917969 179.01495 52.987038 229.41211 114.9375 229.41211 C 168.89274 229.41211 214.07593 191.18299 224.8418 140.38867 L 215.98438 140.38867 C 205.37284 186.37467 164.09912 220.76953 114.9375 220.76953 C 57.757444 220.76953 11.232422 174.24455 11.232422 117.06445 C 11.232422 59.8844 57.757444 13.361328 114.9375 13.361328 C 148.59215 13.361328 178.52013 29.507151 197.47852 54.427734 L 208.10352 54.427734 C 187.90347 24.479656 153.70182 4.71875 114.9375 4.71875 z "
       transform="scale(0.26458333)" />
    <path
       id="path14-2-3-0"
       style="fill:url(#linearGradient447678);stroke-width:4.32102"
       d="M 114.9375 22.005859 C 62.519235 22.005859 19.875 64.64813 19.875 117.06641 C 19.875 169.48471 62.519235 212.12891 114.9375 212.12891 C 159.30985 212.12891 196.66628 181.56564 207.0918 140.38867 L 198.1543 140.38867 C 187.95156 176.74757 154.5111 203.48828 114.9375 203.48828 C 67.285295 203.48828 28.517578 164.71865 28.517578 117.06641 C 28.517578 69.414189 67.285295 30.646484 114.9375 30.646484 C 138.01405 30.646484 159.00768 39.739552 174.52344 54.529297 L 186.4707 54.529297 C 186.45916 54.516112 186.4471 54.503413 186.43555 54.490234 L 198.77734 54.490234 L 198.77734 54.513672 L 447.75586 54.513672 L 447.75586 49.373047 L 440.60156 49.373047 L 440.60156 49.349609 L 181.54102 49.349609 C 164.37447 32.462157 140.86374 22.005859 114.9375 22.005859 z "
       transform="scale(0.26458333)" />
    <path
       id="path21-5-3"
       style="fill:url(#linearGradient447674);stroke-width:3.62202"
       d="M 198.16016 140.39453 L 198.16016 145.53516 L 447.75586 145.53516 L 447.75586 140.39453 L 198.16016 140.39453 z "
       transform="scale(0.26458333)" />
  </g>
</svg>
