<?xml version="1.0" encoding="utf-8"?>
<svg width="119mm" height="62mm" viewBox="0 0 119.00001 62" version="1.1" id="svg450041" xmlns="http://www.w3.org/2000/svg" xmlns:xlink="http://www.w3.org/1999/xlink">
  <defs id="defs450038">
    <linearGradient id="linearGradient447674" gradientUnits="userSpaceOnUse" gradientTransform="matrix(1.1295801,0,0,0.80557028,-13.760963,6.5013135)" x1="41.5" y1="3.25" x2="41.5" y2="61.803001" spreadMethod="reflect" xlink:href="#IaTgA~1Np_BMY0IkWaeQ3c"/>
    <linearGradient id="IaTgA~1Np_BMY0IkWaeQ3c" x1="41.5" x2="41.5" y1="3.25" y2="61.803001" gradientUnits="userSpaceOnUse" spreadMethod="reflect" gradientTransform="matrix(7.9999999,0,0,7.9999999,115.58589,581.96048)">
      <stop offset="0" stop-color="#1a6dff" id="stop16"/>
      <stop offset="1" stop-color="#c822ff" id="stop18"/>
    </linearGradient>
    <linearGradient id="linearGradient447676" gradientUnits="userSpaceOnUse" gradientTransform="matrix(4.3210204,0,0,4.3210204,-23.335503,-21.206361)" x1="31.877001" y1="5.7529998" x2="32.126999" y2="59.002998" spreadMethod="reflect" xlink:href="#nKEdfJkkRaIvB5Lr2l9FSa-9-7"/>
    <linearGradient id="nKEdfJkkRaIvB5Lr2l9FSa-9-7" x1="31.877001" x2="32.126999" y1="5.7529998" y2="59.002998" gradientUnits="userSpaceOnUse" spreadMethod="reflect" gradientTransform="matrix(1.14327,0,0,1.14327,347.95955,191.24473)">
      <stop offset="0" stop-color="#1a6dff" id="stop2-5"/>
      <stop offset="1" stop-color="#c822ff" id="stop4-8"/>
    </linearGradient>
    <linearGradient id="nKEdfJkkRaIvB5Lr2l9FSb-2-3" x1="32" x2="32" y1="10" y2="53.546001" gradientUnits="userSpaceOnUse" spreadMethod="reflect" gradientTransform="matrix(1.14327,0,0,1.14327,347.95955,191.24473)">
      <stop offset="0" stop-color="#6dc7ff" id="stop9-3"/>
      <stop offset="1" stop-color="#e6abff" id="stop11-7"/>
    </linearGradient>
    <linearGradient id="linearGradient31414" x1="130.08093" y1="-24.152651" x2="157.4933" y2="-24.152651" gradientUnits="userSpaceOnUse" spreadMethod="pad" gradientTransform="translate(0,-0.3808295)" xlink:href="#IaTgA~1Np_BMY0IkWaeQ3c"/>
    <linearGradient id="linearGradient31445" gradientUnits="userSpaceOnUse" x1="19.875" y1="117.06738" x2="447.75586" y2="117.06738" spreadMethod="pad" gradientTransform="matrix(0.26458333,0,0,0.26458333,75.356023,-55.770928)" xlink:href="#nKEdfJkkRaIvB5Lr2l9FSb-2-3"/>
    <linearGradient id="linearGradient859" x1="45.73061" y1="25.760353" x2="117.00533" y2="25.760353" gradientUnits="userSpaceOnUse" spreadMethod="pad" xlink:href="#nKEdfJkkRaIvB5Lr2l9FSa-9-7"/>
    <radialGradient gradientUnits="userSpaceOnUse" cx="273.995" cy="96.757" r="33.9" id="gradient-4">
      <stop offset="0" style="stop-color: #bada55"/>
      <stop offset="1" style="stop-color: #758d29"/>
    </radialGradient>
    <radialGradient gradientUnits="userSpaceOnUse" cx="202.13" cy="97.416" r="29.29" id="gradient-5">
      <stop offset="0" style="stop-color: #bada55"/>
      <stop offset="1" style="stop-color: #758d29"/>
    </radialGradient>
    <radialGradient gradientUnits="userSpaceOnUse" cx="341.145" cy="96.757" r="23.94" id="gradient-6">
      <stop offset="0" style="stop-color: #bada55"/>
      <stop offset="1" style="stop-color: #758d29"/>
    </radialGradient>
    <radialGradient gradientUnits="userSpaceOnUse" cx="411.967" cy="96.703" r="30.258" id="gradient-7">
      <stop offset="0" style="stop-color: #bada55"/>
      <stop offset="1" style="stop-color: #758d29"/>
    </radialGradient>
    <filter id="contrast-filter-0" x="-500%" y="-500%" width="1000%" height="1000%">
      <feColorMatrix result="color-matrix-0" in="none" values="1 0 0 0 0 0 1 0 0 0 0 0 0 0 0 0 0 0 1 0"/>
      <title>Contrast</title>
      <title>Contrast</title>
      <title>Contrast</title>
      <title>Contrast</title>
      <feComponentTransfer result="component-transfer-0" in="SourceGraphic">
        <feFuncR type="linear" slope="2" intercept="0.29"/>
        <feFuncG type="linear" slope="1.29" intercept="-0.07"/>
        <feFuncB type="linear" slope="0.94" intercept="0.020000000000000018"/>
      </feComponentTransfer>
    </filter>
  </defs>
  <g id="layer1">
    <g id="g853" transform="translate(1.3739953,0.30880057)" style="fill-opacity:1;fill:url(#linearGradient859);opacity:1">
      <path style="fill: url(#linearGradient859); fill-opacity: 1; stroke-width: 0; stroke-opacity: 0; stroke: url(#gradient-5); paint-order: stroke; filter: url(#contrast-filter-0); mix-blend-mode: darken;" d="m 192.45215,131.01445 c -8.6017,-1.87139 -14.68809,-6.75705 -17.70127,-14.20917 -1.474,-3.64543 -1.52417,-4.48988 -1.7146,-28.859055 L 172.8401,62.842482 h 8.29733 8.29732 l 0.21135,23.773744 0.21135,23.773744 1.6625,3.325 c 2.27118,4.54237 4.78478,5.78945 11.10501,5.50957 5.5787,-0.24705 7.7763,-1.48679 9.84248,-5.55249 1.24443,-2.4487 1.34357,-4.16805 1.54085,-26.723324 l 0.21085,-24.106244 h 8.6004 8.6004 l -0.005,19.783745 c -0.008,29.001803 -1.09591,35.309733 -7.17805,41.619943 -6.31874,6.55568 -19.68189,9.40129 -31.78428,6.76828 z" id="path459289" transform="scale(0.26458333)"/>
      <path style="fill: url(#linearGradient859); fill-opacity: 1; stroke-width: 0; stroke-opacity: 0; stroke: url(#gradient-4); paint-order: stroke; filter: url(#contrast-filter-0); mix-blend-mode: darken;" d="m 265.99993,116.48427 v -14.1882 L 256.5961,88.055524 C 251.42399,80.223225 245.59534,71.346168 243.64354,68.328731 l -3.54872,-5.486249 h 9.1789 9.17891 l 7.5974,11.960968 c 4.17857,6.578531 7.87312,11.873122 8.21011,11.765757 0.33699,-0.107365 3.95348,-5.414988 8.03664,-11.794717 l 7.42392,-11.599508 9.08711,-0.185016 c 4.99791,-0.101758 9.0871,-0.0084 9.0871,0.20756 0,0.215916 -5.68574,9.025875 -12.63499,19.577685 l -12.635,19.185109 v 14.35607 14.35607 h -8.3125 -8.31249 z" id="path459328" transform="scale(0.26458333)"/>
      <path style="fill: url(#linearGradient859); fill-opacity: 1; stroke-width: 0; stroke-opacity: 0; stroke: url(#gradient-6); paint-order: stroke; filter: url(#contrast-filter-0); mix-blend-mode: darken;" d="M 317.20491,96.757473 V 62.842482 h 23.60749 23.6075 v 6.317499 6.317498 h -14.9625 -14.96249 v 6.649998 6.649998 h 13.96499 13.965 v 6.317498 6.317497 h -13.965 -13.96499 v 8.3125 8.3125 h 15.29499 15.295 v 6.3175 6.31749 h -23.94 -23.93999 z" id="path459367" transform="scale(0.26458333)"/>
      <path style="fill: url(#linearGradient859); fill-opacity: 1; stroke-width: 0; stroke-opacity: 0; stroke: url(#gradient-7); paint-order: stroke; filter: url(#contrast-filter-0); mix-blend-mode: darken;" d="M 381.70989,96.703395 V 62.734327 l 18.78625,0.247483 c 17.78458,0.234287 18.99419,0.329884 22.68633,1.79292 5.12545,2.030991 8.69569,5.634537 10.02826,10.121802 2.83384,9.542563 -0.56826,18.288922 -8.65237,22.244107 l -3.67438,1.797705 2.56131,1.146736 c 4.09047,1.83135 7.23429,6.20058 13.19833,18.34275 3.06969,6.24957 5.58126,11.56125 5.58126,11.80375 0,0.24248 -3.98114,0.44088 -8.84697,0.44088 h -8.84697 l -4.72705,-9.85447 c -6.87424,-14.33072 -8.73771,-16.08052 -17.12514,-16.08052 h -4.34386 v 12.9675 12.96749 h -8.3125 -8.3125 z m 33.03766,-6.079652 c 1.50894,-1.510323 1.84861,-2.504638 2.04455,-5.984999 0.43389,-7.706613 -2.35079,-9.815377 -12.97096,-9.822556 l -5.48625,-0.0037 v 9.036334 9.036334 l 7.30154,-0.225086 c 6.92014,-0.213329 7.39607,-0.319699 9.11112,-2.036318 z" id="path459406" transform="scale(0.26458333)"/>
    </g>
    <path style="fill:#b3b3b3;fill-opacity:0.71773684;stroke-width:0;stroke-opacity:0" d="m 62.663122,48.382568 v -7.464835 h 3.943245 c 2.168781,0 4.443224,0.02973 5.054314,0.06606 2.510046,0.149233 4.025849,0.610822 4.988734,1.519161 0.728721,0.687437 1.005586,1.389401 1.005586,2.549554 0,0.775739 -0.167431,1.381937 -0.534379,1.934771 -0.502179,0.756562 -1.518859,1.401579 -2.747682,1.743223 -0.213481,0.05935 -0.388149,0.124693 -0.388149,0.1452 0,0.02051 0.146963,0.0717 0.326586,0.113753 0.481642,0.112768 1.142368,0.459917 1.607722,0.844706 0.602025,0.497792 1.108697,1.168707 2.403666,3.182826 0.637931,0.992203 1.308684,2.034948 1.490562,2.31721 l 0.330686,0.513207 H 77.507292 74.870571 L 73.590626,53.84123 c -1.432034,-2.244558 -1.717628,-2.62922 -2.253155,-3.034741 -0.631185,-0.47796 -1.021149,-0.572448 -2.500307,-0.605814 l -1.259689,-0.02841 v 2.837572 2.837571 H 65.1203 62.663122 Z m 8.612982,-0.962086 c 0.52951,-0.151513 0.798367,-0.304051 1.046162,-0.593547 0.566103,-0.661361 0.513014,-1.968767 -0.103,-2.536587 C 71.70335,43.814791 70.850889,43.6562 68.806062,43.655351 l -1.228587,-5.3e-4 v 1.966132 1.966132 l 1.664036,-0.03029 c 1.311907,-0.02389 1.74245,-0.05273 2.034593,-0.136327 z" id="path478857"/>
    <path style="fill:#b3b3b3;fill-opacity:0.71773684;stroke-width:0;stroke-opacity:0" d="m 83.191421,48.382568 v -7.464835 h 6.749457 6.749455 v 1.430761 1.430758 h -4.261176 -4.261178 v 1.430761 1.430761 h 4.012348 4.012351 v 1.430761 1.430758 h -4.012351 -4.012348 v 1.741797 1.741794 h 4.416695 4.416695 v 1.430761 1.430758 h -6.904974 -6.904974 z" id="path478896"/>
    <path style="fill:#b3b3b3;fill-opacity:0.71773684;stroke-width:0;stroke-opacity:0" d="m 102.68232,52.457125 c 1.54038,-1.744906 3.01654,-3.415149 3.28037,-3.711652 l 0.47968,-0.539096 -3.18736,-3.566562 -3.18737,-3.566565 2.35481,-0.0738 2.3548,-0.0738 0.8709,0.944692 c 0.479,0.519583 1.49258,1.649211 2.2524,2.510284 l 1.3815,1.56559 2.17995,-2.498693 2.17994,-2.498696 h 2.34822 c 1.29151,0 2.34821,0.06483 2.34821,0.144066 0,0.07923 -1.39949,1.715817 -3.10998,3.636851 l -3.10997,3.492788 1.22602,1.401914 c 0.67431,0.771051 2.12052,2.409663 3.21381,3.641362 l 1.98779,2.239449 -2.35326,0.07134 -2.35327,0.07134 -1.29637,-1.438571 c -0.713,-0.791216 -1.75132,-1.928839 -2.30737,-2.528052 l -1.01101,-1.08948 -2.21801,2.518921 -2.21802,2.51892 h -2.45355 -2.453565 z" id="path478935"/>
    <path id="path7-8-3-7" style="fill:url(#linearGradient447676);stroke-width:4.32102" d="M 114.9375 4.71875 C 52.987038 4.71875 2.5917969 55.113994 2.5917969 117.06445 C 2.5917969 179.01495 52.987038 229.41211 114.9375 229.41211 C 168.89274 229.41211 214.07593 191.18299 224.8418 140.38867 L 215.98438 140.38867 C 205.37284 186.37467 164.09912 220.76953 114.9375 220.76953 C 57.757444 220.76953 11.232422 174.24455 11.232422 117.06445 C 11.232422 59.8844 57.757444 13.361328 114.9375 13.361328 C 148.59215 13.361328 178.52013 29.507151 197.47852 54.427734 L 208.10352 54.427734 C 187.90347 24.479656 153.70182 4.71875 114.9375 4.71875 z " transform="scale(0.26458333)"/>
    <path id="path21-5-3" style="fill:url(#linearGradient447674);stroke-width:0.953919" d="m 53.035888,37.146052 v 1.360125 h 65.432852 v -1.360125 z"/>
    <g id="g31426" transform="translate(-112.04232,54.5113)">
      <path id="path31182" style="fill:url(#linearGradient31414);fill-opacity:1;stroke-width:0;stroke-opacity:0" d="m 135.42427,-43.925836 v 2.690791 h -5.34334 v 16.714743 16.7152572 l 5.34334,-0.0031 v 2.667021 h 4.20801 v -2.682007 c 0.74428,-0.0071 1.45032,-0.01864 2.142,-0.02997 v 2.711979 h 4.20801 v -2.832901 c 0.0272,-0.0016 0.0847,-0.003 0.11006,-0.0047 7.58784,-0.493974 11.06382,-3.1821612 11.37968,-8.7999792 0.15843,-2.817971 -0.56559,-4.99667 -2.25362,-6.781499 -0.77644,-0.82097 -2.73075,-2.015897 -3.29746,-2.015897 -0.41507,0 -0.17304,-0.290012 0.42116,-0.504878 1.03049,-0.372631 2.60389,-1.974882 3.16311,-3.220992 0.58063,-1.293804 0.78773,-3.662698 0.45837,-5.247225 -0.81366,-3.914513 -3.75714,-5.905052 -9.60044,-6.493143 -0.0766,-0.0077 -0.27342,-0.01423 -0.38086,-0.0217 v -2.861801 h -4.20801 v 2.730066 c -0.69267,-0.01128 -1.38847,-0.02113 -2.142,-0.02739 v -2.702676 z m 3.10214,8.475968 3.38688,0.05426 c 2.90683,0.04673 3.48305,0.102299 4.0628,0.390157 0.96395,0.478633 1.57458,1.483485 1.66553,2.740917 0.1243,1.718369 -0.44609,2.857372 -1.78594,3.566706 -0.66236,0.350668 -1.04157,0.392832 -4.03025,0.451136 l -3.29902,0.0646 v -3.633885 z m 0,12.82454 3.5631,0.08837 c 4.00619,0.09916 4.52879,0.212482 5.68699,1.231967 0.96658,0.85082 1.39882,2.114793 1.25728,3.675745 -0.18992,2.094576 -1.32391,3.402758 -3.31969,3.830773 -0.4791,0.102748 -2.29209,0.187071 -4.02921,0.187071 h -3.15847 v -4.507224 z"/>
      <path id="path29908" style="fill:#cccccc;fill-opacity:1;stroke-width:0;stroke-opacity:0" d="m 134.90471,-43.925429 v 0.291973 a 53.798784,53.798784 0 0 1 0.47543,-0.279054 v -0.01292 z m 1.79525,0 a 53.186747,53.186747 0 0 0 -0.10231,0.05426 v 0.522965 a 52.726666,52.726666 0 0 1 0.73223,-0.389123 v -0.188103 z m 2.33474,0 a 52.126827,52.126827 0 0 0 -0.48731,0.232545 v 0.584458 a 51.611603,51.611603 0 0 1 0.56533,-0.279053 v -0.537951 z m 3.41167,0 v 0.152963 a 50.583075,50.583075 0 0 1 0.39378,-0.152963 z m 1.98541,0 a 50.007623,50.007623 0 0 0 -0.0362,0.01395 v 0.391707 a 49.643254,49.643254 0 0 1 0.73279,-0.266133 v -0.139526 z m -1.25315,0.487309 a 50.007623,50.007623 0 0 0 -0.73226,0.291971 v 0.398426 a 49.643254,49.643254 0 0 1 0.73226,-0.299207 z m -7.79849,0.236159 a 53.186747,53.186747 0 0 0 -0.47543,0.279054 v 0.535369 a 52.726666,52.726666 0 0 1 0.47543,-0.279054 z m 9.74826,0.01912 a 49.078496,49.078496 0 0 0 -0.73279,0.260967 v 0.456819 a 48.653951,48.653951 0 0 1 0.73279,-0.2682 z m -7.79852,0.121442 a 52.126827,52.126827 0 0 0 -0.73223,0.389122 v 0.59738 a 51.611603,51.611603 0 0 1 0.73223,-0.402042 z m 1.78284,0.32866 a 51.024451,51.024451 0 0 0 -0.56533,0.278537 v 0.488857 a 50.583075,50.583075 0 0 1 0.56533,-0.278533 z m 4.06591,0.29869 a 49.078496,49.078496 0 0 0 -0.73226,0.29404 v 0.465603 a 48.653951,48.653951 0 0 1 0.73226,-0.302308 z m 1.94977,0.287322 a 48.100442,48.100442 0 0 0 -0.73279,0.278019 v 0.513147 a 47.625018,47.625018 0 0 1 0.73279,-0.286804 z m -9.74826,0.172598 a 52.126827,52.126827 0 0 0 -0.47543,0.279054 v 0.460436 h -0.25683 v 0.303858 a 51.611603,51.611603 0 0 1 0.73226,-0.444418 z m 1.94974,0.166915 a 51.024451,51.024451 0 0 0 -0.73223,0.401527 v 0.500226 a 50.583075,50.583075 0 0 1 0.73223,-0.401526 z m 1.78284,0.206706 a 50.007623,50.007623 0 0 0 -0.56533,0.283702 v 0.415997 a 49.643254,49.643254 0 0 1 0.62269,-0.321427 c -0.0188,-2.51e-4 -0.0372,-5.18e-4 -0.0574,-5.18e-4 z m 4.06591,0.220141 a 48.100442,48.100442 0 0 0 -0.73226,0.313677 v 0.522965 a 47.625018,47.625018 0 0 1 0.73226,-0.323496 z m -12.43026,0.145728 v 0.254764 a 53.798784,53.798784 0 0 1 0.36071,-0.254764 z m 1.95027,0 v 0.222726 a 52.726666,52.726666 0 0 1 0.34521,-0.222726 z m 7.79799,0.02997 v 0.422198 a 48.653951,48.653951 0 0 1 0.73226,-0.339516 v -0.0739 c -0.23683,-0.004 -0.49239,-0.0058 -0.73226,-0.0088 z m 4.63177,0.140559 a 47.083215,47.083215 0 0 0 -0.73279,0.293524 v 0.437701 a 46.675931,46.675931 0 0 1 0.73279,-0.294039 z m -11.6975,0.289908 a 52.126827,52.126827 0 0 0 -0.73226,0.47284 v 0.633034 a 51.611603,51.611603 0 0 1 0.73226,-0.489376 z m 13.64671,0.01085 a 46.144928,46.144928 0 0 0 -0.73223,0.263551 v 0.419611 a 45.749149,45.749149 0 0 1 0.73223,-0.264584 z m -15.59645,0.01602 a 53.186747,53.186747 0 0 0 -0.73279,0.518314 v 0.565856 a 52.726666,52.726666 0 0 1 0.73279,-0.518313 z m 3.89898,0.05839 a 51.024451,51.024451 0 0 0 -0.73226,0.444418 v 0.51263 a 50.583075,50.583075 0 0 1 0.73226,-0.444418 z m 1.94974,0.04031 a 50.007623,50.007623 0 0 0 -0.73223,0.409276 v 0.425815 a 49.643254,49.643254 0 0 1 0.73223,-0.419097 z m 1.94977,0.01033 a 49.078496,49.078496 0 0 0 -0.73226,0.373102 v 0.482658 a 48.653951,48.653951 0 0 1 0.73226,-0.380339 z m 1.94924,0.124539 a 48.100442,48.100442 0 0 0 -0.73226,0.352433 v 0.534852 a 47.625018,47.625018 0 0 1 0.73226,-0.363802 z m 7.79849,0.104905 a 45.228689,45.228689 0 0 0 -0.73226,0.22634 v 0.409795 a 44.837447,44.837447 0 0 1 0.73226,-0.226859 z m -5.84875,0.128672 a 47.083215,47.083215 0 0 0 -0.73226,0.332798 v 0.445966 a 46.675931,46.675931 0 0 1 0.73226,-0.332796 z m 1.94977,0.219625 a 46.144928,46.144928 0 0 0 -0.73279,0.299723 v 0.427364 a 45.749149,45.749149 0 0 1 0.73279,-0.303858 z m 5.63893,0.113688 a 44.32736,44.32736 0 0 0 -0.52298,0.135908 v 0.453721 a 43.889226,43.889226 0 0 1 0.7333,-0.190172 v -0.318841 c -0.0674,-0.02848 -0.14142,-0.05303 -0.21032,-0.08062 z m -3.68972,0.155546 a 45.228689,45.228689 0 0 0 -0.73224,0.264583 v 0.415997 a 44.837447,44.837447 0 0 1 0.73224,-0.264583 z m -9.74773,0.212389 a 49.078496,49.078496 0 0 0 -0.73223,0.415481 v 0.49816 a 48.653951,48.653951 0 0 1 0.73223,-0.426332 z m 1.94977,0.03772 a 48.100442,48.100442 0 0 0 -0.73226,0.395325 v 0.547772 a 47.625018,47.625018 0 0 1 0.73226,-0.408244 z m -3.89951,0.04082 a 50.007623,50.007623 0 0 0 -0.73226,0.457338 v 0.437719 a 49.643254,49.643254 0 0 1 0.73226,-0.469223 z m 13.64724,0.03359 a 44.32736,44.32736 0 0 0 -0.73226,0.226859 v 0.459924 a 43.889226,43.889226 0 0 1 0.73226,-0.226862 z m -15.59648,0.01447 a 51.024451,51.024451 0 0 0 -0.73226,0.489376 v 0.527616 a 50.583075,50.583075 0 0 1 0.73226,-0.489892 z m -1.94974,0.0021 a 52.126827,52.126827 0 0 0 -0.73279,0.518316 v 0.655772 a 51.611603,51.611603 0 0 1 0.73279,-0.536916 z m 9.74773,0.05995 a 47.083215,47.083215 0 0 0 -0.73226,0.373102 v 0.455269 a 46.675931,46.675931 0 0 1 0.73226,-0.373102 z m 1.94974,0.133841 a 46.144928,46.144928 0 0 0 -0.73226,0.338481 v 0.435633 a 45.749149,45.749149 0 0 1 0.73226,-0.343649 z m 9.01547,0.0083 v 0.307993 a 43.014587,43.014587 0 0 1 0.34107,-0.07441 c -0.11427,-0.07743 -0.2204,-0.160301 -0.34107,-0.23358 z m -7.0657,0.174667 a 45.228689,45.228689 0 0 0 -0.73279,0.30334 v 0.42323 a 44.837447,44.837447 0 0 1 0.73279,-0.30334 z m 5.84925,0.03876 a 43.389928,43.389928 0 0 0 -0.73329,0.196371 v 0.389641 a 43.014587,43.014587 0 0 1 0.73329,-0.196371 z m -3.90004,0.200507 a 44.32736,44.32736 0 0 0 -0.73223,0.264583 v 0.467154 a 43.889226,43.889226 0 0 1 0.73223,-0.264584 z m 5.84928,0.233577 a 42.52524,42.52524 0 0 0 -0.73279,0.159161 v 0.319879 a 42.215395,42.215395 0 0 1 0.73279,-0.159165 z m -3.89951,0.112654 a 43.389928,43.389928 0 0 0 -0.73226,0.234095 v 0.395841 a 43.014587,43.014587 0 0 1 0.73226,-0.234611 z m -11.6975,0.03307 a 48.100442,48.100442 0 0 0 -0.73223,0.443383 v 0.562758 a 47.625018,47.625018 0 0 1 0.73223,-0.458372 z m -1.94974,0.05374 a 49.078496,49.078496 0 0 0 -0.73226,0.462502 v 0.51625 a 48.653951,48.653951 0 0 1 0.73226,-0.47801 z m 3.89951,0.0124 a 47.083215,47.083215 0 0 0 -0.73226,0.414962 v 0.466637 a 46.675931,46.675931 0 0 1 0.73226,-0.415477 z m 1.94924,0.04238 a 46.144928,46.144928 0 0 0 -0.73226,0.381889 v 0.445966 a 45.749149,45.749149 0 0 1 0.73226,-0.386022 z m 1.94974,0.0956 a 45.228689,45.228689 0 0 0 -0.73226,0.343646 v 0.432533 a 44.837447,44.837447 0 0 1 0.73226,-0.343648 z m -9.74773,0.02119 a 50.007623,50.007623 0 0 0 -0.73226,0.511598 v 0.451136 a 49.643254,49.643254 0 0 1 0.73226,-0.52555 z m 17.54675,0.0894 a 42.52524,42.52524 0 0 0 -0.73329,0.196371 v 0.323495 a 42.215395,42.215395 0 0 1 0.73329,-0.196371 z m -5.84925,0.04082 a 44.32736,44.32736 0 0 0 -0.73279,0.303858 v 0.475422 a 43.889226,43.889226 0 0 1 0.73279,-0.303341 z m -13.64724,0.01395 a 51.024451,51.024451 0 0 0 -0.73279,0.537436 v 0.556038 a 50.583075,50.583075 0 0 1 0.73279,-0.550355 z m 15.59645,0.245463 a 43.389928,43.389928 0 0 0 -0.73223,0.273366 v 0.401527 a 43.014587,43.014587 0 0 1 0.73223,-0.272852 z m 5.84928,0.04702 a 41.735131,41.735131 0 0 0 -0.73279,0.159682 v 0.368969 a 41.374112,41.374112 0 0 1 0.73279,-0.159163 z m -3.89951,0.212908 a 42.52524,42.52524 0 0 0 -0.73226,0.234095 v 0.327112 a 42.215395,42.215395 0 0 1 0.73226,-0.234095 z m 1.95027,0.256833 a 41.735131,41.735131 0 0 0 -0.73329,0.196887 v 0.373103 a 41.374112,41.374112 0 0 1 0.73329,-0.196371 z m -11.698,5.16e-4 a 46.144928,46.144928 0 0 0 -0.73226,0.429948 v 0.456819 a 45.749149,45.749149 0 0 1 0.73226,-0.429948 z m 1.94924,0.0067 a 45.228689,45.228689 0 0 0 -0.73226,0.386022 v 0.442352 a 44.837447,44.837447 0 0 1 0.73226,-0.386026 z m -3.89901,0.04806 a 47.083215,47.083215 0 0 0 -0.73223,0.460436 v 0.479041 a 46.675931,46.675931 0 0 1 0.73223,-0.45992 z m 5.84875,0.01189 a 44.32736,44.32736 0 0 0 -0.73226,0.343649 v 0.48524 a 43.889226,43.889226 0 0 1 0.73226,-0.343646 z m -7.79849,0.0098 a 48.100442,48.100442 0 0 0 -0.73226,0.497128 v 0.579808 a 47.625018,47.625018 0 0 1 0.73226,-0.506944 z m 18.95957,0.01964 a 40.903424,40.903424 0 0 0 -0.19638,0.03411 v 0.407209 a 40.499133,40.499133 0 0 1 0.43255,-0.07493 c -0.0731,-0.126447 -0.15529,-0.245991 -0.23617,-0.366387 z m -20.90881,0.131258 a 49.078496,49.078496 0 0 0 -0.73226,0.519867 v 0.533299 a 48.653951,48.653951 0 0 1 0.73226,-0.536916 z m 11.6975,0.0083 a 43.389928,43.389928 0 0 0 -0.73279,0.314192 v 0.409279 a 43.014587,43.014587 0 0 1 0.73279,-0.313677 z m 7.79849,0.147277 a 40.903424,40.903424 0 0 0 -0.73279,0.164849 v 0.411345 a 40.499133,40.499133 0 0 1 0.73279,-0.164849 z m -5.84928,0.02222 a 42.52524,42.52524 0 0 0 -0.73223,0.272851 v 0.333312 a 42.215395,42.215395 0 0 1 0.73223,-0.273368 z m -15.59645,0.09198 a 50.007623,50.007623 0 0 0 -0.73279,0.574643 v 0.466122 a 49.643254,49.643254 0 0 1 0.73279,-0.587563 z m 17.54622,0.0739 a 41.735131,41.735131 0 0 0 -0.73226,0.234096 v 0.378269 a 41.374112,41.374112 0 0 1 0.73226,-0.234093 z m 1.95027,0.291973 a 40.903424,40.903424 0 0 0 -0.73329,0.20257 v 0.417029 a 40.499133,40.499133 0 0 1 0.73329,-0.203087 z m 3.82249,0.02894 a 40.038398,40.038398 0 0 0 -0.65681,0.113688 v 0.352433 a 39.692053,39.692053 0 0 1 0.7333,-0.127124 v -0.19327 c -0.0232,-0.05043 -0.0523,-0.09611 -0.0765,-0.145727 z m -13.57125,0.132291 a 44.32736,44.32736 0 0 0 -0.73226,0.386025 v 0.496609 a 43.889226,43.889226 0 0 1 0.73226,-0.386021 z m -1.94924,0.03617 a 45.228689,45.228689 0 0 0 -0.73226,0.430464 v 0.391192 l 0.10387,0.0015 a 44.837447,44.837447 0 0 1 0.62839,-0.368969 z m 3.89898,0.04031 a 43.389928,43.389928 0 0 0 -0.73226,0.355534 v 0.418581 a 43.014587,43.014587 0 0 1 0.73226,-0.355534 z m -5.84875,0.05116 a 46.144928,46.144928 0 0 0 -0.73223,0.47749 v 0.470258 a 45.749149,45.749149 0 0 1 0.73223,-0.476975 z m 7.79852,0.02377 a 42.52524,42.52524 0 0 0 -0.73279,0.314193 v 0.338997 a 42.215395,42.215395 0 0 1 0.73279,-0.313676 z m 1.94921,0.07183 a 41.735131,41.735131 0 0 0 -0.73223,0.273371 v 0.384987 a 41.374112,41.374112 0 0 1 0.73223,-0.273368 z m 5.84928,0.01964 a 40.038398,40.038398 0 0 0 -0.73279,0.16433 v 0.356052 a 39.692053,39.692053 0 0 1 0.73279,-0.164332 z m -17.54675,0.03979 a 47.083215,47.083215 0 0 0 -0.73226,0.506946 v 0.493509 a 46.675931,46.675931 0 0 1 0.73226,-0.507463 z m -1.94924,0.111622 a 48.100442,48.100442 0 0 0 -0.73226,0.55707 v 0.599447 a 47.625018,47.625018 0 0 1 0.73226,-0.557588 z m 15.59648,0.02842 a 40.903424,40.903424 0 0 0 -0.73226,0.241845 v 0.423231 a 40.499133,40.499133 0 0 1 0.73226,-0.242364 z m -17.54622,0.227375 a 49.078496,49.078496 0 0 0 -0.73279,0.585493 v 0.552421 a 48.653951,48.653951 0 0 1 0.73279,-0.605131 z m 23.39547,0.01395 a 39.240499,39.240499 0 0 0 -0.7333,0.127124 v 0.657323 a 38.597366,38.597366 0 0 1 0.7333,-0.129706 z m -3.89898,0.06976 a 40.038398,40.038398 0 0 0 -0.73329,0.20309 v 0.360185 a 39.692053,39.692053 0 0 1 0.73329,-0.202573 z m -5.84925,0.27647 a 41.735131,41.735131 0 0 0 -0.24445,0.104904 c 0.0736,0.01729 0.18135,0.02705 0.24445,0.04754 z m 7.79849,0.05012 a 39.240499,39.240499 0 0 0 -0.73279,0.164849 v 0.668692 a 38.597366,38.597366 0 0 1 0.73279,-0.172083 z m -5.84928,0.05426 a 40.903424,40.903424 0 0 0 -0.73223,0.28267 v 0.430464 a 40.499133,40.499133 0 0 1 0.73223,-0.282668 z m -9.74773,0.104904 a 45.228689,45.228689 0 0 0 -0.73223,0.476973 v 0.467156 a 44.837447,44.837447 0 0 1 0.73223,-0.476975 z m 11.6975,0.112136 a 40.038398,40.038398 0 0 0 -0.73226,0.241848 v 0.368453 a 39.692053,39.692053 0 0 1 0.73226,-0.244948 z m -13.64724,0.08475 a 46.144928,46.144928 0 0 0 -0.73226,0.526582 v 0.485759 a 45.749149,45.749149 0 0 1 0.73226,-0.526581 z m 15.59751,0.145212 a 39.240499,39.240499 0 0 0 -0.73329,0.207737 v 0.679546 a 38.597366,38.597366 0 0 1 0.73329,-0.218075 z m -17.54675,0.113686 a 47.083215,47.083215 0 0 0 -0.73226,0.557591 v 0.509529 a 46.675931,46.675931 0 0 1 0.73226,-0.557072 z m 21.44573,0.09147 a 38.158269,38.158269 0 0 0 -0.7333,0.131257 v 0.333314 a 37.828188,37.828188 0 0 1 0.7333,-0.13126 z m -23.39547,0.130741 a 48.100442,48.100442 0 0 0 -0.73279,0.611849 v 0.620633 a 47.625018,47.625018 0 0 1 0.73279,-0.611849 z m 15.59645,0.142111 a 40.038398,40.038398 0 0 0 -0.55033,0.212388 c 0.0651,0.09633 0.12427,0.197615 0.1793,0.302824 a 39.692053,39.692053 0 0 1 0.37103,-0.143142 z m 1.94977,0.131773 a 39.240499,39.240499 0 0 0 -0.73226,0.253732 v 0.691431 a 38.597366,38.597366 0 0 1 0.73226,-0.265618 z m 3.89951,0.0036 a 38.158269,38.158269 0 0 0 -0.73279,0.170016 v 0.339516 a 37.828188,37.828188 0 0 1 0.73279,-0.172601 z m -15.59701,0.119375 a 44.32736,44.32736 0 0 0 -0.73223,0.48214 v 0.54157 a 43.889226,43.889226 0 0 1 0.73223,-0.499195 z m 17.54675,0.244946 a 37.397838,37.397838 0 0 0 -0.7333,0.134358 v 0.378272 a 37.028196,37.028196 0 0 1 0.7333,-0.137977 z m -19.49649,0.0041 a 45.228689,45.228689 0 0 0 -0.73226,0.5271 v 0.485759 a 44.837447,44.837447 0 0 1 0.73226,-0.531233 z m 15.59751,0.147796 a 38.158269,38.158269 0 0 0 -0.73329,0.213424 v 0.346231 a 37.828188,37.828188 0 0 1 0.73329,-0.218591 z m -17.54675,0.16278 a 46.144928,46.144928 0 0 0 -0.73226,0.57981 v 0.503328 a 45.749149,45.749149 0 0 1 0.73226,-0.579808 z m 13.64671,0.04082 a 39.240499,39.240499 0 0 0 -0.18965,0.07338 c 0.0721,0.198525 0.1311,0.406133 0.17055,0.625804 a 38.597366,38.597366 0 0 1 0.0191,-0.0078 z m 5.84928,0.06046 a 37.397838,37.397838 0 0 0 -0.73279,0.1788 v 0.383958 a 37.028196,37.028196 0 0 1 0.73279,-0.183451 z m -21.44573,0.270269 a 47.083215,47.083215 0 0 0 -0.73279,0.611849 v 0.54932 a 46.675931,46.675931 0 0 1 0.73279,-0.633037 z m 17.54622,0.09508 a 38.158269,38.158269 0 0 0 -0.73226,0.260967 v 0.352951 a 37.828188,37.828188 0 0 1 0.73226,-0.267684 z m 5.84925,0.02067 a 36.60695,36.60695 0 0 0 -0.7333,0.142627 v 0.325561 a 36.290289,36.290289 0 0 1 0.7333,-0.146245 z m -17.54675,0.08268 a 43.389928,43.389928 0 0 0 -0.73223,0.495577 v 0.46767 a 43.014587,43.014587 0 0 1 0.73223,-0.508495 z m 13.64777,0.05839 a 37.397838,37.397838 0 0 0 -0.73329,0.225827 v 0.390158 a 37.028196,37.028196 0 0 1 0.73329,-0.232029 z m -15.59751,0.170016 a 44.32736,44.32736 0 0 0 -0.73226,0.553456 v 0.560689 a 43.889226,43.889226 0 0 1 0.73226,-0.572577 z m 17.54675,0.113689 a 36.60695,36.60695 0 0 0 -0.73279,0.189135 v 0.330213 a 36.290289,36.290289 0 0 1 0.73279,-0.193786 z m -19.49599,0.25528 a 45.228689,45.228689 0 0 0 -0.73226,0.590662 v 0.518316 a 44.837447,44.837447 0 0 1 0.73226,-0.610299 z m 21.44573,0.06563 a 35.877436,35.877436 0 0 0 -0.7333,0.143143 v 0.264583 a 35.616028,35.616028 0 0 1 0.7333,-0.145727 z m -5.84925,0.03721 a 37.397838,37.397838 0 0 0 -0.73226,0.275953 v 0.397391 a 37.028196,37.028196 0 0 1 0.73226,-0.283187 z m 1.95027,0.179319 a 36.60695,36.60695 0 0 0 -0.73329,0.238744 v 0.33538 a 36.290289,36.290289 0 0 1 0.73329,-0.24443 z m -19.49649,0.154511 a 46.144928,46.144928 0 0 0 -0.73279,0.637688 v 0.536401 a 45.749149,45.749149 0 0 1 0.73279,-0.650605 z m 5.84872,0.01033 a 42.52524,42.52524 0 0 0 -0.73223,0.529166 v 0.388091 a 42.215395,42.215395 0 0 1 0.73223,-0.541567 z m 15.59701,0.05323 a 35.877436,35.877436 0 0 0 -0.73279,0.190169 v 0.268716 a 35.616028,35.616028 0 0 1 0.73279,-0.193786 z m 1.94974,0.239778 a 35.210845,35.210845 0 0 0 -0.7333,0.150379 v 0.317809 a 34.906262,34.906262 0 0 1 0.7333,-0.153995 z m -19.49649,0.06666 a 43.389928,43.389928 0 0 0 -0.73226,0.567923 v 0.488344 a 43.014587,43.014587 0 0 1 0.73226,-0.586012 z m 13.64724,0.130225 a 36.60695,36.60695 0 0 0 -0.73226,0.291455 v 0.342098 a 36.290289,36.290289 0 0 1 0.73226,-0.29249 z m 1.95027,0.113687 a 35.877436,35.877436 0 0 0 -0.73329,0.240297 v 0.272851 a 35.616028,35.616028 0 0 1 0.73329,-0.244946 z m -17.54675,0.09819 a 44.32736,44.32736 0 0 0 -0.73226,0.635104 v 0.582392 a 43.889226,43.889226 0 0 1 0.73226,-0.637172 z m 19.49599,0.03359 a 35.210845,35.210845 0 0 0 -0.73279,0.199472 v 0.321943 a 34.906262,34.906262 0 0 1 0.73279,-0.203605 z m -5.84928,0.03979 c -0.003,0.01669 -0.008,0.03152 -0.0109,0.04806 a 37.028196,37.028196 0 0 1 0.0109,-0.0052 z m -9.74773,0.19172 a 41.735131,41.735131 0 0 0 -0.73223,0.548288 v 0.448551 a 41.374112,41.374112 0 0 1 0.73223,-0.54777 z m 17.54675,0.04134 a 34.509151,34.509151 0 0 0 -0.7333,0.158131 v 0.353983 a 34.168064,34.168064 0 0 1 0.7333,-0.162264 z m -23.39547,0.19482 a 45.228689,45.228689 0 0 0 -0.73279,0.680578 v 0.541054 a 44.837447,44.837447 0 0 1 0.73279,-0.699701 z m 17.54622,0.07183 a 35.877436,35.877436 0 0 0 -0.73226,0.294039 v 0.278019 a 35.616028,35.616028 0 0 1 0.73226,-0.299207 z m -1.94977,0.0057 a 36.60695,36.60695 0 0 0 -0.14933,0.06873 c -0.0526,0.152974 -0.11629,0.298243 -0.18965,0.436665 a 36.290289,36.290289 0 0 1 0.33898,-0.156062 z m 3.90004,0.01447 a 35.210845,35.210845 0 0 0 -0.73329,0.252182 v 0.327628 a 34.906262,34.906262 0 0 1 0.73329,-0.257865 z m -15.59751,0.150378 a 42.52524,42.52524 0 0 0 -0.73226,0.604616 v 0.402042 a 42.215395,42.215395 0 0 1 0.73226,-0.604097 z m 17.54675,0.01292 a 34.509151,34.509151 0 0 0 -0.73279,0.209807 v 0.358634 a 34.168064,34.168064 0 0 1 0.73279,-0.214458 z m 1.94974,0.294039 a 33.779354,33.779354 0 0 0 -0.7333,0.1664 v 0.297137 a 33.487153,33.487153 0 0 1 0.7333,-0.162779 z m -21.44573,0.179835 a 43.389928,43.389928 0 0 0 -0.73226,0.655772 v 0.50953 a 43.014587,43.014587 0 0 1 0.73226,-0.665591 z m 15.59648,0.05064 a 35.210845,35.210845 0 0 0 -0.73226,0.303342 v 0.334346 a 34.906262,34.906262 0 0 1 0.73226,-0.303339 z m -11.6975,0.01085 a 40.903424,40.903424 0 0 0 -0.73223,0.571542 v 0.508495 a 40.499133,40.499133 0 0 1 0.73223,-0.571543 z m 13.64777,0.03979 a 34.509151,34.509151 0 0 0 -0.73329,0.259416 v 0.365353 a 34.168064,34.168064 0 0 1 0.73329,-0.259416 z m -3.90004,0.04289 a 35.877436,35.877436 0 0 0 -0.73223,0.349332 v 0.284736 a 35.616028,35.616028 0 0 1 0.73223,-0.348813 z m 5.84928,0.137975 a 33.779354,33.779354 0 0 0 -0.73279,0.217043 v 0.302305 a 33.487153,33.487153 0 0 1 0.73279,-0.21549 z m -21.44573,0.213942 a 44.32736,44.32736 0 0 0 -0.73279,0.699698 v 0.607714 a 43.889226,43.889226 0 0 1 0.73279,-0.699699 z m 23.39547,0.0124 a 33.10619,33.10619 0 0 0 -0.7333,0.166915 v 0.292489 a 32.822242,32.822242 0 0 1 0.7333,-0.171048 z m -19.49649,0.0279 a 41.735131,41.735131 0 0 0 -0.73226,0.604616 v 0.466637 a 41.374112,41.374112 0 0 1 0.73226,-0.605131 z m 13.64724,0.275437 a 34.509151,34.509151 0 0 0 -0.73226,0.303339 v 0.372589 a 34.168064,34.168064 0 0 1 0.73226,-0.303342 z m 1.95027,0.06511 a 33.779354,33.779354 0 0 0 -0.73329,0.259932 v 0.311092 a 33.487153,33.487153 0 0 1 0.73329,-0.269232 z m -3.90004,0.0016 a 35.210845,35.210845 0 0 0 -0.73223,0.349332 v 0.342617 a 34.906262,34.906262 0 0 1 0.73223,-0.349335 z m 5.84928,0.09973 a 33.10619,33.10619 0 0 0 -0.73279,0.222211 v 0.296106 a 32.822242,32.822242 0 0 1 0.73279,-0.224793 z m -15.59701,0.177769 a 40.038398,40.038398 0 0 0 -0.73223,0.571539 v 0.439767 a 39.692053,39.692053 0 0 1 0.73223,-0.571024 z m -3.89898,0.0041 a 42.52524,42.52524 0 0 0 -0.73226,0.665077 v 0.419612 a 42.215395,42.215395 0 0 1 0.73226,-0.665592 z m 21.18683,0.07752 a 32.448844,32.448844 0 0 0 -0.4744,0.117825 v 0.293005 a 32.16815,32.16815 0 0 1 0.22739,-0.05685 c 0.0871,-0.118676 0.17121,-0.235798 0.24701,-0.353984 z m -9.48933,0.0646 c -0.20497,0.0929 -0.42453,0.156755 -0.73279,0.203605 v 0.279053 a 35.616028,35.616028 0 0 1 0.73279,-0.397907 z m 5.84925,0.282154 a 33.10619,33.10619 0 0 0 -0.73329,0.269751 v 0.300757 a 32.822242,32.822242 0 0 1 0.73329,-0.269235 z m -7.79902,0.01705 c -0.12269,0.005 -0.29617,0.0092 -0.4594,0.01344 a 36.60695,36.60695 0 0 0 -0.27286,0.160716 v 0.373621 a 36.290289,36.290289 0 0 1 0.73226,-0.436669 z m 5.84875,0.0021 a 33.779354,33.779354 0 0 0 -0.73226,0.303339 v 0.322461 a 33.487153,33.487153 0 0 1 0.73226,-0.314709 z m -13.64724,0.01189 a 40.903424,40.903424 0 0 0 -0.73226,0.632002 v 0.529683 a 40.499133,40.499133 0 0 1 0.73226,-0.631487 z m 5.84875,0.03772 -0.0414,0.001 a 37.397838,37.397838 0 0 0 -0.69091,0.454752 v 0.448035 a 37.028196,37.028196 0 0 1 0.73226,-0.488341 z m 5.84872,0.0046 a 34.509151,34.509151 0 0 0 -0.73223,0.348816 v 0.381889 a 34.168064,34.168064 0 0 1 0.73223,-0.349332 z m 5.84928,0.0072 a 32.448844,32.448844 0 0 0 -0.73279,0.225309 v 0.29714 a 32.16815,32.16815 0 0 1 0.73279,-0.225311 z m -13.91698,0.03152 -0.46252,0.0093 v 0.330729 a 38.597366,38.597366 0 0 1 0.46252,-0.340029 z m -7.52875,0.09353 a 43.389928,43.389928 0 0 0 -0.73279,0.732772 v 0.532786 a 43.014587,43.014587 0 0 1 0.73279,-0.732774 z m 13.64724,0.05891 a 35.210845,35.210845 0 0 0 -0.73279,0.39791 v 0.351398 a 34.906262,34.906262 0 0 1 0.73279,-0.397909 z m -5.84875,0.200504 a 38.158269,38.158269 0 0 0 -0.73226,0.537435 v 0.409279 a 37.828188,37.828188 0 0 1 0.73226,-0.54002 z m -1.94977,0.119372 a 39.240499,39.240499 0 0 0 -0.73223,0.59118 v 0.851112 a 38.597366,38.597366 0 0 1 0.73223,-0.624253 z m 5.84875,0.02687 a 35.877436,35.877436 0 0 0 -0.73226,0.448551 v 0.301273 a 35.616028,35.616028 0 0 1 0.73226,-0.448551 z m -9.74773,0.031 a 41.735131,41.735131 0 0 0 -0.73226,0.686263 v 0.507982 a 41.374112,41.374112 0 0 1 0.73226,-0.709002 z m 17.54675,0.06046 a 32.448844,32.448844 0 0 0 -0.73329,0.269233 v 0.302824 a 32.16815,32.16815 0 0 1 0.73329,-0.269751 z m -1.95027,0.04186 a 33.10619,33.10619 0 0 0 -0.73226,0.314712 v 0.307987 a 32.822242,32.822242 0 0 1 0.73226,-0.315227 z m 3.89951,0.0155 a 31.802191,31.802191 0 0 0 -0.73279,0.224793 v 0.327628 a 31.487858,31.487858 0 0 1 0.73279,-0.224792 z m -5.84928,0.123504 a 33.779354,33.779354 0 0 0 -0.73223,0.352434 v 0.334349 a 33.487153,33.487153 0 0 1 0.73223,-0.363286 z m -5.84872,0.10387 a 36.60695,36.60695 0 0 0 -0.73226,0.506429 v 0.393776 a 36.290289,36.290289 0 0 1 0.73226,-0.520382 z m 3.89951,0.077 a 34.509151,34.509151 0 0 0 -0.73279,0.403074 v 0.403596 a 34.168064,34.168064 0 0 1 0.73279,-0.414962 z m -9.74826,0.106453 a 40.038398,40.038398 0 0 0 -0.73226,0.648023 v 0.479557 a 39.692053,39.692053 0 0 1 0.73226,-0.669727 z m 7.79849,0.217559 a 35.210845,35.210845 0 0 0 -0.73226,0.456303 v 0.375168 a 34.906262,34.906262 0 0 1 0.73226,-0.468704 z m 7.79902,0.0062 a 31.802191,31.802191 0 0 0 -0.73329,0.269235 v 0.333314 a 31.487858,31.487858 0 0 1 0.73329,-0.269234 z m -11.698,0.01344 a 37.397838,37.397838 0 0 0 -0.73226,0.561205 v 0.475941 a 37.028196,37.028196 0 0 1 0.73226,-0.579295 z m -7.79849,0.0217 a 42.52524,42.52524 0 0 0 -0.73279,0.752926 v 0.460435 a 42.215395,42.215395 0 0 1 0.73279,-0.775144 z m 21.44573,0.02687 a 31.129642,31.129642 0 0 0 -0.73279,0.233577 v 0.28267 a 30.860362,30.860362 0 0 1 0.21756,-0.06925 c 0.16963,-0.110297 0.3388,-0.216926 0.51523,-0.361217 z m -3.89951,0.0057 a 32.448844,32.448844 0 0 0 -0.73226,0.315226 v 0.309027 a 32.16815,32.16815 0 0 1 0.73226,-0.315227 z m -1.94977,0.170016 a 33.10619,33.10619 0 0 0 -0.73223,0.363286 v 0.315743 a 32.822242,32.822242 0 0 1 0.73223,-0.363286 z m -13.64671,0.153996 a 40.903424,40.903424 0 0 0 -0.73226,0.70745 v 0.581877 a 40.499133,40.499133 0 0 1 0.73226,-0.735356 z m 7.79799,0.09147 a 35.877436,35.877436 0 0 0 -0.73226,0.514696 v 0.323493 a 35.616028,35.616028 0 0 1 0.73226,-0.527098 z m 3.89951,0.0186 a 33.779354,33.779354 0 0 0 -0.73279,0.428913 v 0.330729 a 33.487153,33.487153 0 0 1 0.73279,-0.419095 z m -7.79852,0.08475 a 38.158269,38.158269 0 0 0 -0.73223,0.621152 v 0.441833 a 37.828188,37.828188 0 0 1 0.73223,-0.640271 z m 13.64777,0.12609 a 31.129642,31.129642 0 0 0 -0.73329,0.280088 v 0.288353 a 30.860362,30.860362 0 0 1 0.73329,-0.280085 z m -1.95027,0.06201 a 31.802191,31.802191 0 0 0 -0.73226,0.319876 v 0.349332 a 31.487858,31.487858 0 0 1 0.73226,-0.32866 z m -5.84875,0.04341 a 34.509151,34.509151 0 0 0 -0.73226,0.485243 v 0.417544 a 34.168064,34.168064 0 0 1 0.73226,-0.498679 z m -7.79849,0.01344 a 39.240499,39.240499 0 0 0 -0.73226,0.696598 v 0.889352 a 38.597366,38.597366 0 0 1 0.73226,-0.697632 z m 11.69747,0.142626 a 32.448844,32.448844 0 0 0 -0.73223,0.37569 v 0.326078 a 32.16815,32.16815 0 0 1 0.73223,-0.38499 z m -7.79796,0.02222 a 36.60695,36.60695 0 0 0 -0.73226,0.597379 v 0.409278 a 36.290289,36.290289 0 0 1 0.73226,-0.597381 z m -7.79849,0.159163 a 41.735131,41.735131 0 0 0 -0.73279,0.806153 v 0.533816 a 41.374112,41.374112 0 0 1 0.73279,-0.806151 z m 13.64724,0.125057 a 33.10619,33.10619 0 0 0 -0.73279,0.433565 v 0.335381 a 32.822242,32.822242 0 0 1 0.73279,-0.444418 z m -3.89951,0.0072 a 35.210845,35.210845 0 0 0 -0.73226,0.545703 v 0.388607 a 34.906262,34.906262 0 0 1 0.73226,-0.559655 z m 9.74876,0.08888 a 30.509281,30.509281 0 0 0 -0.73329,0.27957 v 0.236677 a 30.286983,30.286983 0 0 1 0.73329,-0.280085 z m -1.95027,0.132808 a 31.129642,31.129642 0 0 0 -0.73226,0.327628 v 0.29714 a 30.860362,30.860362 0 0 1 0.73226,-0.330213 z m -11.6975,0.06149 a 37.397838,37.397838 0 0 0 -0.73223,0.661459 v 0.497128 a 37.028196,37.028196 0 0 1 0.73223,-0.661458 z m -3.89898,0.0124 a 40.038398,40.038398 0 0 0 -0.73226,0.766879 v 0.503843 a 39.692053,39.692053 0 0 1 0.73226,-0.769461 z m 18.7632,0.03307 v 0.197922 a 29.683419,29.683419 0 0 1 0.22841,-0.07287 c -0.0745,-0.03904 -0.1574,-0.09049 -0.22841,-0.125055 z m -9.01547,0.0708 a 33.779354,33.779354 0 0 0 -0.73226,0.503844 v 0.355017 a 33.487153,33.487153 0 0 1 0.73226,-0.506946 z m 3.89898,0.01137 a 31.802191,31.802191 0 0 0 -0.73223,0.396875 v 0.359667 a 31.487858,31.487858 0 0 1 0.73223,-0.406694 z m -7.79796,0.232543 a 35.877436,35.877436 0 0 0 -0.73226,0.614434 v 0.337962 a 35.616028,35.616028 0 0 1 0.73226,-0.625284 z m 13.54905,0.03256 a 29.345726,29.345726 0 0 0 -0.6346,0.202054 v 0.314193 a 29.055671,29.055671 0 0 1 0.73279,-0.24288 v -0.219626 c -0.0346,-0.0209 -0.0641,-0.03363 -0.0982,-0.05374 z m -1.85105,0.02119 a 29.942427,29.942427 0 0 0 -0.73329,0.281636 v 0.28267 a 29.683419,29.683419 0 0 1 0.73329,-0.287837 z m -5.84925,0.05271 a 32.448844,32.448844 0 0 0 -0.73279,0.458885 v 0.336931 a 32.16815,32.16815 0 0 1 0.73279,-0.468707 z m -3.89951,0.119372 a 34.509151,34.509151 0 0 0 -0.73226,0.561721 v 0.434083 a 34.168064,34.168064 0 0 1 0.73226,-0.562239 z m 7.79849,0.031 a 30.509281,30.509281 0 0 0 -0.73226,0.341066 v 0.248563 a 30.286983,30.286983 0 0 1 0.73226,-0.347782 z m -13.64724,0.125058 a 38.158269,38.158269 0 0 0 -0.73226,0.732771 v 0.463539 a 37.828188,37.828188 0 0 1 0.73226,-0.732774 z m -3.89898,0.06511 a 40.903424,40.903424 0 0 0 -0.73279,0.84284 v 0.613916 a 40.499133,40.499133 0 0 1 0.73279,-0.849043 z m 15.59645,0.08268 a 31.129642,31.129642 0 0 0 -0.73223,0.402042 v 0.312124 a 30.860362,30.860362 0 0 1 0.73223,-0.411343 z m -3.89898,0.03152 a 33.10619,33.10619 0 0 0 -0.73226,0.523481 v 0.347782 a 32.822242,32.822242 0 0 1 0.73226,-0.526066 z m 9.74826,0.09147 a 28.725127,28.725127 0 0 0 -0.73279,0.242879 v 0.263033 a 28.476641,28.476641 0 0 1 0.73279,-0.242363 z m -1.94924,0.03617 a 29.345726,29.345726 0 0 0 -0.73329,0.296621 v 0.311092 a 29.055671,29.055671 0 0 1 0.73329,-0.291454 z m -13.64777,0.01499 a 36.60695,36.60695 0 0 0 -0.73223,0.660939 v 0.440286 a 36.290289,36.290289 0 0 1 0.73223,-0.673862 z m -3.89898,0.10542 a 39.240499,39.240499 0 0 0 -0.73226,0.768945 v 0.981335 a 38.597366,38.597366 0 0 1 0.73226,-0.81597 z m 5.84875,0.05116 a 35.210845,35.210845 0 0 0 -0.73226,0.6258 v 0.40566 a 34.906262,34.906262 0 0 1 0.73226,-0.625285 z m 5.84875,0.0067 a 31.802191,31.802191 0 0 0 -0.73279,0.468188 v 0.37207 a 31.487858,31.487858 0 0 1 0.73279,-0.468188 z m 3.89898,0.01292 a 29.942427,29.942427 0 0 0 -0.73226,0.358119 v 0.290422 a 29.683419,29.683419 0 0 1 0.73226,-0.365871 z m 5.11595,0.05271 v 0.273886 a 27.839929,27.839929 0 0 1 0.23617,-0.06356 c -0.0819,-0.07107 -0.14563,-0.137687 -0.23617,-0.210323 z m -12.91444,0.215493 a 33.779354,33.779354 0 0 0 -0.73226,0.561721 v 0.38809 a 33.487153,33.487153 0 0 1 0.73226,-0.58911 z m 5.84872,0.07855 a 30.509281,30.509281 0 0 0 -0.73223,0.423747 v 0.256833 a 30.286983,30.286983 0 0 1 0.73223,-0.432017 z m 5.84928,0.02791 a 28.15268,28.15268 0 0 0 -0.73279,0.24288 v 0.33021 a 27.839929,27.839929 0 0 1 0.73279,-0.243911 z m -1.94924,0.104902 a 28.725127,28.725127 0 0 0 -0.73329,0.298691 v 0.275952 a 28.476641,28.476641 0 0 1 0.73329,-0.305408 z m -7.79902,0.01085 a 32.448844,32.448844 0 0 0 -0.73226,0.526066 v 0.348816 a 32.16815,32.16815 0 0 1 0.73226,-0.526066 z m 11.48509,0.02584 a 27.523209,27.523209 0 0 0 -0.52039,0.139526 v 0.248563 a 27.285127,27.285127 0 0 1 0.70591,-0.189651 c -0.0495,-0.05587 -0.0984,-0.112038 -0.15039,-0.166915 -0.009,-0.0098 -0.0255,-0.02159 -0.0351,-0.03152 z m -19.28358,0.06098 a 37.397838,37.397838 0 0 0 -0.73226,0.732256 v 0.547769 a 37.028196,37.028196 0 0 1 0.73226,-0.758092 z m 13.64724,0.07235 a 29.345726,29.345726 0 0 0 -0.73226,0.376206 v 0.326593 a 29.055671,29.055671 0 0 1 0.73226,-0.370003 z m -3.89898,0.122473 a 31.129642,31.129642 0 0 0 -0.73279,0.489376 v 0.323495 a 30.860362,30.860362 0 0 1 0.73279,-0.489376 z m -7.79852,0.03927 a 35.877436,35.877436 0 0 0 -0.73223,0.695047 v 0.353983 a 35.616028,35.616028 0 0 1 0.73223,-0.695047 z m -5.84872,0.06925 a 40.038398,40.038398 0 0 0 -0.73279,0.852663 v 0.564821 a 39.692053,39.692053 0 0 1 0.73279,-0.885216 z m 7.79849,0.02429 a 34.509151,34.509151 0 0 0 -0.68834,0.592212 l 0.50953,0.0124 a 34.168064,34.168064 0 0 1 0.17881,-0.152445 z m 7.79796,0.09405 a 29.942427,29.942427 0 0 0 -0.73223,0.432017 v 0.300239 a 29.683419,29.683419 0 0 1 0.73223,-0.432015 z m 7.79902,0.02842 a 26.974718,26.974718 0 0 0 -0.7333,0.204121 v 0.275436 a 26.7081,26.7081 0 0 1 0.7333,-0.204639 z m -1.94974,0.01137 a 27.523209,27.523209 0 0 0 -0.73279,0.25063 v 0.258381 a 27.285127,27.285127 0 0 1 0.73279,-0.255796 z m -1.94924,0.05581 a 28.15268,28.15268 0 0 0 -0.73329,0.314193 v 0.344683 a 27.839929,27.839929 0 0 1 0.73329,-0.322461 z m -9.74876,0.02429 a 33.10619,33.10619 0 0 0 -0.53486,0.430463 l 0.43614,0.01085 a 32.822242,32.822242 0 0 1 0.0987,-0.07907 z m 1.94974,0.170016 a 31.802191,31.802191 0 0 0 -0.44339,0.318325 c 0.15074,0.0053 0.3075,0.01039 0.44339,0.01602 z m 5.84875,0.05684 a 28.725127,28.725127 0 0 0 -0.73226,0.381373 v 0.283186 a 28.476641,28.476641 0 0 1 0.73226,-0.389123 z m -3.89898,0.171566 a 30.509281,30.509281 0 0 0 -0.34004,0.227375 c 0.11186,0.01354 0.23894,0.02417 0.33795,0.03979 a 30.286983,30.286983 0 0 1 0.002,-0.0015 z m -11.6975,0.0026 a 38.158269,38.158269 0 0 0 -0.73226,0.81959 v 0.518316 a 37.828188,37.828188 0 0 1 0.73226,-0.849046 z m 21.44573,0.09612 a 26.40426,26.40426 0 0 0 -0.7333,0.204637 v 0.237196 a 26.175854,26.175854 0 0 1 0.7333,-0.204639 z m -1.94974,0.0062 a 26.974718,26.974718 0 0 0 -0.73279,0.252698 v 0.284737 a 26.7081,26.7081 0 0 1 0.73279,-0.256831 z m -5.84928,0.06563 a 29.345726,29.345726 0 0 0 -0.73223,0.432014 v 0.02429 c 0.0906,0.04703 0.17748,0.105423 0.26458,0.16278 a 29.055671,29.055671 0 0 1 0.46765,-0.288354 z m -11.69747,0.0062 a 36.60695,36.60695 0 0 0 -0.73226,0.790133 v 0.473871 a 36.290289,36.290289 0 0 1 0.73226,-0.810802 z m 1.94974,0.03152 a 35.210845,35.210845 0 0 0 -0.73223,0.71882 v 0.448032 a 34.906262,34.906262 0 0 1 0.73223,-0.742071 z m 13.64777,0.04703 a 27.523209,27.523209 0 0 0 -0.73329,0.331763 v 0.2651 a 27.285127,27.285127 0 0 1 0.73329,-0.338479 z m -1.95027,0.208256 a 28.15268,28.15268 0 0 0 -0.73226,0.394808 v 0.355018 a 27.839929,27.839929 0 0 1 0.73226,-0.394808 z m -17.54622,0.124539 a 39.240499,39.240499 0 0 0 -0.73279,0.928111 v 1.046448 a 38.597366,38.597366 0 0 1 0.73279,-0.938961 z m 23.39547,0.0584 a 25.878068,25.878068 0 0 0 -0.7333,0.20464 v 0.194818 a 25.689514,25.689514 0 0 1 0.7333,-0.204637 z m -1.94974,0.05839 a 26.40426,26.40426 0 0 0 -0.73279,0.264583 v 0.247013 a 26.175854,26.175854 0 0 1 0.73279,-0.270267 z m -1.94924,0.154514 a 26.974718,26.974718 0 0 0 -0.73329,0.333827 v 0.294558 a 26.7081,26.7081 0 0 1 0.73329,-0.341582 z m -3.90004,0.02894 a 28.725127,28.725127 0 0 0 -0.17828,0.110072 c 0.0593,0.0465 0.11769,0.08819 0.17828,0.13901 z m 9.01549,0.122989 v 0.04806 a 25.177566,25.177566 0 0 1 0.0181,-0.0041 c -0.007,-0.01415 -0.0111,-0.02982 -0.0181,-0.04393 z m -22.6622,0.125574 a 37.397838,37.397838 0 0 0 -0.73226,0.88832 v 0.583425 a 37.028196,37.028196 0 0 1 0.73226,-0.897617 z m 21.44573,0.0072 a 25.397261,25.397261 0 0 0 -0.7333,0.206187 v 0.234095 a 25.177566,25.177566 0 0 1 0.7333,-0.210838 z m -17.54675,0.03255 a 34.509151,34.509151 0 0 0 -0.73223,0.771014 v 0.499711 a 34.168064,34.168064 0 0 1 0.73223,-0.77153 z m 11.6975,0.0026 a 27.523209,27.523209 0 0 0 -0.73226,0.395324 v 0.272852 a 27.285127,27.285127 0 0 1 0.73226,-0.394809 z m -13.64724,0.06718 a 35.877436,35.877436 0 0 0 -0.73226,0.820621 v 0.396359 a 35.616028,35.616028 0 0 1 0.73226,-0.843359 z m 17.54675,0.01654 a 25.878068,25.878068 0 0 0 -0.73279,0.2775 v 0.203607 a 25.689514,25.689514 0 0 1 0.73279,-0.282154 z m 3.29435,0.06149 a 24.891135,24.891135 0 0 0 -0.12814,0.02894 v 0.2558 a 24.64511,24.64511 0 0 1 0.22376,-0.05012 c -0.0319,-0.07817 -0.0613,-0.157721 -0.0956,-0.234612 z m -5.24359,0.148828 a 26.40426,26.40426 0 0 0 -0.73329,0.350367 v 0.254246 a 26.175854,26.175854 0 0 1 0.73329,-0.357082 z m 3.89898,0.195853 a 24.891135,24.891135 0 0 0 -0.7333,0.212907 v 0.260448 a 24.64511,24.64511 0 0 1 0.7333,-0.212905 z m -1.94974,0.100769 a 25.397261,25.397261 0 0 0 -0.73279,0.289388 v 0.239263 a 25.177566,25.177566 0 0 1 0.73279,-0.294556 z m -3.89951,0.02842 a 26.974718,26.974718 0 0 0 -0.73226,0.412895 v 0.304375 a 26.7081,26.7081 0 0 1 0.73226,-0.412895 z m 7.39748,0.02429 a 24.364738,24.364738 0 0 0 -0.33176,0.07441 v 0.21549 a 24.153977,24.153977 0 0 1 0.41238,-0.09198 c -0.0229,-0.06814 -0.056,-0.130736 -0.0806,-0.197922 z m -5.44721,0.231511 a 25.878068,25.878068 0 0 0 -0.73329,0.357084 v 0.208256 a 25.689514,25.689514 0 0 1 0.73329,-0.357084 z m 3.89898,0.167431 a 24.364738,24.364738 0 0 0 -0.7333,0.216524 v 0.223762 a 24.153977,24.153977 0 0 1 0.7333,-0.221176 z m -19.49649,0.0088 a 35.210845,35.210845 0 0 0 -0.73226,0.857827 v 0.47439 a 34.906262,34.906262 0 0 1 0.73226,-0.857312 z m 1.94974,0.0077 a 33.779354,33.779354 0 0 0 -0.73223,0.774631 v 0.453204 a 33.487153,33.487153 0 0 1 0.73223,-0.816489 z m 19.2526,0.04393 a 23.879192,23.879192 0 0 0 -0.48938,0.109554 v 0.212391 a 23.674382,23.674382 0 0 1 0.53846,-0.120407 c -0.018,-0.06624 -0.0295,-0.13617 -0.0491,-0.201538 z m -3.65559,0.03049 a 24.891135,24.891135 0 0 0 -0.73279,0.290422 v 0.272852 a 24.64511,24.64511 0 0 1 0.73279,-0.29714 z m -21.44573,0.0124 a 38.158269,38.158269 0 0 0 -0.73279,0.99787 v 0.553455 a 37.828188,37.828188 0 0 1 0.73279,-0.997355 z m 1.94974,0.05064 a 36.60695,36.60695 0 0 0 -0.73226,0.908989 v 0.536918 a 36.290289,36.290289 0 0 1 0.73226,-0.943094 z m 15.59648,0.07338 a 26.40426,26.40426 0 0 0 -0.72761,0.410311 c 0.0249,0.07301 0.0425,0.150881 0.0635,0.226343 a 26.175854,26.175854 0 0 1 0.66405,-0.374137 z m 1.95027,0.137459 a 25.397261,25.397261 0 0 0 -0.73329,0.357601 v 0.245464 a 25.177566,25.177566 0 0 1 0.73329,-0.357084 z m 3.89898,0.137975 a 23.879192,23.879192 0 0 0 -0.7333,0.226861 v 0.220658 a 23.674382,23.674382 0 0 1 0.7333,-0.23151 z m 1.81954,0.02016 a 23.405055,23.405055 0 0 0 -0.60307,0.134875 v 0.20774 a 23.202593,23.202593 0 0 1 0.65111,-0.145727 c -0.0142,-0.06671 -0.0324,-0.131045 -0.0481,-0.196887 z m -3.76928,0.131773 a 24.364738,24.364738 0 0 0 -0.73279,0.304893 v 0.229442 a 24.153977,24.153977 0 0 1 0.73279,-0.310057 z m -3.89951,0.179319 a 25.878068,25.878068 0 0 0 -0.58706,0.330729 c 0.0131,0.06429 0.0211,0.131543 0.0315,0.197403 a 25.689514,25.689514 0 0 1 0.55552,-0.313158 z m 1.95027,0.08527 a 24.891135,24.891135 0 0 0 -0.73329,0.37362 v 0.280604 a 24.64511,24.64511 0 0 1 0.73329,-0.373621 z m 5.82858,0.05426 a 22.938631,22.938631 0 0 0 -0.71313,0.166398 v 0.235129 a 22.711906,22.711906 0 0 1 0.73277,-0.170532 v -0.15193 c -0.005,-0.02741 -0.0147,-0.0518 -0.0196,-0.07907 z m -1.9296,0.02481 a 23.405055,23.405055 0 0 0 -0.7333,0.237712 v 0.21549 a 23.202593,23.202593 0 0 1 0.7333,-0.241329 z m -17.54675,0.0021 a 33.10619,33.10619 0 0 0 -0.73223,0.815973 v 0.436146 a 32.822242,32.822242 0 0 1 0.73223,-0.83044 z m -1.94974,0.09043 a 34.509151,34.509151 0 0 0 -0.73226,0.891419 v 0.564824 a 34.168064,34.168064 0 0 1 0.73226,-0.92656 z m 17.54675,0.07752 a 23.879192,23.879192 0 0 0 -0.73279,0.316775 v 0.226343 a 23.674382,23.674382 0 0 1 0.73279,-0.317293 z m -19.49599,0.157094 a 35.877436,35.877436 0 0 0 -0.73226,0.95498 v 0.454236 a 35.616028,35.616028 0 0 1 0.73226,-0.986501 z m 15.59648,0.05839 a 25.397261,25.397261 0 0 0 -0.51213,0.294555 c 0.008,0.08304 0.01,0.1695 0.0134,0.254765 a 25.177566,25.177566 0 0 1 0.49869,-0.295587 z m -17.54622,0.0036 a 37.397838,37.397838 0 0 0 -0.73279,1.042315 v 0.670243 a 37.028196,37.028196 0 0 1 0.73279,-1.088822 z m 25.34471,0.08217 a 22.453526,22.453526 0 0 0 -0.73277,0.171047 v 0.196371 a 22.259295,22.259295 0 0 1 0.73277,-0.171047 z m -1.94924,0.01757 a 22.938631,22.938631 0 0 0 -0.7333,0.237709 v 0.244949 a 22.711906,22.711906 0 0 1 0.7333,-0.24288 z m -3.89898,0.02791 a 24.364738,24.364738 0 0 0 -0.73329,0.373618 v 0.236162 a 24.153977,24.153977 0 0 1 0.73329,-0.373621 z m 1.94924,0.172083 a 23.405055,23.405055 0 0 0 -0.73279,0.31729 v 0.221176 a 23.202593,23.202593 0 0 1 0.73279,-0.317293 z m 3.89897,0.241329 a 22.006067,22.006067 0 0 0 -0.73276,0.171048 v 0.161748 a 21.845725,21.845725 0 0 1 0.73276,-0.171051 z m -7.79848,0.04237 a 24.891135,24.891135 0 0 0 -0.49144,0.290422 c -0.001,0.09791 -0.007,0.198154 -0.0134,0.298688 a 24.64511,24.64511 0 0 1 0.50488,-0.298688 z m -11.6975,0.01602 a 32.448844,32.448844 0 0 0 -0.73223,0.867649 v 0.451132 a 32.16815,32.16815 0 0 1 0.73223,-0.89555 z m 17.54675,0.01033 a 22.453526,22.453526 0 0 0 -0.7333,0.249082 v 0.20412 a 22.259295,22.259295 0 0 1 0.7333,-0.25373 z m -3.89898,0.05891 a 23.879192,23.879192 0 0 0 -0.7333,0.373621 v 0.238744 a 23.674382,23.674382 0 0 1 0.7333,-0.379822 z m 1.94924,0.128158 a 22.938631,22.938631 0 0 0 -0.73279,0.331763 v 0.25218 a 22.711906,22.711906 0 0 1 0.73279,-0.33228 z m -17.54675,0.04496 a 33.779354,33.779354 0 0 0 -0.73226,0.953947 v 0.497644 a 33.487153,33.487153 0 0 1 0.73226,-0.973066 z m 21.44572,0.120406 a 21.597199,21.597199 0 0 0 -0.73276,0.173633 v 0.19172 a 21.410379,21.410379 0 0 1 0.73276,-0.176734 z m -23.39496,0.06511 a 35.210845,35.210845 0 0 0 -0.73226,1.036111 v 0.544671 a 34.906262,34.906262 0 0 1 0.73226,-1.065569 z m 21.44573,0.04909 a 22.006067,22.006067 0 0 0 -0.7333,0.259935 v 0.168461 a 21.845725,21.845725 0 0 1 0.7333,-0.263548 z m -5.84925,0.122992 a 24.364738,24.364738 0 0 0 -0.53848,0.334346 c -0.0115,0.09529 -0.0241,0.189838 -0.0398,0.281635 a 24.153977,24.153977 0 0 1 0.57827,-0.371035 z m 1.95027,0.0041 a 23.405055,23.405055 0 0 0 -0.73329,0.390674 v 0.235645 a 23.202593,23.202593 0 0 1 0.73329,-0.398426 z m 1.94924,0.129191 a 22.453526,22.453526 0 0 0 -0.73279,0.331764 v 0.209806 a 22.259295,22.259295 0 0 1 0.73279,-0.332279 z m -21.44573,0.03204 a 36.60695,36.60695 0 0 0 -0.73279,1.112076 v 0.609782 a 36.290289,36.290289 0 0 1 0.73279,-1.144632 z m 25.34471,0.121955 a 21.166804,21.166804 0 0 0 -0.73277,0.199987 v 0.135393 a 20.957591,20.957591 0 0 1 0.73277,-0.190685 z m -1.94924,0.01809 a 21.597199,21.597199 0 0 0 -0.7333,0.269751 v 0.195339 a 21.410379,21.410379 0 0 1 0.7333,-0.27337 z m -17.54675,0.08578 a 31.802191,31.802191 0 0 0 -0.73223,0.910539 v 0.50953 a 31.487858,31.487858 0 0 1 0.73223,-0.920359 z m 13.64777,0.138493 a 22.938631,22.938631 0 0 0 -0.73329,0.393258 v 0.269751 a 22.711906,22.711906 0 0 1 0.73329,-0.403077 z m -1.95027,0.03101 a 23.879192,23.879192 0 0 0 -0.66043,0.440798 c -0.0236,0.0953 -0.0435,0.194035 -0.0718,0.285255 v 0.01344 a 23.674382,23.674382 0 0 1 0.73226,-0.497644 z m 3.89951,0.06305 a 22.006067,22.006067 0 0 0 -0.73279,0.331761 v 0.173117 a 21.845725,21.845725 0 0 1 0.73279,-0.331762 z m 3.89897,0.03772 a 20.719169,20.719169 0 0 0 -0.73276,0.181901 v 0.189135 a 20.539943,20.539943 0 0 1 0.73276,-0.185518 z m -21.44572,0.06976 a 33.10619,33.10619 0 0 0 -0.73226,1.018024 v 0.482658 a 32.822242,32.822242 0 0 1 0.73226,-1.019575 z m 19.49649,0.15503 a 21.166804,21.166804 0 0 0 -0.7333,0.284218 v 0.109037 a 20.957591,20.957591 0 0 1 0.7333,-0.273883 z m -21.44573,0.152443 a 34.509151,34.509151 0 0 0 -0.73226,1.080037 v 0.658873 a 34.168064,34.168064 0 0 1 0.73226,-1.131713 z m 19.49599,0.03514 a 21.597199,21.597199 0 0 0 -0.73279,0.331764 v 0.206187 a 21.410379,21.410379 0 0 1 0.73279,-0.336929 z m -1.94924,0.0093 a 22.453526,22.453526 0 0 0 -0.73329,0.414443 v 0.224277 a 22.259295,22.259295 0 0 1 0.73329,-0.422196 z m 5.84822,0.0062 a 20.30627,20.30627 0 0 0 -0.73277,0.190169 v 0.170535 a 20.146036,20.146036 0 0 1 0.73277,-0.193271 z m -7.79849,0.03876 a 23.405055,23.405055 0 0 0 -0.73226,0.497644 v 0.245462 a 23.202593,23.202593 0 0 1 0.73226,-0.497645 z m 5.84925,0.101285 a 20.719169,20.719169 0 0 0 -0.7333,0.282154 v 0.193786 a 20.539943,20.539943 0 0 1 0.7333,-0.286806 z m -17.54675,0.219625 a 31.129642,31.129642 0 0 0 -0.73223,0.973066 v 0.447519 a 30.860362,30.860362 0 0 1 0.73223,-0.97255 z m 19.49599,0.04289 a 19.916846,19.916846 0 0 0 -0.73277,0.197403 v 0.182419 a 19.744559,19.744559 0 0 1 0.73277,-0.201022 z m -25.34471,0.001 a 35.877436,35.877436 0 0 0 -0.73279,1.195274 v 0.520381 a 35.616028,35.616028 0 0 1 0.73279,-1.223697 z m 19.49649,0.09663 a 22.006067,22.006067 0 0 0 -0.73329,0.433565 v 0.185518 a 21.845725,21.845725 0 0 1 0.73329,-0.440799 z m 3.89898,0.07958 a 20.30627,20.30627 0 0 0 -0.7333,0.288871 v 0.174665 a 20.146036,20.146036 0 0 1 0.7333,-0.288869 z m -5.84925,0.01033 a 22.938631,22.938631 0 0 0 -0.73226,0.520382 v 0.282155 a 22.711906,22.711906 0 0 1 0.73226,-0.525034 z m 3.89951,0.02997 a 21.166804,21.166804 0 0 0 -0.73279,0.371038 v 0.0832 a 20.957591,20.957591 0 0 1 0.73279,-0.361736 z m -17.54675,0.149347 a 32.448844,32.448844 0 0 0 -0.73226,1.057814 v 0.524 a 32.16815,32.16815 0 0 1 0.73226,-1.097606 z m 21.44573,0.03927 a 19.519938,19.519938 0 0 0 -0.73277,0.205158 v 0.201535 a 19.327001,19.327001 0 0 1 0.73277,-0.201535 z m -3.89898,0.137977 a 20.719169,20.719169 0 0 0 -0.73279,0.3483 v 0.205672 a 20.539943,20.539943 0 0 1 0.73279,-0.355018 z m -1.94924,0.01809 a 21.597199,21.597199 0 0 0 -0.73329,0.452168 v 0.215492 a 21.410379,21.410379 0 0 1 0.73329,-0.456303 z m 3.89898,0.03514 a 19.916846,19.916846 0 0 0 -0.7333,0.289388 v 0.187068 a 19.744559,19.744559 0 0 1 0.7333,-0.289904 z m -5.84925,0.186552 a 22.453526,22.453526 0 0 0 -0.73226,0.524515 v 0.234612 a 22.259295,22.259295 0 0 1 0.73226,-0.525034 z m -15.59648,0.05374 a 33.779354,33.779354 0 0 0 -0.73226,1.188559 v 0.582911 a 33.487153,33.487153 0 0 1 0.73226,-1.213363 z m 23.36912,0.0047 a 19.10713,19.10713 0 0 0 -0.70692,0.199473 v 0.175699 a 18.941848,18.941848 0 0 1 0.66712,-0.19327 c 0.0114,-0.0623 0.0294,-0.118752 0.0398,-0.181902 z m -19.47014,0.145728 a 30.509281,30.509281 0 0 0 -0.73223,1.01441 v 0.39739 a 30.286983,30.286983 0 0 1 0.73223,-1.044379 z m 15.59701,0.01499 a 20.30627,20.30627 0 0 0 -0.73279,0.365352 v 0.186553 a 20.146036,20.146036 0 0 1 0.73279,-0.371555 z m 1.94974,0.01809 a 19.519938,19.519938 0 0 0 -0.7333,0.289388 v 0.218593 a 19.327001,19.327001 0 0 1 0.7333,-0.303858 z m 1.83245,0.237196 a 18.726358,18.726358 0 0 0 -0.61598,0.184483 v 0.143834 a 18.589914,18.589914 0 0 1 0.58291,-0.179316 c 0.011,-0.04954 0.0227,-0.09872 0.0331,-0.148828 z m -25.22792,0.01137 a 35.210845,35.210845 0 0 0 -0.73279,1.297078 v 0.645437 a 34.906262,34.906262 0 0 1 0.73279,-1.349271 z m 19.49649,0.01602 a 21.166804,21.166804 0 0 0 -0.73329,0.462505 v 0.05478 a 20.957591,20.957591 0 0 1 0.73329,-0.451652 z m -1.95027,0.04703 a 22.006067,22.006067 0 0 0 -0.73226,0.528132 v 0.204124 a 21.845725,21.845725 0 0 1 0.73226,-0.53847 z m 3.89951,0.10387 a 19.916846,19.916846 0 0 0 -0.73279,0.380339 v 0.199469 a 19.744559,19.744559 0 0 1 0.73279,-0.387056 z m 1.94974,0.02377 a 19.10713,19.10713 0 0 0 -0.7333,0.303858 v 0.180351 a 18.941848,18.941848 0 0 1 0.7333,-0.303858 z m -19.49649,0.02067 a 31.802191,31.802191 0 0 0 -0.73226,1.146185 v 0.601512 a 31.487858,31.487858 0 0 1 0.73226,-1.165821 z m 15.59751,0.0956 a 20.719169,20.719169 0 0 0 -0.73329,0.479042 v 0.214974 a 20.539943,20.539943 0 0 1 0.73329,-0.480592 z m 5.64771,0.06356 a 18.378428,18.378428 0 0 0 -0.53226,0.171048 v 0.166915 a 18.219449,18.219449 0 0 1 0.49401,-0.16433 c 0.0149,-0.05596 0.0242,-0.116901 0.0382,-0.173633 z m -9.54775,0.01085 a 22.938631,22.938631 0 0 0 -0.73223,0.630455 v 0.314709 a 22.711906,22.711906 0 0 1 0.73223,-0.648023 z m 1.94977,0.186037 a 21.597199,21.597199 0 0 0 -0.73226,0.554487 v 0.237197 a 21.410379,21.410379 0 0 1 0.73226,-0.56586 z m 5.84925,0.03514 a 18.726358,18.726358 0 0 0 -0.7333,0.30334 v 0.147796 a 18.589914,18.589914 0 0 1 0.7333,-0.303858 z m -1.94974,10e-4 a 19.519938,19.519938 0 0 0 -0.73279,0.39584 v 0.222727 a 19.327001,19.327001 0 0 1 0.73279,-0.392224 z m -15.59701,0.06046 a 29.942427,29.942427 0 0 0 -0.73223,1.091925 v 0.464571 a 29.683419,29.683419 0 0 1 0.73223,-1.095542 z m 19.20402,0.114723 a 18.012177,18.012177 0 0 0 -0.4408,0.146759 v 0.186553 a 17.834144,17.834144 0 0 1 0.36018,-0.119888 c 0.0238,-0.07364 0.0585,-0.138338 0.0806,-0.213424 z m -5.55625,0.02222 a 20.30627,20.30627 0 0 0 -0.73329,0.480592 v 0.19482 a 20.146036,20.146036 0 0 1 0.73329,-0.481108 z m -17.54675,0.03617 a 33.10619,33.10619 0 0 0 -0.73226,1.280025 v 0.578776 a 32.822242,32.822242 0 0 1 0.73226,-1.302245 z m 21.44573,0.144176 a 18.378428,18.378428 0 0 0 -0.7333,0.303342 v 0.173115 a 18.219449,18.219449 0 0 1 0.7333,-0.305406 z m -7.79902,0.03204 a 22.453526,22.453526 0 0 0 -0.73223,0.667658 v 0.260966 a 22.259295,22.259295 0 0 1 0.73223,-0.682646 z m 5.84928,0.05943 a 19.10713,19.10713 0 0 0 -0.73279,0.401526 v 0.19327 a 18.941848,18.941848 0 0 1 0.73279,-0.40876 z m 3.43646,0.158647 a 17.631256,17.631256 0 0 0 -0.27025,0.09457 v 0.159678 a 17.47874,17.47874 0 0 1 0.20101,-0.06976 c 0.0236,-0.06113 0.047,-0.12228 0.0692,-0.184486 z m -11.32023,0.0083 c -0.0791,0.0124 -0.21227,0.02311 -0.32763,0.03462 a 23.879192,23.879192 0 0 0 -0.31988,0.319879 v 0.302823 a 23.674382,23.674382 0 0 1 0.64751,-0.657325 z m 5.93453,0.02894 a 19.916846,19.916846 0 0 0 -0.73329,0.481108 v 0.217556 a 19.744559,19.744559 0 0 1 0.73329,-0.490408 z m -1.95027,0.10232 a 21.166804,21.166804 0 0 0 -0.73226,0.604096 v 0.02274 a 20.957591,20.957591 0 0 1 0.73226,-0.591696 z m 5.84925,0.0047 a 18.012177,18.012177 0 0 0 -0.7333,0.312642 v 0.197919 a 17.834144,17.834144 0 0 1 0.7333,-0.318844 z m -12.0437,0.0062 c -0.0975,0.0035 -0.19418,0.0071 -0.29663,0.0098 a 25.397261,25.397261 0 0 0 -0.0899,0.108005 v 0.345716 a 25.177566,25.177566 0 0 1 0.38656,-0.46354 z m -3.83027,0.02687 a 28.15268,28.15268 0 0 0 -0.45527,0.651121 v 0.542086 a 27.839929,27.839929 0 0 1 0.73226,-1.045413 v -0.147794 z m 2.20866,0 a 26.40426,26.40426 0 0 0 -0.71469,0.928108 v 0.385506 a 26.175854,26.175854 0 0 1 0.73226,-0.977718 v -0.335896 c -0.006,5e-6 -0.0117,-5.8e-5 -0.0176,0 z m -2.66393,5.16e-4 v 0.08785 a 28.476641,28.476641 0 0 1 0.0615,-0.08785 z m 1.94924,0 v 0.418579 a 26.7081,26.7081 0 0 1 0.32141,-0.418579 z m -9.01547,0.0093 a 34.509151,34.509151 0 0 0 -0.73279,1.408184 v 0.799434 a 34.168064,34.168064 0 0 1 0.73279,-1.486213 z m 11.69747,0.01395 a 24.891135,24.891135 0 0 0 -0.73226,0.84646 v 0.40721 a 24.64511,24.64511 0 0 1 0.73226,-0.875916 z m -7.79849,0.0067 a 31.129642,31.129642 0 0 0 -0.73226,1.238684 v 0.546737 a 30.860362,30.860362 0 0 1 0.73226,-1.258321 z m 17.54675,0.05839 a 18.726358,18.726358 0 0 0 -0.73279,0.418579 v 0.158647 a 18.589914,18.589914 0 0 1 0.73279,-0.424262 z m -7.79849,0.03773 a 23.405055,23.405055 0 0 0 -0.73279,0.768945 v 0.306959 a 23.202593,23.202593 0 0 1 0.73279,-0.788583 z m 1.94921,0.07131 a 22.006067,22.006067 0 0 0 -0.73223,0.685747 v 0.216008 a 21.845725,21.845725 0 0 1 0.73223,-0.685747 z m 9.12453,0.05219 a 17.279896,17.279896 0 0 0 -0.10904,0.03824 v 0.156581 a 17.131688,17.131688 0 0 1 0.0413,-0.01447 c 0.026,-0.05734 0.043,-0.121981 0.0677,-0.180351 z m -7.17476,0.0026 a 20.719169,20.719169 0 0 0 -0.73226,0.595831 v 0.237709 a 20.539943,20.539943 0 0 1 0.73226,-0.608229 z m -11.6975,0.06615 a 29.345726,29.345726 0 0 0 -0.73223,1.151353 v 0.558105 a 29.055671,29.055671 0 0 1 0.73223,-1.187525 z m 13.64777,0.0124 a 19.519938,19.519938 0 0 0 -0.73329,0.503846 v 0.23926 a 19.327001,19.327001 0 0 1 0.73329,-0.509013 z m 3.89898,0.04702 a 17.631256,17.631256 0 0 0 -0.7333,0.31936 v 0.165365 a 17.47874,17.47874 0 0 1 0.7333,-0.320392 z m -1.94974,0.10232 a 18.378428,18.378428 0 0 0 -0.73279,0.434083 v 0.183968 a 18.219449,18.219449 0 0 1 0.73279,-0.434599 z m -13.64724,0.22066 a 27.523209,27.523209 0 0 0 -0.73226,1.081069 v 0.458379 a 27.285127,27.285127 0 0 1 0.73226,-1.119837 z m -5.84875,0.04961 a 32.448844,32.448844 0 0 0 -0.73226,1.384928 v 0.63355 a 32.16815,32.16815 0 0 1 0.73226,-1.445388 z m 13.64671,0.0088 a 21.597199,21.597199 0 0 0 -0.73223,0.700734 v 0.267684 a 21.410379,21.410379 0 0 1 0.73223,-0.716754 z m 7.79902,5.16e-4 a 17.279896,17.279896 0 0 0 -0.7333,0.327629 v 0.166915 a 17.131688,17.131688 0 0 1 0.7333,-0.333312 z m -5.84925,0.01189 a 20.30627,20.30627 0 0 0 -0.73226,0.625287 v 0.216005 a 20.146036,20.146036 0 0 1 0.73226,-0.636653 z m -3.89898,0.02016 a 22.938631,22.938631 0 0 0 -0.73279,0.794782 v 0.36173 a 22.711906,22.711906 0 0 1 0.73279,-0.821134 z m -3.89951,0.03152 a 25.878068,25.878068 0 0 0 -0.73226,0.995804 v 0.332798 a 25.689514,25.689514 0 0 1 0.73226,-1.011308 z m 1.94974,0.0021 a 24.364738,24.364738 0 0 0 -0.73226,0.90899 v 0.343652 a 24.153977,24.153977 0 0 1 0.73226,-0.934316 z m 7.79902,0.0036 a 19.10713,19.10713 0 0 0 -0.73329,0.512114 v 0.21394 a 18.941848,18.941848 0 0 1 0.73329,-0.523481 z m 1.94924,0.07441 a 18.012177,18.012177 0 0 0 -0.73279,0.435115 v 0.20464 a 17.834144,17.834144 0 0 1 0.73279,-0.4346 z m 1.94974,0.230476 a 16.936791,16.936791 0 0 0 -0.7333,0.341582 v 0.1664 a 16.790283,16.790283 0 0 1 0.7333,-0.347265 z m -19.49649,0.113173 a 30.509281,30.509281 0 0 0 -0.73226,1.331693 v 0.481631 a 30.286983,30.286983 0 0 1 0.73226,-1.377693 z m 13.64724,0.03049 a 19.916846,19.916846 0 0 0 -0.73226,0.638723 v 0.23048 a 19.744559,19.744559 0 0 1 0.73226,-0.638209 z m 1.95027,0.01395 a 18.726358,18.726358 0 0 0 -0.73329,0.537951 v 0.175182 a 18.589914,18.589914 0 0 1 0.73329,-0.547252 z m 1.94924,0.04289 a 17.631256,17.631256 0 0 0 -0.73279,0.458369 v 0.178284 a 17.47874,17.47874 0 0 1 0.73279,-0.460438 z m -15.59701,0.135908 a 28.725127,28.725127 0 0 0 -0.73223,1.246435 v 0.52297 a 28.476641,28.476641 0 0 1 0.73223,-1.29605 z m 17.54675,0.03359 a 16.599269,16.599269 0 0 0 -0.7333,0.355018 v 0.182937 a 16.435202,16.435202 0 0 1 0.7333,-0.361736 z m -9.74823,0.0021 a 22.453526,22.453526 0 0 0 -0.73279,0.850595 v 0.30023 a 22.259295,22.259295 0 0 1 0.73279,-0.871774 z m -1.94977,0.07183 a 23.879192,23.879192 0 0 0 -0.73226,0.944125 v 0.3607 a 23.674382,23.674382 0 0 1 0.73226,-0.966862 z m -11.69747,0.0021 a 33.779354,33.779354 0 0 0 -0.73279,1.573555 v 0.7518896 a 33.487153,33.487153 0 0 1 0.73279,-1.6582996 z m 9.74773,0.05219 a 25.397261,25.397261 0 0 0 -0.73226,1.056265 v 0.40773 a 25.177566,25.177566 0 0 1 0.73226,-1.09038 z m -1.94924,0.03927 a 26.974718,26.974718 0 0 0 -0.73226,1.153935 v 0.54054 a 26.7081,26.7081 0 0 1 0.73226,-1.20561 z m 11.698,0.04702 a 18.378428,18.378428 0 0 0 -0.73329,0.561206 v 0.2036 a 18.219449,18.219449 0 0 1 0.73329,-0.572053 z m 1.94924,0.02791 a 17.279896,17.279896 0 0 0 -0.73279,0.459925 v 0.17415 a 17.131688,17.131688 0 0 1 0.73279,-0.460443 z m -3.89951,0.05426 a 19.519938,19.519938 0 0 0 -0.73226,0.652155 v 0.27751 a 19.327001,19.327001 0 0 1 0.73226,-0.68161 z m 5.84925,0.0863 a 16.248229,16.248229 0 0 0 -0.7333,0.368975 v 0.15813 a 16.107677,16.107677 0 0 1 0.7333,-0.37466 z m -7.79902,0.08785 a 20.719169,20.719169 0 0 0 -0.73223,0.76739 v 0.27234 a 20.539943,20.539943 0 0 1 0.73223,-0.786521 z m -0.3116,0.0315 a 21.166804,21.166804 0 0 0 -0.42063,0.44803 v 0.009 a 20.957591,20.957591 0 0 1 0.42063,-0.45682 z m -13.33511,0.10904 a 31.802191,31.802191 0 0 0 -0.73226,1.5275496 v 0.7937495 a 31.487858,31.487858 0 0 1 0.73226,-1.6159191 z m 19.49599,0.0362 a 16.936791,16.936791 0 0 0 -0.73279,0.46044 v 0.18138 a 16.790283,16.790283 0 0 1 0.73279,-0.46819 z m -1.94924,0.0108 a 18.012177,18.012177 0 0 0 -0.73329,0.5855 v 0.22686 a 17.834144,17.834144 0 0 1 0.73329,-0.59067 z m -5.84925,0.005 a 22.006067,22.006067 0 0 0 -0.73279,0.89297 v 0.24805 a 21.845725,21.845725 0 0 1 0.73279,-0.89349 z m 9.74823,0.0863 a 15.92443,15.92443 0 0 0 -0.7333,0.3731 v 0.12868 a 15.8084,15.8084 0 0 1 0.66199,-0.3452 c 0.0223,-0.0233 0.0494,-0.0431 0.0713,-0.0667 z m -5.84925,0.091 a 19.10713,19.10713 0 0 0 -0.73226,0.68213 v 0.23254 a 18.941848,18.941848 0 0 1 0.73226,-0.68678 z m -5.84875,0.0103 a 23.405055,23.405055 0 0 0 -0.73226,1.00717 v 0.3612196 a 23.202593,23.202593 0 0 1 0.73226,-1.0371496 z m -7.79849,0.046 a 29.942427,29.942427 0 0 0 -0.73226,1.4479696 v 0.6314895 a 29.683419,29.683419 0 0 1 0.73226,-1.5172191 z m 5.84875,0.10387 a 24.891135,24.891135 0 0 0 -0.73226,1.1239596 v 0.4893695 a 24.64511,24.64511 0 0 1 0.73226,-1.1699491 z m 11.698,0.047 a 16.599269,16.599269 0 0 0 -0.73279,0.48008 v 0.20102 a 16.435202,16.435202 0 0 1 0.73279,-0.49041 z m -5.84928,0.007 a 20.30627,20.30627 0 0 0 -0.73223,0.81132 v 0.2485596 a 20.146036,20.146036 0 0 1 0.73223,-0.8294096 z m -9.74773,0.004 a 28.15268,28.15268 0 0 0 -0.73223,1.3585696 v 0.7265695 a 27.839929,27.839929 0 0 1 0.73223,-1.4304091 z m 13.64777,0.0837 a 17.631256,17.631256 0 0 0 -0.73329,0.60151 v 0.19896 a 17.47874,17.47874 0 0 1 0.73329,-0.61237 z m -11.698,0.0692 a 26.40426,26.40426 0 0 0 -0.73226,1.2645196 v 0.4650895 a 26.175854,26.175854 0 0 1 0.73226,-1.2986291 z m 5.84875,0.0977 a 21.597199,21.597199 0 0 0 -0.73279,0.9275896 v 0.3147095 a 21.410379,21.410379 0 0 1 0.73279,-0.9534291 z m 9.1958,0.046 a 15.62856,15.62856 0 0 0 -0.18087,0.10128 v 0.0677 c 0.0649,-0.053 0.11817,-0.11441 0.18087,-0.16898 z m -5.29682,0.005 a 18.726358,18.726358 0 0 0 -0.73226,0.70849 v 0.1999896 a 18.589914,18.589914 0 0 1 0.73226,-0.7219196 z m 3.89951,0.10181 a 16.248229,16.248229 0 0 0 -0.73279,0.50178 v 0.1736296 a 16.107677,16.107677 0 0 1 0.73279,-0.5105696 z m -1.94924,0.11524 a 17.279896,17.279896 0 0 0 -0.73329,0.6278596 v 0.19483 a 17.131688,17.131688 0 0 1 0.73329,-0.6309696 z m -3.90004,0.045 a 19.916846,19.916846 0 0 0 -0.73223,0.8392196 v 0.2759495 a 19.744559,19.744559 0 0 1 0.73223,-0.8511091 z m -3.89898,0.005 a 22.938631,22.938631 0 0 0 -0.73226,1.0655691 v 0.43408 a 22.711906,22.711906 0 0 1 0.73226,-1.1058691 z m -11.69747,0.0388 a 33.10619,33.10619 0 0 0 -0.73279,1.7931691 v 0.81494 a 32.822242,32.822242 0 0 1 0.73279,-1.8970395 z m 17.54622,0.17312 a 18.378428,18.378428 0 0 0 -0.73226,0.7441391 v 0.23202 a 18.219449,18.219449 0 0 1 0.73226,-0.7601591 z m 3.89951,0.017 a 15.92443,15.92443 0 0 0 -0.73279,0.5100496 v 0.1426195 a 15.8084,15.8084 0 0 1 0.73279,-0.5183091 z m -11.698,0.0863 a 24.364738,24.364738 0 0 0 -0.73226,1.2221491 v 0.43046 a 24.153977,24.153977 0 0 1 0.73226,-1.2552195 z m 9.74876,0.0847 a 16.936791,16.936791 0 0 0 -0.73329,0.6309691 v 0.20257 a 16.790283,16.790283 0 0 1 0.73329,-0.6397495 z m -17.54675,0.1271196 a 31.129642,31.129642 0 0 0 -0.73226,1.7394295 v 0.40618 h 0.13333 a 30.860362,30.860362 0 0 1 0.59893,-1.48622 z m 1.94924,0.0346 a 29.345726,29.345726 0 0 0 -0.73226,1.6081795 v 0.50177 h 0.12094 a 29.055671,29.055671 0 0 1 0.61132,-1.41593 z m 17.54675,0.0171 a 15.62856,15.62856 0 0 0 -0.64908,0.4650895 c 0.22355,-0.10376 0.44254,-0.2105095 0.64908,-0.3255695 z m -5.84928,0.0155 a 19.519938,19.519938 0 0 0 -0.73223,0.8800495 v 0.31471 a 19.327001,19.327001 0 0 1 0.73223,-0.90899 z m -7.79796,0.0305 a 25.878068,25.878068 0 0 0 -0.73226,1.3730395 v 0.42943 a 25.689514,25.689514 0 0 1 0.73226,-1.41955 z m 9.74773,0.0847 a 18.012177,18.012177 0 0 0 -0.73226,0.7813495 v 0.2589 a 17.834144,17.834144 0 0 1 0.73226,-0.78652 z m -3.89898,0.0119 a 21.166804,21.166804 0 0 0 -0.73279,0.9870195 v 0.0713 a 20.957591,20.957591 0 0 1 0.73279,-1.0154395 z m -7.79852,0.0336 a 27.523209,27.523209 0 0 0 -0.73223,1.5125695 v 0.59635 a 27.285127,27.285127 0 0 1 0.73223,-1.59835 z m 5.84875,0.0827 a 22.453526,22.453526 0 0 0 -0.73226,1.1513495 v 0.36173 a 22.259295,22.259295 0 0 1 0.73226,-1.1777 z m 7.79902,0.009 a 16.599269,16.599269 0 0 0 -0.73329,0.6578395 v 0.22893 a 16.435202,16.435202 0 0 1 0.73329,-0.67283 z m -5.84925,0.2501095 a 20.719169,20.719169 0 0 0 -0.73279,1.04903 v 0.32557 a 20.539943,20.539943 0 0 1 0.73279,-1.07953 z m 1.94921,0.12868 a 19.10713,19.10713 0 0 0 -0.73223,0.92449 v 0.28422 c 0.002,-1.9e-4 0.004,-3.3e-4 0.006,-5.2e-4 a 18.941848,18.941848 0 0 1 0.72604,-0.94258 z m -5.84872,0.0217 a 23.879192,23.879192 0 0 0 -0.73226,1.31982 v 0.0703 c 0.0651,-0.001 0.13141,-0.002 0.1979,-0.003 a 23.674382,23.674382 0 0 1 0.53436,-0.98133 z m 7.79849,0.014 a 17.631256,17.631256 0 0 0 -0.73226,0.81442 v 0.12299 c 0.0382,-0.006 0.073,-0.0146 0.11059,-0.0212 a 17.47874,17.47874 0 0 1 0.62167,-0.70332 z m 1.95027,0.0486 a 16.248229,16.248229 0 0 0 -0.41394,0.37155 c 0.10006,-0.0285 0.20071,-0.0564 0.29765,-0.0868 a 16.107677,16.107677 0 0 1 0.11629,-0.10026 z m -11.698,0.29042 a 25.397261,25.397261 0 0 0 -0.73226,1.49862 v 0.57826 a 25.177566,25.177566 0 0 1 0.73226,-1.58337 z m 3.89898,0.0568 a 22.006067,22.006067 0 0 0 -0.73226,1.23558 v 0.33486 a 21.845725,21.845725 0 0 1 0.73226,-1.27227 z m -11.69747,0.0873 a 32.448844,32.448844 0 0 0 -0.34157,0.92914 h 0.30022 a 32.16815,32.16815 0 0 1 0.0414,-0.11317 z m 17.54622,0.0165 a 17.279896,17.279896 0 0 0 -0.30747,0.35708 c 0.0767,-0.015 0.15583,-0.0281 0.23201,-0.0434 a 17.131688,17.131688 0 0 1 0.0755,-0.0879 z m -3.89898,0.0196 a 20.30627,20.30627 0 0 0 -0.73279,1.11673 v 0.32711 a 20.146036,20.146036 0 0 1 0.73279,-1.14721 z m 1.94921,0.0506 a 18.726358,18.726358 0 0 0 -0.44802,0.5762 c 0.0598,-0.005 0.11856,-0.0114 0.17777,-0.0171 a 18.589914,18.589914 0 0 1 0.27025,-0.34209 z m -9.74773,0.16485 a 26.974718,26.974718 0 0 0 -0.73223,1.69499 v 0.76895 a 26.7081,26.7081 0 0 1 0.73223,-1.8433 z m -1.94974,0.0429 a 28.725127,28.725127 0 0 0 -0.47543,1.18701 v 0.70383 a 28.476641,28.476641 0 0 1 0.47543,-1.22886 z m -1.94924,0.0476 a 30.509281,30.509281 0 0 0 -0.22375,0.58601 h 0.22375 z m 7.79799,0.0961 a 23.405055,23.405055 0 0 0 -0.22998,0.44751 c 0.0767,-0.001 0.15531,-0.002 0.22945,-0.003 a 23.202593,23.202593 0 0 1 5.3e-4,0 v -5.1e-4 z m 1.94974,0.25062 a 21.597199,21.597199 0 0 0 -0.73226,1.32861 v 0.41444 a 21.410379,21.410379 0 0 1 0.73226,-1.39526 z m 1.94977,0.061 a 19.916846,19.916846 0 0 0 -0.73279,1.19735 v 0.35398 a 19.744559,19.744559 0 0 1 0.73279,-1.23455 z m -6.01568,0.5917 a 24.891135,24.891135 0 0 0 -0.56533,1.32188 v 0.73432 a 24.64511,24.64511 0 0 1 0.56533,-1.42988 z m 6.01568,0.1266 a 19.519938,19.519938 0 0 0 -0.73279,1.28261 v 0.46096 a 19.327001,19.327001 0 0 1 0.73279,-1.34979 z m -7.79852,0.19431 a 26.40426,26.40426 0 0 0 -0.7157,1.93166 h 0.24236 a 26.175854,26.175854 0 0 1 0.47334,-1.33428 z m -1.94974,0.17053 a 28.15268,28.15268 0 0 0 -0.47543,1.38131 v 0.37982 h 0.20103 a 27.839929,27.839929 0 0 1 0.2744,-0.82837 z m 7.79849,0.0899 a 21.166804,21.166804 0 0 0 -0.73226,1.46347 v 0.20774 h 0.006 a 20.957591,20.957591 0 0 1 0.72657,-1.52238 z m 1.94977,0.3638 a 19.10713,19.10713 0 0 0 -0.68112,1.30741 h 0.18553 a 18.941848,18.941848 0 0 1 0.49559,-0.9803 z m -1.94977,0.23409 a 20.719169,20.719169 0 0 0 -0.50125,1.07332 h 0.19171 a 20.539943,20.539943 0 0 1 0.30954,-0.65887 z m -4.06591,0.15245 a 24.364738,24.364738 0 0 0 -0.33848,0.92087 h 0.22376 a 24.153977,24.153977 0 0 1 0.11472,-0.31832 z m 6.01568,0.40773 a 18.726358,18.726358 0 0 0 -0.25683,0.51314 h 0.15295 a 18.589914,18.589914 0 0 1 0.10388,-0.20774 z m -7.79852,0.0574 a 25.878068,25.878068 0 0 0 -0.15708,0.45578 h 0.15708 z m 5.84875,0.34106 a 20.30627,20.30627 0 0 0 -0.0548,0.11472 h 0.0548 z"/>
    </g>
    <g id="g31481" transform="translate(-75.219353,55.750253)">
      <path id="path31443" style="fill:url(#linearGradient31445);fill-opacity:1;fill-rule:nonzero;stroke-width:1.143;stroke-miterlimit:4;stroke-dasharray:none" d="m 105.76657,-49.948545 c -13.868996,0 -25.151947,11.282434 -25.151947,25.151438 0,13.869009 11.282951,25.15195307 25.151947,25.15195307 11.74018,0 21.62407,-8.08653097 24.38249,-18.98127207 h -2.36471 c -2.69948,9.6199601 -11.54726,16.6951061 -22.01778,16.6951061 -12.607976,0 -22.865267,-10.2577981 -22.865267,-22.8657871 0,-12.607984 10.257291,-22.865272 22.865267,-22.865272 6.10567,0 11.66024,2.405874 15.76545,6.318994 h 3.16104 c -0.003,-0.0035 -0.006,-0.0068 -0.009,-0.01033 h 3.26543 v 0.0062 h 65.87557 v -1.360124 h -1.89291 v -0.0062 h -68.5431 c -4.54198,-4.468138 -10.76253,-7.234701 -17.62218,-7.234701 z"/>
      <path id="path31436" style="fill:#f2f2f2;fill-opacity:1;fill-rule:nonzero;stroke-width:1.143;stroke-miterlimit:4;stroke-dasharray:none" d="m 106.04809,-49.937434 -0.43822,2.280998 c 0.0393,-2e-4 0.078,-0.0031 0.11731,-0.0031 0.21271,0 0.42325,0.0097 0.63458,0.0155 l 0.43719,-2.274796 c -0.24924,-0.01053 -0.49981,-0.01543 -0.75086,-0.0186 z m -1.25574,0.0155 c -0.25535,0.0094 -0.50937,0.02332 -0.76275,0.04031 l -0.447,2.325956 c 0.25428,-0.02378 0.50977,-0.04305 0.76637,-0.0584 z m 3.24373,0.0863 -0.43408,2.258776 c 0.24821,0.02026 0.49511,0.04419 0.74104,0.07235 l 0.43201,-2.249475 c -0.24558,-0.02988 -0.49127,-0.05894 -0.73897,-0.08165 z m -5.28185,0.07183 c -0.25875,0.03063 -0.51781,0.06025 -0.77411,0.0987 l -0.46147,2.40037 c 0.25949,-0.0485 0.51888,-0.09732 0.78134,-0.136943 z m 7.23935,0.188618 -0.43098,2.244307 c 0.24413,0.04143 0.48822,0.08264 0.72967,0.131775 l 0.4315,-2.246373 c -0.24142,-0.04897 -0.48632,-0.08775 -0.73019,-0.129709 z m -9.31002,0.137976 c -0.26554,0.05426 -0.52715,0.119315 -0.789612,0.181901 l -0.47801,2.488737 c 0.26377,-0.07589 0.52827,-0.149477 0.795822,-0.216008 z m 11.24014,0.266134 -0.43253,2.252059 c 0.23995,0.06257 0.47939,0.127284 0.71623,0.197403 l 0.43253,-2.248441 c -0.23829,-0.06839 -0.47512,-0.139568 -0.71623,-0.201021 z m -13.350082,0.267684 c -0.27022,0.08031 -0.53773,0.166194 -0.80409,0.255281 l -0.50333,2.617928 c 0.26956,-0.107789 0.54047,-0.212363 0.81494,-0.310058 z m 15.247642,0.304374 -0.43409,2.260327 c 0.2369,0.08448 0.47008,0.176704 0.70332,0.268717 l 0.4377,-2.277897 c -0.23372,-0.0878 -0.46998,-0.170184 -0.70693,-0.251147 z m -17.399452,0.444934 c -0.27609,0.110373 -0.54994,0.224895 -0.82114,0.344681 l -0.53795,2.797763 c 0.27614,-0.146258 0.55398,-0.289138 0.83664,-0.424264 z m 19.268582,0.276985 -0.44183,2.298051 c 0.233,0.107165 0.46167,0.221202 0.6904,0.335897 l 0.44648,-2.322339 c -0.22943,-0.108019 -0.46191,-0.210394 -0.69505,-0.311609 z m -21.469481,0.729155 c -0.28389,0.14672 -0.56483,0.297663 -0.84232,0.454752 l -0.58756,3.058728 c 0.28299,-0.194919 0.57102,-0.383026 0.86299,-0.56534 z m 23.308131,0.155029 -0.4532,2.357996 c 0.22819,0.131037 0.45222,0.2681 0.67541,0.406693 l 0.45785,-2.380733 c -0.22549,-0.129731 -0.45026,-0.261084 -0.68006,-0.383956 z m 1.80247,1.067635 -0.46767,2.43086 c 0.22376,0.157653 0.44317,0.320904 0.66094,0.486275 l 0.47439,-2.4691 c -0.22029,-0.15266 -0.44236,-0.302294 -0.66766,-0.448035 z m -27.371961,0.09819 c -0.29462,0.193496 -0.58436,0.393574 -0.87023,0.598929 l -0.66507,3.460771 c 0.294,-0.265335 0.59579,-0.52152 0.9033,-0.771529 z m 29.138261,1.156001 -0.4873,2.535246 c 0.21879,0.188036 0.43186,0.382224 0.64337,0.578259 l 0.49816,-2.591573 c -0.21463,-0.178126 -0.43371,-0.350865 -0.65423,-0.521932 z m -31.480231,0.57981 c -0.30879,0.258196 -0.61146,0.523372 -0.90744,0.795817 l -0.8077,4.203878 c 0.31305,-0.389511 0.63567,-0.7704 0.97306,-1.138432 z m 33.206231,0.886767 -0.35812,1.863969 h 0.75396 l 0.26303,-1.370459 h -0.13281 c -0.17138,-0.168598 -0.34995,-0.329814 -0.52606,-0.49351 z m 1.91254,0.49351 -0.26303,1.370459 h 0.18035 c -0.003,-0.0035 -0.006,-0.0069 -0.009,-0.01034 h 0.58447 l 0.26148,-1.360124 z m 2.00763,0 -0.26148,1.360124 h 0.75447 l 0.26149,-1.360124 z m 2.00764,0 -0.26252,1.366325 h 0.75395 l 0.26252,-1.366325 z m 2.00763,0 -0.26252,1.366325 h 0.75448 l 0.26252,-1.366325 z m 2.00763,0 -0.26252,1.366325 h 0.75448 l 0.26252,-1.366325 z m 2.00815,0 -0.26304,1.366325 h 0.75499 l 0.26252,-1.366325 z m 2.00711,0 -0.26252,1.366325 h 0.75499 l 0.26252,-1.366325 z m 2.00763,0 -0.26252,1.366325 h 0.75499 l 0.26252,-1.366325 z m 2.00813,0 -0.26249,1.366325 h 0.75446 l 0.26252,-1.366325 z m 2.00713,0 -0.26252,1.366325 h 0.75499 l 0.26252,-1.366325 z m 2.00814,0 -0.26303,1.366325 h 0.75499 l 0.26303,-1.366325 z m 2.00763,0 -0.26252,1.366325 h 0.75448 l 0.26252,-1.366325 z m 2.00713,0 -0.26252,1.366325 h 0.75499 l 0.26252,-1.366325 z m 2.00813,0 -0.26252,1.366325 h 0.75499 l 0.26251,-1.366325 z m 2.00763,0 -0.26252,1.366325 h 0.75449 l 0.26249,-1.366325 z m 2.00764,0 -0.26305,1.366325 h 0.75551 l 0.26252,-1.366325 z m 2.00763,0 -0.26252,1.366325 h 0.75499 l 0.26252,-1.366325 z m 2.00813,0 -0.26252,1.366325 h 0.75396 l 0.26252,-1.366325 z m 2.00816,0 -0.26305,1.366325 h 0.75449 l 0.26252,-1.366325 z m 2.00711,0 -0.26252,1.366325 h 0.75448 l 0.26252,-1.366325 z m 2.00813,0 -0.26252,1.366325 h 0.75346 l 0.26302,-1.366325 z m 2.00763,0 -0.26252,1.366325 h 0.75396 l 0.26252,-1.366325 z m 2.00713,0 -0.26252,1.366325 h 0.75446 l 0.26252,-1.366325 z m 2.00814,0 -0.26252,1.366325 h 0.75395 l 0.26252,-1.366325 z m 2.00763,0 -0.26252,1.366325 h 0.75396 l 0.26252,-1.366325 z m 2.00763,0 -0.26305,1.366325 h 0.75449 l 0.26305,-1.366325 z m 2.00763,0 -0.26252,1.366325 h 0.755 l 0.26252,-1.366325 z m 2.0071,0 -0.26252,1.366325 h 0.75499 l 0.26252,-1.366325 z m 2.00817,0 -0.26252,1.366325 h 0.75498 l 0.26252,-1.366325 z m 2.00763,0 -0.26252,1.366325 h 0.75446 l 0.26252,-1.366325 z m 2.0076,0 -0.26301,1.366325 h 0.75499 l 0.26305,-1.366325 z m 2.00764,0 -0.26252,1.366325 h 0.75502 l 0.26249,-1.366325 z m 2.00763,0 -0.26252,1.366325 h 0.75448 l 0.26252,-1.366325 z m 2.00763,0 -0.26252,1.366325 h 0.755 l 0.26252,-1.366325 z m 2.0066,0.0062 -0.26148,1.360124 h 0.75499 l 0.26149,-1.360124 z m -105.838491,0.965316 c -0.33574,0.367582 -0.65828,0.746765 -0.97204,1.133781 l -1.186491,6.174817 c 0.354941,-0.760375 0.745871,-1.500463 1.179261,-2.212785 z m -2.684081,3.519682 c -0.40817,0.643837 -0.78682,1.30753 -1.13636,1.989026 l -2.64894,13.781587 c 0.0713,0.767012 0.17947,1.522927 0.31833,2.268596 z m -1.57355,14.709696 -1.19011,6.192904 c 0.14717,0.471716 0.31197,0.935326 0.48576,1.394747 l 0.98134,-5.107182 c -0.13539,-0.813617 -0.23025,-1.640515 -0.27699,-2.480469 z m 45.237542,4.886524 -1.49395,7.772652 c 0.39128,-0.585244 0.75908,-1.187224 1.10122,-1.805575 l 1.1467,-5.967077 z m -44.271182,0.531233 -0.80667,4.194576 c 0.17456,0.361711 0.35766,0.718341 0.5488,1.070219 l 0.74207,-3.861263 c -0.1755,-0.4613 -0.33831,-0.928594 -0.4842,-1.403532 z m 1.35443,3.398759 -0.66404,3.454053 c 0.18987,0.295506 0.38533,0.586944 0.58705,0.873848 l 0.630451,-3.279903 c -0.19303,-0.344112 -0.378,-0.693238 -0.553461,-1.047998 z m 40.842472,0.341581 c -0.34366,0.6667 -0.72229,1.312161 -1.12758,1.9389 l -0.93689,4.876705 c 0.32873,-0.347985 0.65093,-0.702425 0.95963,-1.068669 z m -39.335581,2.263945 -0.58601,3.049426 c 0.19977,0.247835 0.40508,0.490709 0.61391,0.730705 l 0.56534,-2.939872 c -0.20348,-0.27576 -0.40203,-0.555266 -0.59324,-0.840259 z m 36.514051,1.968872 c -0.31,0.369464 -0.62937,0.73043 -0.9617,1.079521 l -0.72451,3.77083 c 0.30681,-0.249285 0.60714,-0.506284 0.90175,-0.769463 z m -34.911571,0.13901 -0.53795,2.797245 c 0.20762,0.211402 0.42071,0.417138 0.63562,0.621151 l 0.52244,-2.717664 c -0.21192,-0.229001 -0.41757,-0.463219 -0.62011,-0.700732 z m 1.66966,1.759582 -0.50333,2.618962 c 0.21413,0.181363 0.432,0.358014 0.65216,0.532266 l 0.49299,-2.56315 c -0.21791,-0.191787 -0.43136,-0.388264 -0.64182,-0.588078 z m 30.745411,0.647506 c -0.29318,0.256066 -0.5921,0.505643 -0.89813,0.746724 l -0.62271,3.240628 c 0.29278,-0.187052 0.5812,-0.380103 0.86559,-0.578776 z m -29.022521,0.834574 -0.47852,2.489253 c 0.22005,0.155575 0.44148,0.30924 0.66663,0.457854 l 0.4713,-2.45308 c -0.22292,-0.160822 -0.4426,-0.325481 -0.65941,-0.494027 z m 26.667641,0.96945 c -0.28241,0.188638 -0.56835,0.37207 -0.85938,0.548288 l -0.56224,2.922817 c 0.28328,-0.142184 0.56266,-0.290928 0.83974,-0.443383 z m -24.899781,0.275952 -0.46095,2.397271 c 0.22544,0.132429 0.45023,0.265652 0.68006,0.391189 l 0.45631,-2.374014 c -0.22786,-0.134138 -0.45268,-0.272727 -0.67542,-0.414446 z m 1.808149,1.037661 -0.44907,2.336811 c 0.22858,0.110083 0.46221,0.211402 0.69454,0.314709 l 0.4439,-2.307871 c -0.23255,-0.10995 -0.46118,-0.22616 -0.68937,-0.343649 z m 20.828202,0.01654 c -0.27416,0.140679 -0.55158,0.275881 -0.83199,0.405662 l -0.51935,2.702676 c 0.2752,-0.106532 0.54758,-0.218493 0.81804,-0.334346 z m -18.983342,0.832509 -0.43873,2.284097 c 0.23334,0.09 0.46772,0.177276 0.70435,0.260451 l 0.43563,-2.267564 c -0.23637,-0.08708 -0.4686,-0.18238 -0.70125,-0.276984 z m 16.786572,0.153479 c -0.26823,0.103479 -0.53834,0.203094 -0.81132,0.296622 l -0.48937,2.54558297 c 0.26879,-0.07686 0.53593,-0.157364 0.80098,-0.24288 z m -14.908652,0.519348 -0.43305,2.25309097 c 0.23757,0.07045 0.4753,0.140571 0.71572,0.204124 l 0.43305,-2.25360997 c -0.23971,-0.06516 -0.47918,-0.130897 -0.71572,-0.203605 z m 12.765632,0.185002 c -0.26276,0.07233 -0.52733,0.140012 -0.79375,0.203089 l -0.4687,2.43860897 c 0.26334,-0.0511 0.52563,-0.105055 0.786,-0.16433 z m -10.85308,0.311092 -0.4315,2.24585697 c 0.241,0.05112 0.48464,0.09486 0.72811,0.13901 l 0.4315,-2.24482297 c -0.24372,-0.04394 -0.48713,-0.08842 -0.72811,-0.140044 z m 8.75398,0.163814 c -0.25746,0.04516 -0.51689,0.08345 -0.77721,0.119888 l -0.4532,2.35851397 c 0.25837,-0.02804 0.51605,-0.05821 0.77205,-0.09405 z m -6.80888,0.161229 -0.43202,2.24895897 c 0.2453,0.03211 0.48947,0.06806 0.73691,0.09302 l 0.43407,-2.25929497 c -0.24776,-0.02278 -0.49354,-0.05203 -0.73897,-0.08268 z m 4.7501,0.104905 c -0.25346,0.02098 -0.50859,0.03545 -0.7643,0.04806 l -0.44235,2.30218397 c 0.2547,-0.007 0.50842,-0.017 0.7612,-0.03152 z m -2.77348,0.05684 -0.43718,2.27479697 c 0.2489,0.01282 0.50063,0.01414 0.75137,0.01964 l 0.43719,-2.27531397 c -0.25175,-0.0013 -0.50161,-0.0097 -0.75139,-0.01912 z"/>
    </g>
  </g>
</svg>