<?xml version="1.0" encoding="UTF-8" standalone="no"?>
<!-- Created with Inkscape (http://www.inkscape.org/) -->

<svg
   width="119mm"
   height="62mm"
   viewBox="0 0 119.00001 62"
   version="1.1"
   id="svg450041"
   inkscape:version="1.1.1 (eb90963e84, 2021-10-02)"
   sodipodi:docname="BuyerRex_logo1.svg"
   xmlns:inkscape="http://www.inkscape.org/namespaces/inkscape"
   xmlns:sodipodi="http://sodipodi.sourceforge.net/DTD/sodipodi-0.dtd"
   xmlns:xlink="http://www.w3.org/1999/xlink"
   xmlns="http://www.w3.org/2000/svg"
   xmlns:svg="http://www.w3.org/2000/svg">
  <sodipodi:namedview
     id="namedview450043"
     pagecolor="#ffffff"
     bordercolor="#666666"
     borderopacity="1.0"
     inkscape:pageshadow="2"
     inkscape:pageopacity="0.0"
     inkscape:pagecheckerboard="0"
     inkscape:document-units="mm"
     showgrid="false"
     width="209mm"
     scale-x="1"
     inkscape:zoom="1.5037598"
     inkscape:cx="211.80244"
     inkscape:cy="108.06247"
     inkscape:window-width="1884"
     inkscape:window-height="1016"
     inkscape:window-x="3036"
     inkscape:window-y="27"
     inkscape:window-maximized="1"
     inkscape:current-layer="layer1" />
  <defs
     id="defs450038">
    <linearGradient
       inkscape:collect="always"
       xlink:href="#IaTgA~1Np_BMY0IkWaeQ3c"
       id="linearGradient447674"
       gradientUnits="userSpaceOnUse"
       gradientTransform="matrix(1.0402297,0,0,0.80557028,-4.0696451,4.8561904)"
       x1="41.5"
       y1="3.25"
       x2="41.5"
       y2="61.803001"
       spreadMethod="reflect" />
    <linearGradient
       id="IaTgA~1Np_BMY0IkWaeQ3c"
       x1="41.5"
       x2="41.5"
       y1="3.25"
       y2="61.803001"
       gradientUnits="userSpaceOnUse"
       spreadMethod="reflect"
       gradientTransform="matrix(7.9999999,0,0,7.9999999,115.58589,581.96048)">
      <stop
         offset="0"
         stop-color="#1a6dff"
         id="stop16" />
      <stop
         offset="1"
         stop-color="#c822ff"
         id="stop18" />
    </linearGradient>
    <linearGradient
       inkscape:collect="always"
       xlink:href="#nKEdfJkkRaIvB5Lr2l9FSa-9"
       id="linearGradient447676"
       gradientUnits="userSpaceOnUse"
       gradientTransform="matrix(1.14327,0,0,1.14327,-6.1741851,-5.6108496)"
       x1="31.877001"
       y1="5.7529998"
       x2="32.126999"
       y2="59.002998"
       spreadMethod="reflect" />
    <linearGradient
       id="nKEdfJkkRaIvB5Lr2l9FSa-9"
       x1="31.877001"
       x2="32.126999"
       y1="5.7529998"
       y2="59.002998"
       gradientUnits="userSpaceOnUse"
       spreadMethod="reflect"
       gradientTransform="matrix(1.14327,0,0,1.14327,347.95955,191.24473)">
      <stop
         offset="0"
         stop-color="#1a6dff"
         id="stop2-5" />
      <stop
         offset="1"
         stop-color="#c822ff"
         id="stop4-8" />
    </linearGradient>
    <linearGradient
       inkscape:collect="always"
       xlink:href="#nKEdfJkkRaIvB5Lr2l9FSb-2"
       id="linearGradient447678"
       gradientUnits="userSpaceOnUse"
       gradientTransform="matrix(1.14327,0,0,1.14327,-6.1741851,-5.6108496)"
       x1="32"
       y1="10"
       x2="32"
       y2="53.546001"
       spreadMethod="reflect" />
    <linearGradient
       id="nKEdfJkkRaIvB5Lr2l9FSb-2"
       x1="32"
       x2="32"
       y1="10"
       y2="53.546001"
       gradientUnits="userSpaceOnUse"
       spreadMethod="reflect"
       gradientTransform="matrix(1.14327,0,0,1.14327,347.95955,191.24473)">
      <stop
         offset="0"
         stop-color="#6dc7ff"
         id="stop9-3" />
      <stop
         offset="1"
         stop-color="#e6abff"
         id="stop11-7" />
    </linearGradient>
  </defs>
  <g
     inkscape:label="Layer 1"
     inkscape:groupmode="layer"
     id="layer1">
    <path
       style="fill:#0084ff;fill-opacity:1;stroke-width:0;stroke-opacity:0"
       d="M 66.499981,119.36747 V 56.192484 h 27.149497 c 14.932222,0 30.407892,0.327938 34.390382,0.728751 22.08492,2.222713 33.2082,9.746236 36.28344,24.541242 1.2448,5.988765 0.46324,14.941655 -1.73124,19.831623 -2.1136,4.70971 -8.06074,10.76545 -11.95551,12.17382 -2.24579,0.81209 -3.16071,1.90955 -1.59194,1.90955 2.14192,0 9.52924,4.5153 12.46381,7.61818 6.3799,6.74581 9.11663,14.98121 8.51779,25.63181 -1.19382,21.2327 -14.33284,31.39287 -43.01125,33.25986 -5.30337,0.34525 -21.0888,0.6339 -35.078736,0.64143 l -25.436243,0.0137 z m 59.086819,40.52391 c 7.5431,-1.6177 11.82836,-6.56346 12.5462,-14.47997 0.53496,-5.89966 -1.09934,-10.67709 -4.75256,-13.89279 -4.37743,-3.85317 -6.35272,-4.28103 -21.49422,-4.65582 l -13.466248,-0.33333 v 17.03399 17.034 h 11.937268 c 6.56549,0 13.4188,-0.31774 15.22956,-0.70608 z m 0.53405,-56.31381 c 5.06397,-2.68096 7.21939,-6.985805 6.74961,-13.480429 -0.34376,-4.752502 -2.65159,-8.550478 -6.2949,-10.359482 -2.19115,-1.087963 -4.36791,-1.296853 -15.35434,-1.473449 L 98.419972,78.058442 v 13.734305 13.734303 l 12.468748,-0.24324 c 11.29575,-0.22036 12.72871,-0.38088 15.23213,-1.70624 z"
       id="path459250"
       transform="scale(0.26458333)" />
    <path
       style="fill:#0084ff;fill-opacity:1;stroke-width:0;stroke-opacity:0"
       d="m 192.45215,131.01445 c -8.6017,-1.87139 -14.68809,-6.75705 -17.70127,-14.20917 -1.474,-3.64543 -1.52417,-4.48988 -1.7146,-28.859055 L 172.8401,62.842482 h 8.29733 8.29732 l 0.21135,23.773744 0.21135,23.773744 1.6625,3.325 c 2.27118,4.54237 4.78478,5.78945 11.10501,5.50957 5.5787,-0.24705 7.7763,-1.48679 9.84248,-5.55249 1.24443,-2.4487 1.34357,-4.16805 1.54085,-26.723324 l 0.21085,-24.106244 h 8.6004 8.6004 l -0.005,19.783745 c -0.008,29.001803 -1.09591,35.309733 -7.17805,41.619943 -6.31874,6.55568 -19.68189,9.40129 -31.78428,6.76828 z"
       id="path459289"
       transform="scale(0.26458333)" />
    <path
       style="fill:#0084ff;fill-opacity:1;stroke-width:0;stroke-opacity:0"
       d="m 265.99993,116.48427 v -14.1882 L 256.5961,88.055524 C 251.42399,80.223225 245.59534,71.346168 243.64354,68.328731 l -3.54872,-5.486249 h 9.1789 9.17891 l 7.5974,11.960968 c 4.17857,6.578531 7.87312,11.873122 8.21011,11.765757 0.33699,-0.107365 3.95348,-5.414988 8.03664,-11.794717 l 7.42392,-11.599508 9.08711,-0.185016 c 4.99791,-0.101758 9.0871,-0.0084 9.0871,0.20756 0,0.215916 -5.68574,9.025875 -12.63499,19.577685 l -12.635,19.185109 v 14.35607 14.35607 h -8.3125 -8.31249 z"
       id="path459328"
       transform="scale(0.26458333)" />
    <path
       style="fill:#0084ff;fill-opacity:1;stroke-width:0;stroke-opacity:0"
       d="M 317.20491,96.757473 V 62.842482 h 23.60749 23.6075 v 6.317499 6.317498 h -14.9625 -14.96249 v 6.649998 6.649998 h 13.96499 13.965 v 6.317498 6.317497 h -13.965 -13.96499 v 8.3125 8.3125 h 15.29499 15.295 v 6.3175 6.31749 h -23.94 -23.93999 z"
       id="path459367"
       transform="scale(0.26458333)" />
    <path
       style="fill:#0084ff;fill-opacity:1;stroke-width:0;stroke-opacity:0"
       d="M 381.70989,96.703395 V 62.734327 l 18.78625,0.247483 c 17.78458,0.234287 18.99419,0.329884 22.68633,1.79292 5.12545,2.030991 8.69569,5.634537 10.02826,10.121802 2.83384,9.542563 -0.56826,18.288922 -8.65237,22.244107 l -3.67438,1.797705 2.56131,1.146736 c 4.09047,1.83135 7.23429,6.20058 13.19833,18.34275 3.06969,6.24957 5.58126,11.56125 5.58126,11.80375 0,0.24248 -3.98114,0.44088 -8.84697,0.44088 h -8.84697 l -4.72705,-9.85447 c -6.87424,-14.33072 -8.73771,-16.08052 -17.12514,-16.08052 h -4.34386 v 12.9675 12.96749 h -8.3125 -8.3125 z m 33.03766,-6.079652 c 1.50894,-1.510323 1.84861,-2.504638 2.04455,-5.984999 0.43389,-7.706613 -2.35079,-9.815377 -12.97096,-9.822556 l -5.48625,-0.0037 v 9.036334 9.036334 l 7.30154,-0.225086 c 6.92014,-0.213329 7.39607,-0.319699 9.11112,-2.036318 z"
       id="path459406"
       transform="scale(0.26458333)" />
    <path
       style="fill:#b3b3b3;fill-opacity:1;stroke-width:0;stroke-opacity:0"
       d="m 231.58624,172.45534 v -28.21355 h 14.9036 c 8.19697,0 16.79329,0.11235 19.10292,0.24967 9.48679,0.56403 15.21581,2.30862 18.85506,5.74171 2.75422,2.59819 3.80064,5.25128 3.80064,9.63611 0,2.93193 -0.63281,5.22307 -2.0197,7.31252 -1.898,2.85945 -5.74057,5.29731 -10.38494,6.58856 -0.80686,0.22432 -1.46702,0.47128 -1.46702,0.54879 0,0.0775 0.55545,0.27098 1.23434,0.42993 1.82038,0.42621 4.31761,1.73827 6.07643,3.19259 2.27537,1.88142 4.19035,4.41716 9.08472,12.02958 2.41108,3.75006 4.94621,7.69114 5.63362,8.75796 l 1.24984,1.93968 h -9.96556 -9.96556 l -4.83759,-7.58239 c -5.41241,-8.48337 -6.49182,-9.93721 -8.51586,-11.46989 -2.38558,-1.80646 -3.85946,-2.16358 -9.44998,-2.28969 l -4.76103,-0.10739 v 10.72468 10.72468 h -9.28696 -9.28697 z m 32.553,-3.63623 c 2.0013,-0.57265 3.01745,-1.14917 3.954,-2.24333 2.1396,-2.49963 1.93895,-7.44101 -0.38929,-9.5871 -1.94992,-1.79738 -5.17182,-2.39678 -12.9003,-2.39999 l -4.64348,-0.002 v 7.43105 7.43105 l 6.28927,-0.1145 c 4.95839,-0.0903 6.58564,-0.19931 7.6898,-0.51525 z"
       id="path478857"
       transform="scale(0.26458333)" />
    <path
       style="fill:#b3b3b3;fill-opacity:1;stroke-width:0;stroke-opacity:0"
       d="m 309.17351,172.45534 v -28.21355 h 25.50976 25.50975 v 5.4076 5.40759 h -16.10523 -16.10524 v 5.4076 5.4076 h 15.16478 15.16479 v 5.4076 5.40759 h -15.16479 -15.16478 v 6.58317 6.58316 h 16.69302 16.69302 v 5.4076 5.40759 h -26.09754 -26.09754 z"
       id="path478896"
       transform="scale(0.26458333)" />
    <path
       style="fill:#b3b3b3;fill-opacity:1;stroke-width:0;stroke-opacity:0"
       d="m 382.83984,187.85524 c 5.82191,-6.59492 11.40112,-12.90765 12.39824,-14.02829 l 1.81296,-2.03753 -12.04671,-13.47992 -12.0467,-13.47993 8.90004,-0.27892 8.90003,-0.27891 3.29159,3.57049 c 1.81037,1.96378 5.64122,6.23324 8.513,9.48769 l 5.22142,5.91719 8.23917,-9.44388 8.23916,-9.44389 h 8.87514 c 4.88133,0 8.87515,0.24503 8.87515,0.5445 0,0.29947 -5.28941,6.48498 -11.75425,13.74558 l -11.75424,13.20109 4.63377,5.29857 c 2.54857,2.91421 8.01459,9.10739 12.14669,13.76263 l 7.51293,8.46406 -8.89424,0.26963 -8.89425,0.26962 -4.89964,-5.43712 c -2.69481,-2.99042 -6.61916,-7.2901 -8.72079,-9.55484 l -3.82115,-4.11772 -8.38303,9.52033 -8.38304,9.52033 h -9.27327 -9.27326 z"
       id="path478935"
       transform="scale(0.26458333)" />
    <path
       id="path21-5-3"
       style="fill:url(#linearGradient447674);stroke-width:0.915413"
       d="m 57.443514,35.50081 v 1.36013 h 60.426406 v -1.36013 z" />
    <path
       id="path7-8-3-7"
       style="fill:url(#linearGradient447676);stroke-width:1.14327"
       d="m 30.410404,1.2487204 c -16.39106,0 -29.72479963,13.3337396 -29.72479963,29.7247996 0,16.39107 13.33373963,29.725321 29.72479963,29.725321 14.85332,0 27.19648,-10.949491 29.38167,-25.201051 h -2.3182 c -2.16363,12.98383 -13.47544,22.914361 -27.06347,22.914361 -15.12889,0 -27.4386396,-12.309731 -27.4386396,-27.438631 0,-15.12889 12.3097496,-27.4381196 27.4386396,-27.4381196 9.09549,0 17.17033,4.4505 22.16556,11.2866496 h 2.77709 C 50.048924,6.6589004 40.850314,1.2487204 30.410404,1.2487204 Z" />
    <path
       id="path14-2-3-0"
       style="fill:url(#linearGradient447678);stroke-width:1.14327"
       d="m 30.410544,5.8221904 c -13.869,0 -25.1519496,11.2824396 -25.1519496,25.1514396 0,13.86901 11.2829496,25.15195 25.1519496,25.15195 12.20437,0 22.40396,-8.73775 24.67705,-20.28558 h -2.33371 c -2.23638,10.27825 -11.40479,17.99941 -22.34334,17.99941 -12.60798,0 -22.8652696,-10.25779 -22.8652696,-22.86578 0,-12.60798 10.2572896,-22.8652696 22.8652696,-22.8652696 6.10567,0 11.66024,2.4058696 15.76545,6.3189896 h 3.16104 C 44.723234,9.1566004 37.949354,5.8221904 30.410544,5.8221904 Z" />
  </g>
</svg>
