<?xml version="1.0" encoding="UTF-8"?>
<svg id="svg450041" width="119mm" height="62mm" version="1.1" viewBox="0 0 119 62" xmlns="http://www.w3.org/2000/svg" xmlns:xlink="http://www.w3.org/1999/xlink">
 <defs id="defs450038">
  <linearGradient id="linearGradient447674" x1="41.5" x2="41.5" y1="3.25" y2="61.803" gradientTransform="matrix(1.1296 0 0 .80557 -13.761 6.5013)" gradientUnits="userSpaceOnUse" spreadMethod="reflect" xlink:href="#IaTgA~1Np_BMY0IkWaeQ3c"/>
  <linearGradient id="IaTgA~1Np_BMY0IkWaeQ3c" x1="41.5" x2="41.5" y1="3.25" y2="61.803" gradientTransform="matrix(8 0 0 8 115.59 581.96)" gradientUnits="userSpaceOnUse" spreadMethod="reflect">
   <stop id="stop16" stop-color="#1a6dff" offset="0"/>
   <stop id="stop18" stop-color="#c822ff" offset="1"/>
  </linearGradient>
  <linearGradient id="linearGradient447676" x1="31.877" x2="32.127" y1="5.753" y2="59.003" gradientTransform="matrix(4.321 0 0 4.321 -23.336 -21.206)" gradientUnits="userSpaceOnUse" spreadMethod="reflect" xlink:href="#nKEdfJkkRaIvB5Lr2l9FSa-9-7"/>
  <linearGradient id="nKEdfJkkRaIvB5Lr2l9FSa-9-7" x1="31.877" x2="32.127" y1="5.753" y2="59.003" gradientTransform="matrix(1.1433 0 0 1.1433 347.96 191.24)" gradientUnits="userSpaceOnUse" spreadMethod="reflect">
   <stop id="stop2-5" stop-color="#1a6dff" offset="0"/>
   <stop id="stop4-8" stop-color="#c822ff" offset="1"/>
  </linearGradient>
  <linearGradient id="linearGradient31414" x1="130.08" x2="157.49" y1="-24.153" y2="-24.153" gradientTransform="translate(0 -.38083)" gradientUnits="userSpaceOnUse" xlink:href="#IaTgA~1Np_BMY0IkWaeQ3c"/>
  <linearGradient id="linearGradient31445" x1="19.875" x2="447.76" y1="117.07" y2="117.07" gradientTransform="matrix(.26458 0 0 .26458 75.356 -55.771)" gradientUnits="userSpaceOnUse">
   <stop id="stop9-3" stop-color="#6dc7ff" offset="0"/>
   <stop id="stop11-7" stop-color="#e6abff" offset="1"/>
  </linearGradient>
  <linearGradient id="linearGradient859" x1="45.731" x2="117.01" y1="25.76" y2="25.76" gradientUnits="userSpaceOnUse" xlink:href="#nKEdfJkkRaIvB5Lr2l9FSa-9-7"/>
  <filter id="contrast-filter-0" x="-500%" y="-500%" width="1e3%" height="1e3%">
   <feColorMatrix in="none" result="color-matrix-0" values="1 0 0 0 0 0 1 0 0 0 0 0 0 0 0 0 0 0 1 0"/>
   <title>Contrast</title>
   <title>Contrast</title>
   <title>Contrast</title>
   <title>Contrast</title>
   <feComponentTransfer in="SourceGraphic" result="component-transfer-0">
    <feFuncR intercept="0.29" slope="2" type="linear"/>
    <feFuncG intercept="-0.07" slope="1.29" type="linear"/>
    <feFuncB intercept="0.020000000000000018" slope="0.94" type="linear"/>
   </feComponentTransfer>
  </filter>
 </defs>
 <g id="layer1">
  <g id="g853" transform="translate(1.374 .3088)" fill="url(#linearGradient859)" stroke-opacity="0">
   <path id="path459289" transform="scale(.26458)" d="m192.45 131.01c-8.6017-1.8714-14.688-6.757-17.701-14.209-1.474-3.6454-1.5242-4.4899-1.7146-28.859l-0.19618-25.104h16.595l0.4227 47.547 1.6625 3.325c2.2712 4.5424 4.7848 5.7894 11.105 5.5096 5.5787-0.24705 7.7763-1.4868 9.8425-5.5525 1.2444-2.4487 1.3436-4.168 1.5408-26.723l0.21085-24.106h17.201l-5e-3 19.784c-8e-3 29.002-1.0959 35.31-7.178 41.62-6.3187 6.5557-19.682 9.4013-31.784 6.7683z" filter="url(#contrast-filter-0)" style="mix-blend-mode:darken;paint-order:stroke"/>
   <path id="path459328" transform="scale(.26458)" d="m266 116.48v-14.188l-9.4038-14.241c-5.1721-7.8323-11.001-16.709-12.953-19.727l-3.5487-5.4862h18.358l7.5974 11.961c4.1786 6.5785 7.8731 11.873 8.2101 11.766s3.9535-5.415 8.0366-11.795l7.4239-11.6 9.0871-0.18502c4.9979-0.10176 9.0871-0.0084 9.0871 0.20756 0 0.21592-5.6857 9.0259-12.635 19.578l-12.635 19.185v28.712h-16.625z" filter="url(#contrast-filter-0)" style="mix-blend-mode:darken;paint-order:stroke"/>
   <path id="path459367" transform="scale(.26458)" d="m317.2 96.757v-33.915h47.215v12.635h-29.925v13.3h27.93v12.635h-27.93v16.625h30.59v12.635h-47.88z" filter="url(#contrast-filter-0)" style="mix-blend-mode:darken;paint-order:stroke"/>
   <path id="path459406" transform="scale(.26458)" d="m381.71 96.703v-33.969l18.786 0.24748c17.785 0.23429 18.994 0.32988 22.686 1.7929 5.1254 2.031 8.6957 5.6345 10.028 10.122 2.8338 9.5426-0.56826 18.289-8.6524 22.244l-3.6744 1.7977 2.5613 1.1467c4.0905 1.8314 7.2343 6.2006 13.198 18.343 3.0697 6.2496 5.5813 11.561 5.5813 11.804 0 0.24248-3.9811 0.44088-8.847 0.44088h-8.847l-4.727-9.8545c-6.8742-14.331-8.7377-16.081-17.125-16.081h-4.3439v25.935h-16.625zm33.038-6.0797c1.5089-1.5103 1.8486-2.5046 2.0446-5.985 0.43389-7.7066-2.3508-9.8154-12.971-9.8226l-5.4862-0.0037v18.073l7.3015-0.22509c6.9201-0.21333 7.3961-0.3197 9.1111-2.0363z" filter="url(#contrast-filter-0)" style="mix-blend-mode:darken;paint-order:stroke"/>
  </g>
  <path id="path478857" d="m62.663 48.383v-7.4648h3.9432c2.1688 0 4.4432 0.02973 5.0543 0.06606 2.51 0.14923 4.0258 0.61082 4.9887 1.5192 0.72872 0.68744 1.0056 1.3894 1.0056 2.5496 0 0.77574-0.16743 1.3819-0.53438 1.9348-0.50218 0.75656-1.5189 1.4016-2.7477 1.7432-0.21348 0.05935-0.38815 0.12469-0.38815 0.1452 0 0.02051 0.14696 0.0717 0.32659 0.11375 0.48164 0.11277 1.1424 0.45992 1.6077 0.84471 0.60202 0.49779 1.1087 1.1687 2.4037 3.1828 0.63793 0.9922 1.3087 2.0349 1.4906 2.3172l0.33069 0.51321h-5.2734l-1.2799-2.0062c-1.432-2.2446-1.7176-2.6292-2.2532-3.0347-0.63118-0.47796-1.0211-0.57245-2.5003-0.60581l-1.2597-0.02841v5.6751h-4.9144zm8.613-0.96209c0.52951-0.15151 0.79837-0.30405 1.0462-0.59355 0.5661-0.66136 0.51301-1.9688-0.103-2.5366-0.51592-0.47556-1.3684-0.63415-3.4132-0.635l-1.2286-5.3e-4v3.9323l1.664-0.03029c1.3119-0.02389 1.7424-0.05273 2.0346-0.13633z" fill="#b3b3b3" fill-opacity=".71774" stroke-opacity="0"/>
  <path id="path478896" d="m83.191 48.383v-7.4648h13.499v2.8615h-8.5224v2.8615h8.0247v2.8615h-8.0247v3.4836h8.8334v2.8615h-13.81z" fill="#b3b3b3" fill-opacity=".71774" stroke-opacity="0"/>
  <path id="path478935" d="m102.68 52.457c1.5404-1.7449 3.0165-3.4151 3.2804-3.7117l0.47968-0.5391-6.3747-7.1331 4.7096-0.1476 0.8709 0.94469c0.479 0.51958 1.4926 1.6492 2.2524 2.5103l1.3815 1.5656 4.3599-4.9974h2.3482c1.2915 0 2.3482 0.06483 2.3482 0.14407 0 0.07923-1.3995 1.7158-3.11 3.6369l-3.11 3.4928 1.226 1.4019c0.67431 0.77105 2.1205 2.4097 3.2138 3.6414l1.9878 2.2394-4.7065 0.14268-1.2964-1.4386c-0.713-0.79122-1.7513-1.9288-2.3074-2.5281l-1.011-1.0895-2.218 2.5189-2.218 2.5189h-4.9071z" fill="#b3b3b3" fill-opacity=".71774" stroke-opacity="0"/>
  <path id="path7-8-3-7" transform="scale(.26458)" d="m114.94 4.7188c-61.95 0-112.35 50.395-112.35 112.35 0 61.95 50.395 112.35 112.35 112.35 53.955 0 99.138-38.229 109.9-89.023h-8.8574c-10.612 45.986-51.885 80.381-101.05 80.381-57.18 0-103.71-46.525-103.71-103.71 0-57.18 46.525-103.7 103.71-103.7 33.655 0 63.583 16.146 82.541 41.066h10.625c-20.2-29.948-54.402-49.709-93.166-49.709z" fill="url(#linearGradient447676)" stroke-width="4.321"/>
  <path id="path21-5-3" d="m53.036 37.146v1.3601h65.433v-1.3601z" fill="url(#linearGradient447674)" stroke-width=".95392"/>
  <g id="g31426" transform="translate(-112.04 54.511)" stroke-opacity="0">
   <path id="path31182" d="m135.42-43.926v2.6908h-5.3433v33.43l5.3433-0.0031v2.667h4.208v-2.682c0.74428-0.0071 1.4503-0.01864 2.142-0.02997v2.712h4.208v-2.8329c0.0272-0.0016 0.0847-3e-3 0.11006-0.0047 7.5878-0.49397 11.064-3.1822 11.38-8.8 0.15843-2.818-0.56559-4.9967-2.2536-6.7815-0.77644-0.82097-2.7308-2.0159-3.2975-2.0159-0.41507 0-0.17304-0.29001 0.42116-0.50488 1.0305-0.37263 2.6039-1.9749 3.1631-3.221 0.58063-1.2938 0.78773-3.6627 0.45837-5.2472-0.81366-3.9145-3.7571-5.9051-9.6004-6.4931-0.0766-0.0077-0.27342-0.01423-0.38086-0.0217v-2.8618h-4.208v2.7301c-0.69267-0.01128-1.3885-0.02113-2.142-0.02739v-2.7027zm3.1021 8.476 3.3869 0.05426c2.9068 0.04673 3.483 0.1023 4.0628 0.39016 0.96395 0.47863 1.5746 1.4835 1.6655 2.7409 0.1243 1.7184-0.44609 2.8574-1.7859 3.5667-0.66236 0.35067-1.0416 0.39283-4.0302 0.45114l-3.299 0.0646v-3.6339zm0 12.825 3.5631 0.08837c4.0062 0.09916 4.5288 0.21248 5.687 1.232 0.96658 0.85082 1.3988 2.1148 1.2573 3.6757-0.18992 2.0946-1.3239 3.4028-3.3197 3.8308-0.4791 0.10275-2.2921 0.18707-4.0292 0.18707h-3.1585v-4.5072z" fill="url(#linearGradient31414)"/>
   <path id="path29908" d="m134.9-43.925v0.29197a53.799 53.799 0 0 1 0.47543-0.27905v-0.01292zm1.7952 0a53.187 53.187 0 0 0-0.10231 0.05426v0.52296a52.727 52.727 0 0 1 0.73223-0.38912v-0.1881zm2.3347 0a52.127 52.127 0 0 0-0.48731 0.23254v0.58446a51.612 51.612 0 0 1 0.56533-0.27905v-0.53795zm3.4117 0v0.15296a50.583 50.583 0 0 1 0.39378-0.15296zm1.9854 0a50.008 50.008 0 0 0-0.0362 0.01395v0.39171a49.643 49.643 0 0 1 0.73279-0.26613v-0.13953zm-1.2532 0.48731a50.008 50.008 0 0 0-0.73226 0.29197v0.39843a49.643 49.643 0 0 1 0.73226-0.29921zm-7.7985 0.23616a53.187 53.187 0 0 0-0.47543 0.27905v0.53537a52.727 52.727 0 0 1 0.47543-0.27905zm9.7483 0.01912a49.078 49.078 0 0 0-0.73279 0.26097v0.45682a48.654 48.654 0 0 1 0.73279-0.2682zm-7.7985 0.12144a52.127 52.127 0 0 0-0.73223 0.38912v0.59738a51.612 51.612 0 0 1 0.73223-0.40204zm1.7828 0.32866a51.024 51.024 0 0 0-0.56533 0.27854v0.48886a50.583 50.583 0 0 1 0.56533-0.27853zm4.0659 0.29869a49.078 49.078 0 0 0-0.73226 0.29404v0.4656a48.654 48.654 0 0 1 0.73226-0.30231zm1.9498 0.28732a48.1 48.1 0 0 0-0.73279 0.27802v0.51315a47.625 47.625 0 0 1 0.73279-0.2868zm-9.7483 0.1726a52.127 52.127 0 0 0-0.47543 0.27905v0.46044h-0.25683v0.30386a51.612 51.612 0 0 1 0.73226-0.44442zm1.9497 0.16692a51.024 51.024 0 0 0-0.73223 0.40153v0.50023a50.583 50.583 0 0 1 0.73223-0.40153zm1.7828 0.20671a50.008 50.008 0 0 0-0.56533 0.2837v0.416a49.643 49.643 0 0 1 0.62269-0.32143c-0.0188-2.51e-4 -0.0372-5.18e-4 -0.0574-5.18e-4zm4.0659 0.22014a48.1 48.1 0 0 0-0.73226 0.31368v0.52296a47.625 47.625 0 0 1 0.73226-0.3235zm-12.43 0.14573v0.25476a53.799 53.799 0 0 1 0.36071-0.25476zm1.9503 0v0.22273a52.727 52.727 0 0 1 0.34521-0.22273zm7.798 0.02997v0.4222a48.654 48.654 0 0 1 0.73226-0.33952v-0.0739c-0.23683-4e-3 -0.49239-0.0058-0.73226-0.0088zm4.6318 0.14056a47.083 47.083 0 0 0-0.73279 0.29352v0.4377a46.676 46.676 0 0 1 0.73279-0.29404zm-11.698 0.28991a52.127 52.127 0 0 0-0.73226 0.47284v0.63303a51.612 51.612 0 0 1 0.73226-0.48938zm13.647 0.01085a46.145 46.145 0 0 0-0.73223 0.26355v0.41961a45.749 45.749 0 0 1 0.73223-0.26458zm-15.596 0.01602a53.187 53.187 0 0 0-0.73279 0.51831v0.56586a52.727 52.727 0 0 1 0.73279-0.51831zm3.899 0.05839a51.024 51.024 0 0 0-0.73226 0.44442v0.51263a50.583 50.583 0 0 1 0.73226-0.44442zm1.9497 0.04031a50.008 50.008 0 0 0-0.73223 0.40928v0.42582a49.643 49.643 0 0 1 0.73223-0.4191zm1.9498 0.01033a49.078 49.078 0 0 0-0.73226 0.3731v0.48266a48.654 48.654 0 0 1 0.73226-0.38034zm1.9492 0.12454a48.1 48.1 0 0 0-0.73226 0.35243v0.53485a47.625 47.625 0 0 1 0.73226-0.3638zm7.7985 0.1049a45.229 45.229 0 0 0-0.73226 0.22634v0.4098a44.837 44.837 0 0 1 0.73226-0.22686zm-5.8488 0.12867a47.083 47.083 0 0 0-0.73226 0.3328v0.44597a46.676 46.676 0 0 1 0.73226-0.3328zm1.9498 0.21962a46.145 46.145 0 0 0-0.73279 0.29972v0.42736a45.749 45.749 0 0 1 0.73279-0.30386zm5.6389 0.11369a44.327 44.327 0 0 0-0.52298 0.13591v0.45372a43.889 43.889 0 0 1 0.7333-0.19017v-0.31884c-0.0674-0.02848-0.14142-0.05303-0.21032-0.08062zm-3.6897 0.15555a45.229 45.229 0 0 0-0.73224 0.26458v0.416a44.837 44.837 0 0 1 0.73224-0.26458zm-9.7477 0.21239a49.078 49.078 0 0 0-0.73223 0.41548v0.49816a48.654 48.654 0 0 1 0.73223-0.42633zm1.9498 0.03772a48.1 48.1 0 0 0-0.73226 0.39532v0.54777a47.625 47.625 0 0 1 0.73226-0.40824zm-3.8995 0.04082a50.008 50.008 0 0 0-0.73226 0.45734v0.43772a49.643 49.643 0 0 1 0.73226-0.46922zm13.647 0.03359a44.327 44.327 0 0 0-0.73226 0.22686v0.45992a43.889 43.889 0 0 1 0.73226-0.22686zm-15.596 0.01447a51.024 51.024 0 0 0-0.73226 0.48938v0.52762a50.583 50.583 0 0 1 0.73226-0.48989zm-1.9497 0.0021a52.127 52.127 0 0 0-0.73279 0.51832v0.65577a51.612 51.612 0 0 1 0.73279-0.53692zm9.7477 0.05995a47.083 47.083 0 0 0-0.73226 0.3731v0.45527a46.676 46.676 0 0 1 0.73226-0.3731zm1.9497 0.13384a46.145 46.145 0 0 0-0.73226 0.33848v0.43563a45.749 45.749 0 0 1 0.73226-0.34365zm9.0155 0.0083v0.30799a43.015 43.015 0 0 1 0.34107-0.07441c-0.11427-0.07743-0.2204-0.1603-0.34107-0.23358zm-7.0657 0.17467a45.229 45.229 0 0 0-0.73279 0.30334v0.42323a44.837 44.837 0 0 1 0.73279-0.30334zm5.8492 0.03876a43.39 43.39 0 0 0-0.73329 0.19637v0.38964a43.015 43.015 0 0 1 0.73329-0.19637zm-3.9 0.20051a44.327 44.327 0 0 0-0.73223 0.26458v0.46715a43.889 43.889 0 0 1 0.73223-0.26458zm5.8493 0.23358a42.525 42.525 0 0 0-0.73279 0.15916v0.31988a42.215 42.215 0 0 1 0.73279-0.15916zm-3.8995 0.11265a43.39 43.39 0 0 0-0.73226 0.2341v0.39584a43.015 43.015 0 0 1 0.73226-0.23461zm-11.698 0.03307a48.1 48.1 0 0 0-0.73223 0.44338v0.56276a47.625 47.625 0 0 1 0.73223-0.45837zm-1.9497 0.05374a49.078 49.078 0 0 0-0.73226 0.4625v0.51625a48.654 48.654 0 0 1 0.73226-0.47801zm3.8995 0.0124a47.083 47.083 0 0 0-0.73226 0.41496v0.46664a46.676 46.676 0 0 1 0.73226-0.41548zm1.9492 0.04238a46.145 46.145 0 0 0-0.73226 0.38189v0.44597a45.749 45.749 0 0 1 0.73226-0.38602zm1.9497 0.0956a45.229 45.229 0 0 0-0.73226 0.34365v0.43253a44.837 44.837 0 0 1 0.73226-0.34365zm-9.7477 0.02119a50.008 50.008 0 0 0-0.73226 0.5116v0.45114a49.643 49.643 0 0 1 0.73226-0.52555zm17.547 0.0894a42.525 42.525 0 0 0-0.73329 0.19637v0.3235a42.215 42.215 0 0 1 0.73329-0.19637zm-5.8492 0.04082a44.327 44.327 0 0 0-0.73279 0.30386v0.47542a43.889 43.889 0 0 1 0.73279-0.30334zm-13.647 0.01395a51.024 51.024 0 0 0-0.73279 0.53744v0.55604a50.583 50.583 0 0 1 0.73279-0.55036zm15.596 0.24546a43.39 43.39 0 0 0-0.73223 0.27337v0.40153a43.015 43.015 0 0 1 0.73223-0.27285zm5.8493 0.04702a41.735 41.735 0 0 0-0.73279 0.15968v0.36897a41.374 41.374 0 0 1 0.73279-0.15916zm-3.8995 0.21291a42.525 42.525 0 0 0-0.73226 0.2341v0.32711a42.215 42.215 0 0 1 0.73226-0.2341zm1.9503 0.25683a41.735 41.735 0 0 0-0.73329 0.19689v0.3731a41.374 41.374 0 0 1 0.73329-0.19637zm-11.698 5.16e-4a46.145 46.145 0 0 0-0.73226 0.42995v0.45682a45.749 45.749 0 0 1 0.73226-0.42995zm1.9492 0.0067a45.229 45.229 0 0 0-0.73226 0.38602v0.44235a44.837 44.837 0 0 1 0.73226-0.38603zm-3.899 0.04806a47.083 47.083 0 0 0-0.73223 0.46044v0.47904a46.676 46.676 0 0 1 0.73223-0.45992zm5.8488 0.01189a44.327 44.327 0 0 0-0.73226 0.34365v0.48524a43.889 43.889 0 0 1 0.73226-0.34365zm-7.7985 0.0098a48.1 48.1 0 0 0-0.73226 0.49713v0.57981a47.625 47.625 0 0 1 0.73226-0.50694zm18.96 0.01964a40.903 40.903 0 0 0-0.19638 0.03411v0.40721a40.499 40.499 0 0 1 0.43255-0.07493c-0.0731-0.12645-0.15529-0.24599-0.23617-0.36639zm-20.909 0.13126a49.078 49.078 0 0 0-0.73226 0.51987v0.5333a48.654 48.654 0 0 1 0.73226-0.53692zm11.698 0.0083a43.39 43.39 0 0 0-0.73279 0.31419v0.40928a43.015 43.015 0 0 1 0.73279-0.31368zm7.7985 0.14728a40.903 40.903 0 0 0-0.73279 0.16485v0.41134a40.499 40.499 0 0 1 0.73279-0.16485zm-5.8493 0.02222a42.525 42.525 0 0 0-0.73223 0.27285v0.33331a42.215 42.215 0 0 1 0.73223-0.27337zm-15.596 0.09198a50.008 50.008 0 0 0-0.73279 0.57464v0.46612a49.643 49.643 0 0 1 0.73279-0.58756zm17.546 0.0739a41.735 41.735 0 0 0-0.73226 0.2341v0.37827a41.374 41.374 0 0 1 0.73226-0.23409zm1.9503 0.29197a40.903 40.903 0 0 0-0.73329 0.20257v0.41703a40.499 40.499 0 0 1 0.73329-0.20309zm3.8225 0.02894a40.038 40.038 0 0 0-0.65681 0.11369v0.35243a39.692 39.692 0 0 1 0.7333-0.12712v-0.19327c-0.0232-0.05043-0.0523-0.09611-0.0765-0.14573zm-13.571 0.13229a44.327 44.327 0 0 0-0.73226 0.38602v0.49661a43.889 43.889 0 0 1 0.73226-0.38602zm-1.9492 0.03617a45.229 45.229 0 0 0-0.73226 0.43046v0.39119l0.10387 0.0015a44.837 44.837 0 0 1 0.62839-0.36897zm3.899 0.04031a43.39 43.39 0 0 0-0.73226 0.35553v0.41858a43.015 43.015 0 0 1 0.73226-0.35553zm-5.8488 0.05116a46.145 46.145 0 0 0-0.73223 0.47749v0.47026a45.749 45.749 0 0 1 0.73223-0.47698zm7.7985 0.02377a42.525 42.525 0 0 0-0.73279 0.31419v0.339a42.215 42.215 0 0 1 0.73279-0.31368zm1.9492 0.07183a41.735 41.735 0 0 0-0.73223 0.27337v0.38499a41.374 41.374 0 0 1 0.73223-0.27337zm5.8493 0.01964a40.038 40.038 0 0 0-0.73279 0.16433v0.35605a39.692 39.692 0 0 1 0.73279-0.16433zm-17.547 0.03979a47.083 47.083 0 0 0-0.73226 0.50695v0.49351a46.676 46.676 0 0 1 0.73226-0.50746zm-1.9492 0.11162a48.1 48.1 0 0 0-0.73226 0.55707v0.59945a47.625 47.625 0 0 1 0.73226-0.55759zm15.596 0.02842a40.903 40.903 0 0 0-0.73226 0.24184v0.42323a40.499 40.499 0 0 1 0.73226-0.24236zm-17.546 0.22738a49.078 49.078 0 0 0-0.73279 0.58549v0.55242a48.654 48.654 0 0 1 0.73279-0.60513zm23.395 0.01395a39.24 39.24 0 0 0-0.7333 0.12712v0.65732a38.597 38.597 0 0 1 0.7333-0.12971zm-3.899 0.06976a40.038 40.038 0 0 0-0.73329 0.20309v0.36018a39.692 39.692 0 0 1 0.73329-0.20257zm-5.8492 0.27647a41.735 41.735 0 0 0-0.24445 0.1049c0.0736 0.01729 0.18135 0.02705 0.24445 0.04754zm7.7985 0.05012a39.24 39.24 0 0 0-0.73279 0.16485v0.66869a38.597 38.597 0 0 1 0.73279-0.17208zm-5.8493 0.05426a40.903 40.903 0 0 0-0.73223 0.28267v0.43046a40.499 40.499 0 0 1 0.73223-0.28267zm-9.7477 0.1049a45.229 45.229 0 0 0-0.73223 0.47697v0.46716a44.837 44.837 0 0 1 0.73223-0.47698zm11.698 0.11214a40.038 40.038 0 0 0-0.73226 0.24185v0.36845a39.692 39.692 0 0 1 0.73226-0.24495zm-13.647 0.08475a46.145 46.145 0 0 0-0.73226 0.52658v0.48576a45.749 45.749 0 0 1 0.73226-0.52658zm15.598 0.14521a39.24 39.24 0 0 0-0.73329 0.20774v0.67955a38.597 38.597 0 0 1 0.73329-0.21808zm-17.547 0.11369a47.083 47.083 0 0 0-0.73226 0.55759v0.50953a46.676 46.676 0 0 1 0.73226-0.55707zm21.446 0.09147a38.158 38.158 0 0 0-0.7333 0.13126v0.33331a37.828 37.828 0 0 1 0.7333-0.13126zm-23.395 0.13074a48.1 48.1 0 0 0-0.73279 0.61185v0.62063a47.625 47.625 0 0 1 0.73279-0.61185zm15.596 0.14211a40.038 40.038 0 0 0-0.55033 0.21239c0.0651 0.09633 0.12427 0.19762 0.1793 0.30282a39.692 39.692 0 0 1 0.37103-0.14314zm1.9498 0.13177a39.24 39.24 0 0 0-0.73226 0.25373v0.69143a38.597 38.597 0 0 1 0.73226-0.26562zm3.8995 0.0036a38.158 38.158 0 0 0-0.73279 0.17002v0.33952a37.828 37.828 0 0 1 0.73279-0.1726zm-15.597 0.11938a44.327 44.327 0 0 0-0.73223 0.48214v0.54157a43.889 43.889 0 0 1 0.73223-0.4992zm17.547 0.24495a37.398 37.398 0 0 0-0.7333 0.13436v0.37827a37.028 37.028 0 0 1 0.7333-0.13798zm-19.496 0.0041a45.229 45.229 0 0 0-0.73226 0.5271v0.48576a44.837 44.837 0 0 1 0.73226-0.53123zm15.598 0.1478a38.158 38.158 0 0 0-0.73329 0.21342v0.34623a37.828 37.828 0 0 1 0.73329-0.21859zm-17.547 0.16278a46.145 46.145 0 0 0-0.73226 0.57981v0.50333a45.749 45.749 0 0 1 0.73226-0.57981zm13.647 0.04082a39.24 39.24 0 0 0-0.18965 0.07338c0.0721 0.19852 0.1311 0.40613 0.17055 0.6258a38.597 38.597 0 0 1 0.0191-0.0078zm5.8493 0.06046a37.398 37.398 0 0 0-0.73279 0.1788v0.38396a37.028 37.028 0 0 1 0.73279-0.18345zm-21.446 0.27027a47.083 47.083 0 0 0-0.73279 0.61185v0.54932a46.676 46.676 0 0 1 0.73279-0.63304zm17.546 0.09508a38.158 38.158 0 0 0-0.73226 0.26097v0.35295a37.828 37.828 0 0 1 0.73226-0.26768zm5.8492 0.02067a36.607 36.607 0 0 0-0.7333 0.14263v0.32556a36.29 36.29 0 0 1 0.7333-0.14624zm-17.547 0.08268a43.39 43.39 0 0 0-0.73223 0.49558v0.46767a43.015 43.015 0 0 1 0.73223-0.5085zm13.648 0.05839a37.398 37.398 0 0 0-0.73329 0.22583v0.39016a37.028 37.028 0 0 1 0.73329-0.23203zm-15.598 0.17002a44.327 44.327 0 0 0-0.73226 0.55346v0.56069a43.889 43.889 0 0 1 0.73226-0.57258zm17.547 0.11369a36.607 36.607 0 0 0-0.73279 0.18914v0.33021a36.29 36.29 0 0 1 0.73279-0.19379zm-19.496 0.25528a45.229 45.229 0 0 0-0.73226 0.59066v0.51832a44.837 44.837 0 0 1 0.73226-0.6103zm21.446 0.06563a35.877 35.877 0 0 0-0.7333 0.14314v0.26458a35.616 35.616 0 0 1 0.7333-0.14573zm-5.8492 0.03721a37.398 37.398 0 0 0-0.73226 0.27595v0.39739a37.028 37.028 0 0 1 0.73226-0.28319zm1.9503 0.17932a36.607 36.607 0 0 0-0.73329 0.23874v0.33538a36.29 36.29 0 0 1 0.73329-0.24443zm-19.496 0.15451a46.145 46.145 0 0 0-0.73279 0.63769v0.5364a45.749 45.749 0 0 1 0.73279-0.6506zm5.8487 0.01033a42.525 42.525 0 0 0-0.73223 0.52917v0.38809a42.215 42.215 0 0 1 0.73223-0.54157zm15.597 0.05323a35.877 35.877 0 0 0-0.73279 0.19017v0.26872a35.616 35.616 0 0 1 0.73279-0.19379zm1.9497 0.23978a35.211 35.211 0 0 0-0.7333 0.15038v0.31781a34.906 34.906 0 0 1 0.7333-0.154zm-19.496 0.06666a43.39 43.39 0 0 0-0.73226 0.56792v0.48834a43.015 43.015 0 0 1 0.73226-0.58601zm13.647 0.13022a36.607 36.607 0 0 0-0.73226 0.29146v0.3421a36.29 36.29 0 0 1 0.73226-0.29249zm1.9503 0.11369a35.877 35.877 0 0 0-0.73329 0.2403v0.27285a35.616 35.616 0 0 1 0.73329-0.24495zm-17.547 0.09819a44.327 44.327 0 0 0-0.73226 0.6351v0.58239a43.889 43.889 0 0 1 0.73226-0.63717zm19.496 0.03359a35.211 35.211 0 0 0-0.73279 0.19947v0.32194a34.906 34.906 0 0 1 0.73279-0.2036zm-5.8493 0.03979c-3e-3 0.01669-8e-3 0.03152-0.0109 0.04806a37.028 37.028 0 0 1 0.0109-0.0052zm-9.7477 0.19172a41.735 41.735 0 0 0-0.73223 0.54829v0.44855a41.374 41.374 0 0 1 0.73223-0.54777zm17.547 0.04134a34.509 34.509 0 0 0-0.7333 0.15813v0.35398a34.168 34.168 0 0 1 0.7333-0.16226zm-23.395 0.19482a45.229 45.229 0 0 0-0.73279 0.68058v0.54105a44.837 44.837 0 0 1 0.73279-0.6997zm17.546 0.07183a35.877 35.877 0 0 0-0.73226 0.29404v0.27802a35.616 35.616 0 0 1 0.73226-0.29921zm-1.9498 0.0057a36.607 36.607 0 0 0-0.14933 0.06873c-0.0526 0.15297-0.11629 0.29824-0.18965 0.43666a36.29 36.29 0 0 1 0.33898-0.15606zm3.9 0.01447a35.211 35.211 0 0 0-0.73329 0.25218v0.32763a34.906 34.906 0 0 1 0.73329-0.25786zm-15.598 0.15038a42.525 42.525 0 0 0-0.73226 0.60462v0.40204a42.215 42.215 0 0 1 0.73226-0.6041zm17.547 0.01292a34.509 34.509 0 0 0-0.73279 0.20981v0.35863a34.168 34.168 0 0 1 0.73279-0.21446zm1.9497 0.29404a33.779 33.779 0 0 0-0.7333 0.1664v0.29714a33.487 33.487 0 0 1 0.7333-0.16278zm-21.446 0.17984a43.39 43.39 0 0 0-0.73226 0.65577v0.50953a43.015 43.015 0 0 1 0.73226-0.66559zm15.596 0.05064a35.211 35.211 0 0 0-0.73226 0.30334v0.33435a34.906 34.906 0 0 1 0.73226-0.30334zm-11.698 0.01085a40.903 40.903 0 0 0-0.73223 0.57154v0.5085a40.499 40.499 0 0 1 0.73223-0.57154zm13.648 0.03979a34.509 34.509 0 0 0-0.73329 0.25942v0.36535a34.168 34.168 0 0 1 0.73329-0.25942zm-3.9 0.04289a35.877 35.877 0 0 0-0.73223 0.34933v0.28474a35.616 35.616 0 0 1 0.73223-0.34881zm5.8493 0.13798a33.779 33.779 0 0 0-0.73279 0.21704v0.3023a33.487 33.487 0 0 1 0.73279-0.21549zm-21.446 0.21394a44.327 44.327 0 0 0-0.73279 0.6997v0.60771a43.889 43.889 0 0 1 0.73279-0.6997zm23.395 0.0124a33.106 33.106 0 0 0-0.7333 0.16692v0.29249a32.822 32.822 0 0 1 0.7333-0.17105zm-19.496 0.0279a41.735 41.735 0 0 0-0.73226 0.60462v0.46664a41.374 41.374 0 0 1 0.73226-0.60513zm13.647 0.27544a34.509 34.509 0 0 0-0.73226 0.30334v0.37259a34.168 34.168 0 0 1 0.73226-0.30334zm1.9503 0.06511a33.779 33.779 0 0 0-0.73329 0.25993v0.31109a33.487 33.487 0 0 1 0.73329-0.26923zm-3.9 0.0016a35.211 35.211 0 0 0-0.73223 0.34933v0.34262a34.906 34.906 0 0 1 0.73223-0.34934zm5.8493 0.09973a33.106 33.106 0 0 0-0.73279 0.22221v0.29611a32.822 32.822 0 0 1 0.73279-0.22479zm-15.597 0.17777a40.038 40.038 0 0 0-0.73223 0.57154v0.43977a39.692 39.692 0 0 1 0.73223-0.57102zm-3.899 0.0041a42.525 42.525 0 0 0-0.73226 0.66508v0.41961a42.215 42.215 0 0 1 0.73226-0.66559zm21.187 0.07752a32.449 32.449 0 0 0-0.4744 0.11782v0.293a32.168 32.168 0 0 1 0.22739-0.05685c0.0871-0.11868 0.17121-0.2358 0.24701-0.35398zm-9.4893 0.0646c-0.20497 0.0929-0.42453 0.15676-0.73279 0.2036v0.27905a35.616 35.616 0 0 1 0.73279-0.39791zm5.8492 0.28215a33.106 33.106 0 0 0-0.73329 0.26975v0.30076a32.822 32.822 0 0 1 0.73329-0.26924zm-7.799 0.01705c-0.12269 5e-3 -0.29617 0.0092-0.4594 0.01344a36.607 36.607 0 0 0-0.27286 0.16072v0.37362a36.29 36.29 0 0 1 0.73226-0.43667zm5.8488 0.0021a33.779 33.779 0 0 0-0.73226 0.30334v0.32246a33.487 33.487 0 0 1 0.73226-0.31471zm-13.647 0.01189a40.903 40.903 0 0 0-0.73226 0.632v0.52968a40.499 40.499 0 0 1 0.73226-0.63149zm5.8488 0.03772-0.0414 1e-3a37.398 37.398 0 0 0-0.69091 0.45475v0.44804a37.028 37.028 0 0 1 0.73226-0.48834zm5.8487 0.0046a34.509 34.509 0 0 0-0.73223 0.34882v0.38189a34.168 34.168 0 0 1 0.73223-0.34933zm5.8493 0.0072a32.449 32.449 0 0 0-0.73279 0.22531v0.29714a32.168 32.168 0 0 1 0.73279-0.22531zm-13.917 0.03152-0.46252 0.0093v0.33073a38.597 38.597 0 0 1 0.46252-0.34003zm-7.5288 0.09353a43.39 43.39 0 0 0-0.73279 0.73277v0.53279a43.015 43.015 0 0 1 0.73279-0.73277zm13.647 0.05891a35.211 35.211 0 0 0-0.73279 0.39791v0.3514a34.906 34.906 0 0 1 0.73279-0.39791zm-5.8488 0.2005a38.158 38.158 0 0 0-0.73226 0.53744v0.40928a37.828 37.828 0 0 1 0.73226-0.54002zm-1.9498 0.11937a39.24 39.24 0 0 0-0.73223 0.59118v0.85111a38.597 38.597 0 0 1 0.73223-0.62425zm5.8488 0.02687a35.877 35.877 0 0 0-0.73226 0.44855v0.30127a35.616 35.616 0 0 1 0.73226-0.44855zm-9.7477 0.031a41.735 41.735 0 0 0-0.73226 0.68626v0.50798a41.374 41.374 0 0 1 0.73226-0.709zm17.547 0.06046a32.449 32.449 0 0 0-0.73329 0.26923v0.30282a32.168 32.168 0 0 1 0.73329-0.26975zm-1.9503 0.04186a33.106 33.106 0 0 0-0.73226 0.31471v0.30799a32.822 32.822 0 0 1 0.73226-0.31523zm3.8995 0.0155a31.802 31.802 0 0 0-0.73279 0.22479v0.32763a31.488 31.488 0 0 1 0.73279-0.22479zm-5.8493 0.1235a33.779 33.779 0 0 0-0.73223 0.35243v0.33435a33.487 33.487 0 0 1 0.73223-0.36329zm-5.8487 0.10387a36.607 36.607 0 0 0-0.73226 0.50643v0.39378a36.29 36.29 0 0 1 0.73226-0.52038zm3.8995 0.077a34.509 34.509 0 0 0-0.73279 0.40307v0.4036a34.168 34.168 0 0 1 0.73279-0.41496zm-9.7483 0.10645a40.038 40.038 0 0 0-0.73226 0.64802v0.47956a39.692 39.692 0 0 1 0.73226-0.66973zm7.7985 0.21756a35.211 35.211 0 0 0-0.73226 0.4563v0.37517a34.906 34.906 0 0 1 0.73226-0.4687zm7.799 0.0062a31.802 31.802 0 0 0-0.73329 0.26924v0.33331a31.488 31.488 0 0 1 0.73329-0.26923zm-11.698 0.01344a37.398 37.398 0 0 0-0.73226 0.5612v0.47594a37.028 37.028 0 0 1 0.73226-0.5793zm-7.7985 0.0217a42.525 42.525 0 0 0-0.73279 0.75293v0.46044a42.215 42.215 0 0 1 0.73279-0.77514zm21.446 0.02687a31.13 31.13 0 0 0-0.73279 0.23358v0.28267a30.86 30.86 0 0 1 0.21756-0.06925c0.16963-0.1103 0.3388-0.21693 0.51523-0.36122zm-3.8995 0.0057a32.449 32.449 0 0 0-0.73226 0.31523v0.30903a32.168 32.168 0 0 1 0.73226-0.31523zm-1.9498 0.17002a33.106 33.106 0 0 0-0.73223 0.36329v0.31574a32.822 32.822 0 0 1 0.73223-0.36329zm-13.647 0.154a40.903 40.903 0 0 0-0.73226 0.70745v0.58188a40.499 40.499 0 0 1 0.73226-0.73536zm7.798 0.09147a35.877 35.877 0 0 0-0.73226 0.5147v0.32349a35.616 35.616 0 0 1 0.73226-0.5271zm3.8995 0.0186a33.779 33.779 0 0 0-0.73279 0.42891v0.33073a33.487 33.487 0 0 1 0.73279-0.4191zm-7.7985 0.08475a38.158 38.158 0 0 0-0.73223 0.62115v0.44183a37.828 37.828 0 0 1 0.73223-0.64027zm13.648 0.12609a31.13 31.13 0 0 0-0.73329 0.28009v0.28835a30.86 30.86 0 0 1 0.73329-0.28008zm-1.9503 0.06201a31.802 31.802 0 0 0-0.73226 0.31988v0.34933a31.488 31.488 0 0 1 0.73226-0.32866zm-5.8488 0.04341a34.509 34.509 0 0 0-0.73226 0.48524v0.41754a34.168 34.168 0 0 1 0.73226-0.49868zm-7.7985 0.01344a39.24 39.24 0 0 0-0.73226 0.6966v0.88935a38.597 38.597 0 0 1 0.73226-0.69763zm11.697 0.14263a32.449 32.449 0 0 0-0.73223 0.37569v0.32608a32.168 32.168 0 0 1 0.73223-0.38499zm-7.798 0.02222a36.607 36.607 0 0 0-0.73226 0.59738v0.40928a36.29 36.29 0 0 1 0.73226-0.59738zm-7.7985 0.15916a41.735 41.735 0 0 0-0.73279 0.80615v0.53382a41.374 41.374 0 0 1 0.73279-0.80615zm13.647 0.12506a33.106 33.106 0 0 0-0.73279 0.43356v0.33538a32.822 32.822 0 0 1 0.73279-0.44442zm-3.8995 0.0072a35.211 35.211 0 0 0-0.73226 0.5457v0.38861a34.906 34.906 0 0 1 0.73226-0.55966zm9.7488 0.08888a30.509 30.509 0 0 0-0.73329 0.27957v0.23668a30.287 30.287 0 0 1 0.73329-0.28008zm-1.9503 0.13281a31.13 31.13 0 0 0-0.73226 0.32763v0.29714a30.86 30.86 0 0 1 0.73226-0.33021zm-11.698 0.06149a37.398 37.398 0 0 0-0.73223 0.66146v0.49713a37.028 37.028 0 0 1 0.73223-0.66146zm-3.899 0.0124a40.038 40.038 0 0 0-0.73226 0.76688v0.50384a39.692 39.692 0 0 1 0.73226-0.76946zm18.763 0.03307v0.19792a29.683 29.683 0 0 1 0.22841-0.07287c-0.0745-0.03904-0.1574-0.09049-0.22841-0.12506zm-9.0155 0.0708a33.779 33.779 0 0 0-0.73226 0.50384v0.35502a33.487 33.487 0 0 1 0.73226-0.50695zm3.899 0.01137a31.802 31.802 0 0 0-0.73223 0.39688v0.35967a31.488 31.488 0 0 1 0.73223-0.40669zm-7.798 0.23254a35.877 35.877 0 0 0-0.73226 0.61443v0.33796a35.616 35.616 0 0 1 0.73226-0.62528zm13.549 0.03256a29.346 29.346 0 0 0-0.6346 0.20205v0.31419a29.056 29.056 0 0 1 0.73279-0.24288v-0.21963c-0.0346-0.0209-0.0641-0.03363-0.0982-0.05374zm-1.851 0.02119a29.942 29.942 0 0 0-0.73329 0.28164v0.28267a29.683 29.683 0 0 1 0.73329-0.28784zm-5.8492 0.05271a32.449 32.449 0 0 0-0.73279 0.45888v0.33693a32.168 32.168 0 0 1 0.73279-0.46871zm-3.8995 0.11937a34.509 34.509 0 0 0-0.73226 0.56172v0.43408a34.168 34.168 0 0 1 0.73226-0.56224zm7.7985 0.031a30.509 30.509 0 0 0-0.73226 0.34107v0.24856a30.287 30.287 0 0 1 0.73226-0.34778zm-13.647 0.12506a38.158 38.158 0 0 0-0.73226 0.73277v0.46354a37.828 37.828 0 0 1 0.73226-0.73277zm-3.899 0.06511a40.903 40.903 0 0 0-0.73279 0.84284v0.61392a40.499 40.499 0 0 1 0.73279-0.84904zm15.596 0.08268a31.13 31.13 0 0 0-0.73223 0.40204v0.31212a30.86 30.86 0 0 1 0.73223-0.41134zm-3.899 0.03152a33.106 33.106 0 0 0-0.73226 0.52348v0.34778a32.822 32.822 0 0 1 0.73226-0.52607zm9.7483 0.09147a28.725 28.725 0 0 0-0.73279 0.24288v0.26303a28.477 28.477 0 0 1 0.73279-0.24236zm-1.9492 0.03617a29.346 29.346 0 0 0-0.73329 0.29662v0.31109a29.056 29.056 0 0 1 0.73329-0.29145zm-13.648 0.01499a36.607 36.607 0 0 0-0.73223 0.66094v0.44029a36.29 36.29 0 0 1 0.73223-0.67386zm-3.899 0.10542a39.24 39.24 0 0 0-0.73226 0.76894v0.98134a38.597 38.597 0 0 1 0.73226-0.81597zm5.8488 0.05116a35.211 35.211 0 0 0-0.73226 0.6258v0.40566a34.906 34.906 0 0 1 0.73226-0.62528zm5.8488 0.0067a31.802 31.802 0 0 0-0.73279 0.46819v0.37207a31.488 31.488 0 0 1 0.73279-0.46819zm3.899 0.01292a29.942 29.942 0 0 0-0.73226 0.35812v0.29042a29.683 29.683 0 0 1 0.73226-0.36587zm5.116 0.05271v0.27389a27.84 27.84 0 0 1 0.23617-0.06356c-0.0819-0.07107-0.14563-0.13769-0.23617-0.21032zm-12.914 0.21549a33.779 33.779 0 0 0-0.73226 0.56172v0.38809a33.487 33.487 0 0 1 0.73226-0.58911zm5.8487 0.07855a30.509 30.509 0 0 0-0.73223 0.42375v0.25683a30.287 30.287 0 0 1 0.73223-0.43202zm5.8493 0.02791a28.153 28.153 0 0 0-0.73279 0.24288v0.33021a27.84 27.84 0 0 1 0.73279-0.24391zm-1.9492 0.1049a28.725 28.725 0 0 0-0.73329 0.29869v0.27595a28.477 28.477 0 0 1 0.73329-0.30541zm-7.799 0.01085a32.449 32.449 0 0 0-0.73226 0.52607v0.34882a32.168 32.168 0 0 1 0.73226-0.52607zm11.485 0.02584a27.523 27.523 0 0 0-0.52039 0.13953v0.24856a27.285 27.285 0 0 1 0.70591-0.18965c-0.0495-0.05587-0.0984-0.11204-0.15039-0.16692-9e-3 -0.0098-0.0255-0.02159-0.0351-0.03152zm-19.284 0.06098a37.398 37.398 0 0 0-0.73226 0.73226v0.54777a37.028 37.028 0 0 1 0.73226-0.75809zm13.647 0.07235a29.346 29.346 0 0 0-0.73226 0.37621v0.32659a29.056 29.056 0 0 1 0.73226-0.37zm-3.899 0.12247a31.13 31.13 0 0 0-0.73279 0.48938v0.3235a30.86 30.86 0 0 1 0.73279-0.48938zm-7.7985 0.03927a35.877 35.877 0 0 0-0.73223 0.69505v0.35398a35.616 35.616 0 0 1 0.73223-0.69505zm-5.8487 0.06925a40.038 40.038 0 0 0-0.73279 0.85266v0.56482a39.692 39.692 0 0 1 0.73279-0.88522zm7.7985 0.02429a34.509 34.509 0 0 0-0.68834 0.59221l0.50953 0.0124a34.168 34.168 0 0 1 0.17881-0.15244zm7.798 0.09405a29.942 29.942 0 0 0-0.73223 0.43202v0.30024a29.683 29.683 0 0 1 0.73223-0.43202zm7.799 0.02842a26.975 26.975 0 0 0-0.7333 0.20412v0.27544a26.708 26.708 0 0 1 0.7333-0.20464zm-1.9497 0.01137a27.523 27.523 0 0 0-0.73279 0.25063v0.25838a27.285 27.285 0 0 1 0.73279-0.2558zm-1.9492 0.05581a28.153 28.153 0 0 0-0.73329 0.31419v0.34468a27.84 27.84 0 0 1 0.73329-0.32246zm-9.7488 0.02429a33.106 33.106 0 0 0-0.53486 0.43046l0.43614 0.01085a32.822 32.822 0 0 1 0.0987-0.07907zm1.9497 0.17002a31.802 31.802 0 0 0-0.44339 0.31832c0.15074 0.0053 0.3075 0.01039 0.44339 0.01602zm5.8488 0.05684a28.725 28.725 0 0 0-0.73226 0.38137v0.28319a28.477 28.477 0 0 1 0.73226-0.38912zm-3.899 0.17157a30.509 30.509 0 0 0-0.34004 0.22738c0.11186 0.01354 0.23894 0.02417 0.33795 0.03979a30.287 30.287 0 0 1 2e-3 -0.0015zm-11.698 0.0026a38.158 38.158 0 0 0-0.73226 0.81959v0.51832a37.828 37.828 0 0 1 0.73226-0.84905zm21.446 0.09612a26.404 26.404 0 0 0-0.7333 0.20464v0.2372a26.176 26.176 0 0 1 0.7333-0.20464zm-1.9497 0.0062a26.975 26.975 0 0 0-0.73279 0.2527v0.28474a26.708 26.708 0 0 1 0.73279-0.25683zm-5.8493 0.06563a29.346 29.346 0 0 0-0.73223 0.43201v0.02429c0.0906 0.04703 0.17748 0.10542 0.26458 0.16278a29.056 29.056 0 0 1 0.46765-0.28835zm-11.697 0.0062a36.607 36.607 0 0 0-0.73226 0.79013v0.47387a36.29 36.29 0 0 1 0.73226-0.8108zm1.9497 0.03152a35.211 35.211 0 0 0-0.73223 0.71882v0.44803a34.906 34.906 0 0 1 0.73223-0.74207zm13.648 0.04703a27.523 27.523 0 0 0-0.73329 0.33176v0.2651a27.285 27.285 0 0 1 0.73329-0.33848zm-1.9503 0.20826a28.153 28.153 0 0 0-0.73226 0.39481v0.35502a27.84 27.84 0 0 1 0.73226-0.39481zm-17.546 0.12454a39.24 39.24 0 0 0-0.73279 0.92811v1.0464a38.597 38.597 0 0 1 0.73279-0.93896zm23.395 0.0584a25.878 25.878 0 0 0-0.7333 0.20464v0.19482a25.69 25.69 0 0 1 0.7333-0.20464zm-1.9497 0.05839a26.404 26.404 0 0 0-0.73279 0.26458v0.24701a26.176 26.176 0 0 1 0.73279-0.27027zm-1.9492 0.15451a26.975 26.975 0 0 0-0.73329 0.33383v0.29456a26.708 26.708 0 0 1 0.73329-0.34158zm-3.9 0.02894a28.725 28.725 0 0 0-0.17828 0.11007c0.0593 0.0465 0.11769 0.08819 0.17828 0.13901zm9.0155 0.12299v0.04806a25.178 25.178 0 0 1 0.0181-0.0041c-7e-3 -0.01415-0.0111-0.02982-0.0181-0.04393zm-22.662 0.12557a37.398 37.398 0 0 0-0.73226 0.88832v0.58342a37.028 37.028 0 0 1 0.73226-0.89762zm21.446 0.0072a25.397 25.397 0 0 0-0.7333 0.20619v0.2341a25.178 25.178 0 0 1 0.7333-0.21084zm-17.547 0.03255a34.509 34.509 0 0 0-0.73223 0.77101v0.49971a34.168 34.168 0 0 1 0.73223-0.77153zm11.698 0.0026a27.523 27.523 0 0 0-0.73226 0.39532v0.27285a27.285 27.285 0 0 1 0.73226-0.39481zm-13.647 0.06718a35.877 35.877 0 0 0-0.73226 0.82062v0.39636a35.616 35.616 0 0 1 0.73226-0.84336zm17.547 0.01654a25.878 25.878 0 0 0-0.73279 0.2775v0.20361a25.69 25.69 0 0 1 0.73279-0.28215zm3.2944 0.06149a24.891 24.891 0 0 0-0.12814 0.02894v0.2558a24.645 24.645 0 0 1 0.22376-0.05012c-0.0319-0.07817-0.0613-0.15772-0.0956-0.23461zm-5.2436 0.14883a26.404 26.404 0 0 0-0.73329 0.35037v0.25425a26.176 26.176 0 0 1 0.73329-0.35708zm3.899 0.19585a24.891 24.891 0 0 0-0.7333 0.21291v0.26045a24.645 24.645 0 0 1 0.7333-0.2129zm-1.9497 0.10077a25.397 25.397 0 0 0-0.73279 0.28939v0.23926a25.178 25.178 0 0 1 0.73279-0.29456zm-3.8995 0.02842a26.975 26.975 0 0 0-0.73226 0.4129v0.30438a26.708 26.708 0 0 1 0.73226-0.4129zm7.3975 0.02429a24.365 24.365 0 0 0-0.33176 0.07441v0.21549a24.154 24.154 0 0 1 0.41238-0.09198c-0.0229-0.06814-0.056-0.13074-0.0806-0.19792zm-5.4472 0.23151a25.878 25.878 0 0 0-0.73329 0.35708v0.20826a25.69 25.69 0 0 1 0.73329-0.35708zm3.899 0.16743a24.365 24.365 0 0 0-0.7333 0.21652v0.22376a24.154 24.154 0 0 1 0.7333-0.22118zm-19.496 0.0088a35.211 35.211 0 0 0-0.73226 0.85783v0.47439a34.906 34.906 0 0 1 0.73226-0.85731zm1.9497 0.0077a33.779 33.779 0 0 0-0.73223 0.77463v0.4532a33.487 33.487 0 0 1 0.73223-0.81649zm19.253 0.04393a23.879 23.879 0 0 0-0.48938 0.10955v0.21239a23.674 23.674 0 0 1 0.53846-0.12041c-0.018-0.06624-0.0295-0.13617-0.0491-0.20154zm-3.6556 0.03049a24.891 24.891 0 0 0-0.73279 0.29042v0.27285a24.645 24.645 0 0 1 0.73279-0.29714zm-21.446 0.0124a38.158 38.158 0 0 0-0.73279 0.99787v0.55346a37.828 37.828 0 0 1 0.73279-0.99736zm1.9497 0.05064a36.607 36.607 0 0 0-0.73226 0.90899v0.53692a36.29 36.29 0 0 1 0.73226-0.94309zm15.596 0.07338a26.404 26.404 0 0 0-0.72761 0.41031c0.0249 0.07301 0.0425 0.15088 0.0635 0.22634a26.176 26.176 0 0 1 0.66405-0.37414zm1.9503 0.13746a25.397 25.397 0 0 0-0.73329 0.3576v0.24546a25.178 25.178 0 0 1 0.73329-0.35708zm3.899 0.13798a23.879 23.879 0 0 0-0.7333 0.22686v0.22066a23.674 23.674 0 0 1 0.7333-0.23151zm1.8195 0.02016a23.405 23.405 0 0 0-0.60307 0.13488v0.20774a23.203 23.203 0 0 1 0.65111-0.14573c-0.0142-0.06671-0.0324-0.13104-0.0481-0.19689zm-3.7693 0.13177a24.365 24.365 0 0 0-0.73279 0.30489v0.22944a24.154 24.154 0 0 1 0.73279-0.31006zm-3.8995 0.17932a25.878 25.878 0 0 0-0.58706 0.33073c0.0131 0.06429 0.0211 0.13154 0.0315 0.1974a25.69 25.69 0 0 1 0.55552-0.31316zm1.9503 0.08527a24.891 24.891 0 0 0-0.73329 0.37362v0.2806a24.645 24.645 0 0 1 0.73329-0.37362zm5.8286 0.05426a22.939 22.939 0 0 0-0.71313 0.1664v0.23513a22.712 22.712 0 0 1 0.73277-0.17053v-0.15193c-5e-3 -0.02741-0.0147-0.0518-0.0196-0.07907zm-1.9296 0.02481a23.405 23.405 0 0 0-0.7333 0.23771v0.21549a23.203 23.203 0 0 1 0.7333-0.24133zm-17.547 0.0021a33.106 33.106 0 0 0-0.73223 0.81597v0.43615a32.822 32.822 0 0 1 0.73223-0.83044zm-1.9497 0.09043a34.509 34.509 0 0 0-0.73226 0.89142v0.56482a34.168 34.168 0 0 1 0.73226-0.92656zm17.547 0.07752a23.879 23.879 0 0 0-0.73279 0.31678v0.22634a23.674 23.674 0 0 1 0.73279-0.31729zm-19.496 0.15709a35.877 35.877 0 0 0-0.73226 0.95498v0.45424a35.616 35.616 0 0 1 0.73226-0.9865zm15.596 0.05839a25.397 25.397 0 0 0-0.51213 0.29456c8e-3 0.08304 0.01 0.1695 0.0134 0.25476a25.178 25.178 0 0 1 0.49869-0.29559zm-17.546 0.0036a37.398 37.398 0 0 0-0.73279 1.0423v0.67024a37.028 37.028 0 0 1 0.73279-1.0888zm25.345 0.08217a22.454 22.454 0 0 0-0.73277 0.17105v0.19637a22.259 22.259 0 0 1 0.73277-0.17105zm-1.9492 0.01757a22.939 22.939 0 0 0-0.7333 0.23771v0.24495a22.712 22.712 0 0 1 0.7333-0.24288zm-3.899 0.02791a24.365 24.365 0 0 0-0.73329 0.37362v0.23616a24.154 24.154 0 0 1 0.73329-0.37362zm1.9492 0.17208a23.405 23.405 0 0 0-0.73279 0.31729v0.22118a23.203 23.203 0 0 1 0.73279-0.31729zm3.899 0.24133a22.006 22.006 0 0 0-0.73276 0.17105v0.16175a21.846 21.846 0 0 1 0.73276-0.17105zm-7.7985 0.04237a24.891 24.891 0 0 0-0.49144 0.29042c-1e-3 0.09791-7e-3 0.19815-0.0134 0.29869a24.645 24.645 0 0 1 0.50488-0.29869zm-11.698 0.01602a32.449 32.449 0 0 0-0.73223 0.86765v0.45113a32.168 32.168 0 0 1 0.73223-0.89555zm17.547 0.01033a22.454 22.454 0 0 0-0.7333 0.24908v0.20412a22.259 22.259 0 0 1 0.7333-0.25373zm-3.899 0.05891a23.879 23.879 0 0 0-0.7333 0.37362v0.23874a23.674 23.674 0 0 1 0.7333-0.37982zm1.9492 0.12816a22.939 22.939 0 0 0-0.73279 0.33176v0.25218a22.712 22.712 0 0 1 0.73279-0.33228zm-17.547 0.04496a33.779 33.779 0 0 0-0.73226 0.95395v0.49764a33.487 33.487 0 0 1 0.73226-0.97307zm21.446 0.12041a21.597 21.597 0 0 0-0.73276 0.17363v0.19172a21.41 21.41 0 0 1 0.73276-0.17673zm-23.395 0.06511a35.211 35.211 0 0 0-0.73226 1.0361v0.54467a34.906 34.906 0 0 1 0.73226-1.0656zm21.446 0.04909a22.006 22.006 0 0 0-0.7333 0.25994v0.16846a21.846 21.846 0 0 1 0.7333-0.26355zm-5.8492 0.12299a24.365 24.365 0 0 0-0.53848 0.33435c-0.0115 0.09529-0.0241 0.18984-0.0398 0.28164a24.154 24.154 0 0 1 0.57827-0.37104zm1.9503 0.0041a23.405 23.405 0 0 0-0.73329 0.39067v0.23564a23.203 23.203 0 0 1 0.73329-0.39843zm1.9492 0.12919a22.454 22.454 0 0 0-0.73279 0.33176v0.20981a22.259 22.259 0 0 1 0.73279-0.33228zm-21.446 0.03204a36.607 36.607 0 0 0-0.73279 1.1121v0.60978a36.29 36.29 0 0 1 0.73279-1.1446zm25.345 0.12196a21.167 21.167 0 0 0-0.73277 0.19999v0.13539a20.958 20.958 0 0 1 0.73277-0.19068zm-1.9492 0.01809a21.597 21.597 0 0 0-0.7333 0.26975v0.19534a21.41 21.41 0 0 1 0.7333-0.27337zm-17.547 0.08578a31.802 31.802 0 0 0-0.73223 0.91054v0.50953a31.488 31.488 0 0 1 0.73223-0.92036zm13.648 0.13849a22.939 22.939 0 0 0-0.73329 0.39326v0.26975a22.712 22.712 0 0 1 0.73329-0.40308zm-1.9503 0.03101a23.879 23.879 0 0 0-0.66043 0.4408c-0.0236 0.0953-0.0435 0.19404-0.0718 0.28526v0.01344a23.674 23.674 0 0 1 0.73226-0.49764zm3.8995 0.06305a22.006 22.006 0 0 0-0.73279 0.33176v0.17312a21.846 21.846 0 0 1 0.73279-0.33176zm3.899 0.03772a20.719 20.719 0 0 0-0.73276 0.1819v0.18914a20.54 20.54 0 0 1 0.73276-0.18552zm-21.446 0.06976a33.106 33.106 0 0 0-0.73226 1.018v0.48266a32.822 32.822 0 0 1 0.73226-1.0196zm19.496 0.15503a21.167 21.167 0 0 0-0.7333 0.28422v0.10904a20.958 20.958 0 0 1 0.7333-0.27388zm-21.446 0.15244a34.509 34.509 0 0 0-0.73226 1.08v0.65887a34.168 34.168 0 0 1 0.73226-1.1317zm19.496 0.03514a21.597 21.597 0 0 0-0.73279 0.33176v0.20619a21.41 21.41 0 0 1 0.73279-0.33693zm-1.9492 0.0093a22.454 22.454 0 0 0-0.73329 0.41444v0.22428a22.259 22.259 0 0 1 0.73329-0.4222zm5.8482 0.0062a20.306 20.306 0 0 0-0.73277 0.19017v0.17054a20.146 20.146 0 0 1 0.73277-0.19327zm-7.7985 0.03876a23.405 23.405 0 0 0-0.73226 0.49764v0.24546a23.203 23.203 0 0 1 0.73226-0.49764zm5.8492 0.10128a20.719 20.719 0 0 0-0.7333 0.28215v0.19379a20.54 20.54 0 0 1 0.7333-0.28681zm-17.547 0.21962a31.13 31.13 0 0 0-0.73223 0.97307v0.44752a30.86 30.86 0 0 1 0.73223-0.97255zm19.496 0.04289a19.917 19.917 0 0 0-0.73277 0.1974v0.18242a19.745 19.745 0 0 1 0.73277-0.20102zm-25.345 1e-3a35.877 35.877 0 0 0-0.73279 1.1953v0.52038a35.616 35.616 0 0 1 0.73279-1.2237zm19.496 0.09663a22.006 22.006 0 0 0-0.73329 0.43356v0.18552a21.846 21.846 0 0 1 0.73329-0.4408zm3.899 0.07958a20.306 20.306 0 0 0-0.7333 0.28887v0.17466a20.146 20.146 0 0 1 0.7333-0.28887zm-5.8492 0.01033a22.939 22.939 0 0 0-0.73226 0.52038v0.28216a22.712 22.712 0 0 1 0.73226-0.52503zm3.8995 0.02997a21.167 21.167 0 0 0-0.73279 0.37104v0.0832a20.958 20.958 0 0 1 0.73279-0.36174zm-17.547 0.14935a32.449 32.449 0 0 0-0.73226 1.0578v0.524a32.168 32.168 0 0 1 0.73226-1.0976zm21.446 0.03927a19.52 19.52 0 0 0-0.73277 0.20516v0.20154a19.327 19.327 0 0 1 0.73277-0.20154zm-3.899 0.13798a20.719 20.719 0 0 0-0.73279 0.3483v0.20567a20.54 20.54 0 0 1 0.73279-0.35502zm-1.9492 0.01809a21.597 21.597 0 0 0-0.73329 0.45217v0.21549a21.41 21.41 0 0 1 0.73329-0.4563zm3.899 0.03514a19.917 19.917 0 0 0-0.7333 0.28939v0.18707a19.745 19.745 0 0 1 0.7333-0.2899zm-5.8492 0.18655a22.454 22.454 0 0 0-0.73226 0.52452v0.23461a22.259 22.259 0 0 1 0.73226-0.52503zm-15.596 0.05374a33.779 33.779 0 0 0-0.73226 1.1886v0.58291a33.487 33.487 0 0 1 0.73226-1.2134zm23.369 0.0047a19.107 19.107 0 0 0-0.70692 0.19947v0.1757a18.942 18.942 0 0 1 0.66712-0.19327c0.0114-0.0623 0.0294-0.11875 0.0398-0.1819zm-19.47 0.14573a30.509 30.509 0 0 0-0.73223 1.0144v0.39739a30.287 30.287 0 0 1 0.73223-1.0444zm15.597 0.01499a20.306 20.306 0 0 0-0.73279 0.36535v0.18655a20.146 20.146 0 0 1 0.73279-0.37156zm1.9497 0.01809a19.52 19.52 0 0 0-0.7333 0.28939v0.21859a19.327 19.327 0 0 1 0.7333-0.30386zm1.8324 0.2372a18.726 18.726 0 0 0-0.61598 0.18448v0.14383a18.59 18.59 0 0 1 0.58291-0.17932c0.011-0.04954 0.0227-0.09872 0.0331-0.14883zm-25.228 0.01137a35.211 35.211 0 0 0-0.73279 1.2971v0.64544a34.906 34.906 0 0 1 0.73279-1.3493zm19.496 0.01602a21.167 21.167 0 0 0-0.73329 0.4625v0.05478a20.958 20.958 0 0 1 0.73329-0.45165zm-1.9503 0.04703a22.006 22.006 0 0 0-0.73226 0.52813v0.20412a21.846 21.846 0 0 1 0.73226-0.53847zm3.8995 0.10387a19.917 19.917 0 0 0-0.73279 0.38034v0.19947a19.745 19.745 0 0 1 0.73279-0.38706zm1.9497 0.02377a19.107 19.107 0 0 0-0.7333 0.30386v0.18035a18.942 18.942 0 0 1 0.7333-0.30386zm-19.496 0.02067a31.802 31.802 0 0 0-0.73226 1.1462v0.60151a31.488 31.488 0 0 1 0.73226-1.1658zm15.598 0.0956a20.719 20.719 0 0 0-0.73329 0.47904v0.21497a20.54 20.54 0 0 1 0.73329-0.48059zm5.6477 0.06356a18.378 18.378 0 0 0-0.53226 0.17105v0.16692a18.219 18.219 0 0 1 0.49401-0.16433c0.0149-0.05596 0.0242-0.1169 0.0382-0.17363zm-9.5478 0.01085a22.939 22.939 0 0 0-0.73223 0.63046v0.31471a22.712 22.712 0 0 1 0.73223-0.64802zm1.9498 0.18604a21.597 21.597 0 0 0-0.73226 0.55449v0.2372a21.41 21.41 0 0 1 0.73226-0.56586zm5.8492 0.03514a18.726 18.726 0 0 0-0.7333 0.30334v0.1478a18.59 18.59 0 0 1 0.7333-0.30386zm-1.9497 1e-3a19.52 19.52 0 0 0-0.73279 0.39584v0.22273a19.327 19.327 0 0 1 0.73279-0.39222zm-15.597 0.06046a29.942 29.942 0 0 0-0.73223 1.0919v0.46457a29.683 29.683 0 0 1 0.73223-1.0955zm19.204 0.11472a18.012 18.012 0 0 0-0.4408 0.14676v0.18655a17.834 17.834 0 0 1 0.36018-0.11989c0.0238-0.07364 0.0585-0.13834 0.0806-0.21342zm-5.5562 0.02222a20.306 20.306 0 0 0-0.73329 0.48059v0.19482a20.146 20.146 0 0 1 0.73329-0.48111zm-17.547 0.03617a33.106 33.106 0 0 0-0.73226 1.28v0.57878a32.822 32.822 0 0 1 0.73226-1.3022zm21.446 0.14418a18.378 18.378 0 0 0-0.7333 0.30334v0.17312a18.219 18.219 0 0 1 0.7333-0.30541zm-7.799 0.03204a22.454 22.454 0 0 0-0.73223 0.66766v0.26097a22.259 22.259 0 0 1 0.73223-0.68265zm5.8493 0.05943a19.107 19.107 0 0 0-0.73279 0.40153v0.19327a18.942 18.942 0 0 1 0.73279-0.40876zm3.4365 0.15865a17.631 17.631 0 0 0-0.27025 0.09457v0.15968a17.479 17.479 0 0 1 0.20101-0.06976c0.0236-0.06113 0.047-0.12228 0.0692-0.18449zm-11.32 0.0083c-0.0791 0.0124-0.21227 0.02311-0.32763 0.03462a23.879 23.879 0 0 0-0.31988 0.31988v0.30282a23.674 23.674 0 0 1 0.64751-0.65732zm5.9345 0.02894a19.917 19.917 0 0 0-0.73329 0.48111v0.21756a19.745 19.745 0 0 1 0.73329-0.49041zm-1.9503 0.10232a21.167 21.167 0 0 0-0.73226 0.6041v0.02274a20.958 20.958 0 0 1 0.73226-0.5917zm5.8492 0.0047a18.012 18.012 0 0 0-0.7333 0.31264v0.19792a17.834 17.834 0 0 1 0.7333-0.31884zm-12.044 0.0062c-0.0975 0.0035-0.19418 0.0071-0.29663 0.0098a25.397 25.397 0 0 0-0.0899 0.108v0.34572a25.178 25.178 0 0 1 0.38656-0.46354zm-3.8303 0.02687a28.153 28.153 0 0 0-0.45527 0.65112v0.54209a27.84 27.84 0 0 1 0.73226-1.0454v-0.14779zm2.2087 0a26.404 26.404 0 0 0-0.71469 0.92811v0.38551a26.176 26.176 0 0 1 0.73226-0.97772v-0.3359c-6e-3 5e-6 -0.0117-5.8e-5 -0.0176 0zm-2.6639 5.16e-4v0.08785a28.477 28.477 0 0 1 0.0615-0.08785zm1.9492 0v0.41858a26.708 26.708 0 0 1 0.32141-0.41858zm-9.0155 0.0093a34.509 34.509 0 0 0-0.73279 1.4082v0.79943a34.168 34.168 0 0 1 0.73279-1.4862zm11.697 0.01395a24.891 24.891 0 0 0-0.73226 0.84646v0.40721a24.645 24.645 0 0 1 0.73226-0.87592zm-7.7985 0.0067a31.13 31.13 0 0 0-0.73226 1.2387v0.54674a30.86 30.86 0 0 1 0.73226-1.2583zm17.547 0.05839a18.726 18.726 0 0 0-0.73279 0.41858v0.15865a18.59 18.59 0 0 1 0.73279-0.42426zm-7.7985 0.03773a23.405 23.405 0 0 0-0.73279 0.76894v0.30696a23.203 23.203 0 0 1 0.73279-0.78858zm1.9492 0.07131a22.006 22.006 0 0 0-0.73223 0.68575v0.21601a21.846 21.846 0 0 1 0.73223-0.68575zm9.1245 0.05219a17.28 17.28 0 0 0-0.10904 0.03824v0.15658a17.132 17.132 0 0 1 0.0413-0.01447c0.026-0.05734 0.043-0.12198 0.0677-0.18035zm-7.1748 0.0026a20.719 20.719 0 0 0-0.73226 0.59583v0.23771a20.54 20.54 0 0 1 0.73226-0.60823zm-11.698 0.06615a29.346 29.346 0 0 0-0.73223 1.1514v0.5581a29.056 29.056 0 0 1 0.73223-1.1875zm13.648 0.0124a19.52 19.52 0 0 0-0.73329 0.50385v0.23926a19.327 19.327 0 0 1 0.73329-0.50901zm3.899 0.04702a17.631 17.631 0 0 0-0.7333 0.31936v0.16536a17.479 17.479 0 0 1 0.7333-0.32039zm-1.9497 0.10232a18.378 18.378 0 0 0-0.73279 0.43408v0.18397a18.219 18.219 0 0 1 0.73279-0.4346zm-13.647 0.22066a27.523 27.523 0 0 0-0.73226 1.0811v0.45838a27.285 27.285 0 0 1 0.73226-1.1198zm-5.8488 0.04961a32.449 32.449 0 0 0-0.73226 1.3849v0.63355a32.168 32.168 0 0 1 0.73226-1.4454zm13.647 0.0088a21.597 21.597 0 0 0-0.73223 0.70073v0.26768a21.41 21.41 0 0 1 0.73223-0.71675zm7.799 5.16e-4a17.28 17.28 0 0 0-0.7333 0.32763v0.16692a17.132 17.132 0 0 1 0.7333-0.33331zm-5.8492 0.01189a20.306 20.306 0 0 0-0.73226 0.62529v0.216a20.146 20.146 0 0 1 0.73226-0.63665zm-3.899 0.02016a22.939 22.939 0 0 0-0.73279 0.79478v0.36173a22.712 22.712 0 0 1 0.73279-0.82113zm-3.8995 0.03152a25.878 25.878 0 0 0-0.73226 0.9958v0.3328a25.69 25.69 0 0 1 0.73226-1.0113zm1.9497 0.0021a24.365 24.365 0 0 0-0.73226 0.90899v0.34365a24.154 24.154 0 0 1 0.73226-0.93432zm7.799 0.0036a19.107 19.107 0 0 0-0.73329 0.51211v0.21394a18.942 18.942 0 0 1 0.73329-0.52348zm1.9492 0.07441a18.012 18.012 0 0 0-0.73279 0.43512v0.20464a17.834 17.834 0 0 1 0.73279-0.4346zm1.9497 0.23048a16.937 16.937 0 0 0-0.7333 0.34158v0.1664a16.79 16.79 0 0 1 0.7333-0.34726zm-19.496 0.11317a30.509 30.509 0 0 0-0.73226 1.3317v0.48163a30.287 30.287 0 0 1 0.73226-1.3777zm13.647 0.03049a19.917 19.917 0 0 0-0.73226 0.63872v0.23048a19.745 19.745 0 0 1 0.73226-0.63821zm1.9503 0.01395a18.726 18.726 0 0 0-0.73329 0.53795v0.17518a18.59 18.59 0 0 1 0.73329-0.54725zm1.9492 0.04289a17.631 17.631 0 0 0-0.73279 0.45837v0.17828a17.479 17.479 0 0 1 0.73279-0.46044zm-15.597 0.13591a28.725 28.725 0 0 0-0.73223 1.2464v0.52297a28.477 28.477 0 0 1 0.73223-1.296zm17.547 0.03359a16.599 16.599 0 0 0-0.7333 0.35502v0.18294a16.435 16.435 0 0 1 0.7333-0.36174zm-9.7482 0.0021a22.454 22.454 0 0 0-0.73279 0.8506v0.30023a22.259 22.259 0 0 1 0.73279-0.87177zm-1.9498 0.07183a23.879 23.879 0 0 0-0.73226 0.94412v0.3607a23.674 23.674 0 0 1 0.73226-0.96686zm-11.697 0.0021a33.779 33.779 0 0 0-0.73279 1.5736v0.75189a33.487 33.487 0 0 1 0.73279-1.6583zm9.7477 0.05219a25.397 25.397 0 0 0-0.73226 1.0563v0.40773a25.178 25.178 0 0 1 0.73226-1.0904zm-1.9492 0.03927a26.975 26.975 0 0 0-0.73226 1.1539v0.54054a26.708 26.708 0 0 1 0.73226-1.2056zm11.698 0.04702a18.378 18.378 0 0 0-0.73329 0.56121v0.2036a18.219 18.219 0 0 1 0.73329-0.57205zm1.9492 0.02791a17.28 17.28 0 0 0-0.73279 0.45992v0.17415a17.132 17.132 0 0 1 0.73279-0.46044zm-3.8995 0.05426a19.52 19.52 0 0 0-0.73226 0.65216v0.27751a19.327 19.327 0 0 1 0.73226-0.68161zm5.8492 0.0863a16.248 16.248 0 0 0-0.7333 0.36898v0.15813a16.108 16.108 0 0 1 0.7333-0.37466zm-7.799 0.08785a20.719 20.719 0 0 0-0.73223 0.76739v0.27234a20.54 20.54 0 0 1 0.73223-0.78652zm-0.3116 0.0315a21.167 21.167 0 0 0-0.42063 0.44803v9e-3a20.958 20.958 0 0 1 0.42063-0.45682zm-13.335 0.10904a31.802 31.802 0 0 0-0.73226 1.5275v0.79375a31.488 31.488 0 0 1 0.73226-1.6159zm19.496 0.0362a16.937 16.937 0 0 0-0.73279 0.46044v0.18138a16.79 16.79 0 0 1 0.73279-0.46819zm-1.9492 0.0108a18.012 18.012 0 0 0-0.73329 0.5855v0.22686a17.834 17.834 0 0 1 0.73329-0.59067zm-5.8492 5e-3a22.006 22.006 0 0 0-0.73279 0.89297v0.24805a21.846 21.846 0 0 1 0.73279-0.89349zm9.7482 0.0863a15.924 15.924 0 0 0-0.7333 0.3731v0.12868a15.808 15.808 0 0 1 0.66199-0.3452c0.0223-0.0233 0.0494-0.0431 0.0713-0.0667zm-5.8492 0.091a19.107 19.107 0 0 0-0.73226 0.68213v0.23254a18.942 18.942 0 0 1 0.73226-0.68678zm-5.8488 0.0103a23.405 23.405 0 0 0-0.73226 1.0072v0.36122a23.203 23.203 0 0 1 0.73226-1.0371zm-7.7985 0.046a29.942 29.942 0 0 0-0.73226 1.448v0.63149a29.683 29.683 0 0 1 0.73226-1.5172zm5.8488 0.10387a24.891 24.891 0 0 0-0.73226 1.124v0.48937a24.645 24.645 0 0 1 0.73226-1.1699zm11.698 0.047a16.599 16.599 0 0 0-0.73279 0.48008v0.20102a16.435 16.435 0 0 1 0.73279-0.49041zm-5.8493 7e-3a20.306 20.306 0 0 0-0.73223 0.81132v0.24856a20.146 20.146 0 0 1 0.73223-0.82941zm-9.7477 4e-3a28.153 28.153 0 0 0-0.73223 1.3586v0.72657a27.84 27.84 0 0 1 0.73223-1.4304zm13.648 0.0837a17.631 17.631 0 0 0-0.73329 0.60151v0.19896a17.479 17.479 0 0 1 0.73329-0.61237zm-11.698 0.0692a26.404 26.404 0 0 0-0.73226 1.2645v0.46509a26.176 26.176 0 0 1 0.73226-1.2986zm5.8488 0.0977a21.597 21.597 0 0 0-0.73279 0.92759v0.31471a21.41 21.41 0 0 1 0.73279-0.95343zm9.1958 0.046a15.629 15.629 0 0 0-0.18087 0.10128v0.0677c0.0649-0.053 0.11817-0.11441 0.18087-0.16898zm-5.2968 5e-3a18.726 18.726 0 0 0-0.73226 0.70849v0.19999a18.59 18.59 0 0 1 0.73226-0.72192zm3.8995 0.10181a16.248 16.248 0 0 0-0.73279 0.50178v0.17363a16.108 16.108 0 0 1 0.73279-0.51057zm-1.9492 0.11524a17.28 17.28 0 0 0-0.73329 0.62786v0.19483a17.132 17.132 0 0 1 0.73329-0.63097zm-3.9 0.045a19.917 19.917 0 0 0-0.73223 0.83922v0.27595a19.745 19.745 0 0 1 0.73223-0.85111zm-3.899 5e-3a22.939 22.939 0 0 0-0.73226 1.0656v0.43408a22.712 22.712 0 0 1 0.73226-1.1059zm-11.697 0.0388a33.106 33.106 0 0 0-0.73279 1.7932v0.81494a32.822 32.822 0 0 1 0.73279-1.897zm17.546 0.17312a18.378 18.378 0 0 0-0.73226 0.74414v0.23202a18.219 18.219 0 0 1 0.73226-0.76016zm3.8995 0.017a15.924 15.924 0 0 0-0.73279 0.51005v0.14262a15.808 15.808 0 0 1 0.73279-0.51831zm-11.698 0.0863a24.365 24.365 0 0 0-0.73226 1.2221v0.43046a24.154 24.154 0 0 1 0.73226-1.2552zm9.7488 0.0847a16.937 16.937 0 0 0-0.73329 0.63097v0.20257a16.79 16.79 0 0 1 0.73329-0.63975zm-17.547 0.12712a31.13 31.13 0 0 0-0.73226 1.7394v0.40618h0.13333a30.86 30.86 0 0 1 0.59893-1.4862zm1.9492 0.0346a29.346 29.346 0 0 0-0.73226 1.6082v0.50177h0.12094a29.056 29.056 0 0 1 0.61132-1.4159zm17.547 0.0171a15.629 15.629 0 0 0-0.64908 0.46509c0.22355-0.10376 0.44254-0.21051 0.64908-0.32557zm-5.8493 0.0155a19.52 19.52 0 0 0-0.73223 0.88005v0.31471a19.327 19.327 0 0 1 0.73223-0.90899zm-7.798 0.0305a25.878 25.878 0 0 0-0.73226 1.373v0.42943a25.69 25.69 0 0 1 0.73226-1.4196zm9.7477 0.0847a18.012 18.012 0 0 0-0.73226 0.78135v0.2589a17.834 17.834 0 0 1 0.73226-0.78652zm-3.899 0.0119a21.167 21.167 0 0 0-0.73279 0.98702v0.0713a20.958 20.958 0 0 1 0.73279-1.0154zm-7.7985 0.0336a27.523 27.523 0 0 0-0.73223 1.5126v0.59635a27.285 27.285 0 0 1 0.73223-1.5984zm5.8488 0.0827a22.454 22.454 0 0 0-0.73226 1.1513v0.36173a22.259 22.259 0 0 1 0.73226-1.1777zm7.799 9e-3a16.599 16.599 0 0 0-0.73329 0.65784v0.22893a16.435 16.435 0 0 1 0.73329-0.67283zm-5.8492 0.25011a20.719 20.719 0 0 0-0.73279 1.049v0.32557a20.54 20.54 0 0 1 0.73279-1.0795zm1.9492 0.12868a19.107 19.107 0 0 0-0.73223 0.92449v0.28422c2e-3 -1.9e-4 4e-3 -3.3e-4 6e-3 -5.2e-4a18.942 18.942 0 0 1 0.72604-0.94258zm-5.8487 0.0217a23.879 23.879 0 0 0-0.73226 1.3198v0.0703c0.0651-1e-3 0.13141-2e-3 0.1979-3e-3a23.674 23.674 0 0 1 0.53436-0.98133zm7.7985 0.014a17.631 17.631 0 0 0-0.73226 0.81442v0.12299c0.0382-6e-3 0.073-0.0146 0.11059-0.0212a17.479 17.479 0 0 1 0.62167-0.70332zm1.9503 0.0486a16.248 16.248 0 0 0-0.41394 0.37155c0.10006-0.0285 0.20071-0.0564 0.29765-0.0868a16.108 16.108 0 0 1 0.11629-0.10026zm-11.698 0.29042a25.397 25.397 0 0 0-0.73226 1.4986v0.57826a25.178 25.178 0 0 1 0.73226-1.5834zm3.899 0.0568a22.006 22.006 0 0 0-0.73226 1.2356v0.33486a21.846 21.846 0 0 1 0.73226-1.2723zm-11.697 0.0873a32.449 32.449 0 0 0-0.34157 0.92914h0.30022a32.168 32.168 0 0 1 0.0414-0.11317zm17.546 0.0165a17.28 17.28 0 0 0-0.30747 0.35708c0.0767-0.015 0.15583-0.0281 0.23201-0.0434a17.132 17.132 0 0 1 0.0755-0.0879zm-3.899 0.0196a20.306 20.306 0 0 0-0.73279 1.1167v0.32711a20.146 20.146 0 0 1 0.73279-1.1472zm1.9492 0.0506a18.726 18.726 0 0 0-0.44802 0.5762c0.0598-5e-3 0.11856-0.0114 0.17777-0.0171a18.59 18.59 0 0 1 0.27025-0.34209zm-9.7477 0.16485a26.975 26.975 0 0 0-0.73223 1.695v0.76895a26.708 26.708 0 0 1 0.73223-1.8433zm-1.9497 0.0429a28.725 28.725 0 0 0-0.47543 1.187v0.70383a28.477 28.477 0 0 1 0.47543-1.2289zm-1.9492 0.0476a30.509 30.509 0 0 0-0.22375 0.58601h0.22375zm7.798 0.0961a23.405 23.405 0 0 0-0.22998 0.44751c0.0767-1e-3 0.15531-2e-3 0.22945-3e-3a23.203 23.203 0 0 1 5.3e-4 0v-5.1e-4zm1.9497 0.25062a21.597 21.597 0 0 0-0.73226 1.3286v0.41444a21.41 21.41 0 0 1 0.73226-1.3953zm1.9498 0.061a19.917 19.917 0 0 0-0.73279 1.1974v0.35398a19.745 19.745 0 0 1 0.73279-1.2346zm-6.0157 0.5917a24.891 24.891 0 0 0-0.56533 1.3219v0.73432a24.645 24.645 0 0 1 0.56533-1.4299zm6.0157 0.1266a19.52 19.52 0 0 0-0.73279 1.2826v0.46096a19.327 19.327 0 0 1 0.73279-1.3498zm-7.7985 0.19431a26.404 26.404 0 0 0-0.7157 1.9317h0.24236a26.176 26.176 0 0 1 0.47334-1.3343zm-1.9497 0.17053a28.153 28.153 0 0 0-0.47543 1.3813v0.37982h0.20103a27.84 27.84 0 0 1 0.2744-0.82837zm7.7985 0.0899a21.167 21.167 0 0 0-0.73226 1.4635v0.20774h6e-3a20.958 20.958 0 0 1 0.72657-1.5224zm1.9498 0.3638a19.107 19.107 0 0 0-0.68112 1.3074h0.18553a18.942 18.942 0 0 1 0.49559-0.9803zm-1.9498 0.23409a20.719 20.719 0 0 0-0.50125 1.0733h0.19171a20.54 20.54 0 0 1 0.30954-0.65887zm-4.0659 0.15245a24.365 24.365 0 0 0-0.33848 0.92087h0.22376a24.154 24.154 0 0 1 0.11472-0.31832zm6.0157 0.40773a18.726 18.726 0 0 0-0.25683 0.51314h0.15295a18.59 18.59 0 0 1 0.10388-0.20774zm-7.7985 0.0574a25.878 25.878 0 0 0-0.15708 0.45578h0.15708zm5.8488 0.34106a20.306 20.306 0 0 0-0.0548 0.11472h0.0548z" fill="#ccc"/>
  </g>
  <g id="g31481" transform="translate(-75.219 55.75)" stroke-width="1.143">
   <path id="path31443" d="m105.77-49.949c-13.869 0-25.152 11.282-25.152 25.151 0 13.869 11.283 25.152 25.152 25.152 11.74 0 21.624-8.0865 24.382-18.981h-2.3647c-2.6995 9.62-11.547 16.695-22.018 16.695-12.608 0-22.865-10.258-22.865-22.866 0-12.608 10.257-22.865 22.865-22.865 6.1057 0 11.66 2.4059 15.765 6.319h3.161c-3e-3 -0.0035-6e-3 -0.0068-9e-3 -0.01033h3.2654v0.0062h65.876v-1.3601h-1.8929v-0.0062h-68.543c-4.542-4.4681-10.763-7.2347-17.622-7.2347z" fill="url(#linearGradient31445)"/>
   <path id="path31436" d="m106.05-49.937-0.43822 2.281c0.0393-2e-4 0.078-0.0031 0.11731-0.0031 0.21271 0 0.42325 0.0097 0.63458 0.0155l0.43719-2.2748c-0.24924-0.01053-0.49981-0.01543-0.75086-0.0186zm-1.2557 0.0155c-0.25535 0.0094-0.50937 0.02332-0.76275 0.04031l-0.447 2.326c0.25428-0.02378 0.50977-0.04305 0.76637-0.0584zm3.2437 0.0863-0.43408 2.2588c0.24821 0.02026 0.49511 0.04419 0.74104 0.07235l0.43201-2.2495c-0.24558-0.02988-0.49127-0.05894-0.73897-0.08165zm-5.2818 0.07183c-0.25875 0.03063-0.51781 0.06025-0.77411 0.0987l-0.46147 2.4004c0.25949-0.0485 0.51888-0.09732 0.78134-0.13694zm7.2394 0.18862-0.43098 2.2443c0.24413 0.04143 0.48822 0.08264 0.72967 0.13178l0.4315-2.2464c-0.24142-0.04897-0.48632-0.08775-0.73019-0.12971zm-9.31 0.13798c-0.26554 0.05426-0.52715 0.11932-0.78961 0.1819l-0.47801 2.4887c0.26377-0.07589 0.52827-0.14948 0.79582-0.21601zm11.24 0.26613-0.43253 2.2521c0.23995 0.06257 0.47939 0.12728 0.71623 0.1974l0.43253-2.2484c-0.23829-0.06839-0.47512-0.13957-0.71623-0.20102zm-13.35 0.26768c-0.27022 0.08031-0.53773 0.16619-0.80409 0.25528l-0.50333 2.6179c0.26956-0.10779 0.54047-0.21236 0.81494-0.31006zm15.248 0.30437-0.43409 2.2603c0.2369 0.08448 0.47008 0.1767 0.70332 0.26872l0.4377-2.2779c-0.23372-0.0878-0.46998-0.17018-0.70693-0.25115zm-17.399 0.44493c-0.27609 0.11037-0.54994 0.2249-0.82114 0.34468l-0.53795 2.7978c0.27614-0.14626 0.55398-0.28914 0.83664-0.42426zm19.269 0.27698-0.44183 2.2981c0.233 0.10716 0.46167 0.2212 0.6904 0.3359l0.44648-2.3223c-0.22943-0.10802-0.46191-0.21039-0.69505-0.31161zm-21.469 0.72916c-0.28389 0.14672-0.56483 0.29766-0.84232 0.45475l-0.58756 3.0587c0.28299-0.19492 0.57102-0.38303 0.86299-0.56534zm23.308 0.15503-0.4532 2.358c0.22819 0.13104 0.45222 0.2681 0.67541 0.40669l0.45785-2.3807c-0.22549-0.12973-0.45026-0.26108-0.68006-0.38396zm1.8025 1.0676-0.46767 2.4309c0.22376 0.15765 0.44317 0.3209 0.66094 0.48628l0.47439-2.4691c-0.22029-0.15266-0.44236-0.30229-0.66766-0.44804zm-27.372 0.09819c-0.29462 0.1935-0.58436 0.39357-0.87023 0.59893l-0.66507 3.4608c0.294-0.26534 0.59579-0.52152 0.9033-0.77153zm29.138 1.156-0.4873 2.5352c0.21879 0.18804 0.43186 0.38222 0.64337 0.57826l0.49816-2.5916c-0.21463-0.17813-0.43371-0.35086-0.65423-0.52193zm-31.48 0.57981c-0.30879 0.2582-0.61146 0.52337-0.90744 0.79582l-0.8077 4.2039c0.31305-0.38951 0.63567-0.7704 0.97306-1.1384zm33.206 0.88677-0.35812 1.864h0.75396l0.26303-1.3705h-0.13281c-0.17138-0.1686-0.34995-0.32981-0.52606-0.49351zm1.9125 0.49351-0.26303 1.3705h0.18035c-3e-3 -0.0035-6e-3 -0.0069-9e-3 -0.01034h0.58447l0.26148-1.3601zm2.0076 0-0.26148 1.3601h0.75447l0.26149-1.3601zm2.0076 0-0.26252 1.3663h0.75395l0.26252-1.3663zm2.0076 0-0.26252 1.3663h0.75448l0.26252-1.3663zm2.0076 0-0.26252 1.3663h0.75448l0.26252-1.3663zm2.0082 0-0.26304 1.3663h0.75499l0.26252-1.3663zm2.0071 0-0.26252 1.3663h0.75499l0.26252-1.3663zm2.0076 0-0.26252 1.3663h0.75499l0.26252-1.3663zm2.0081 0-0.26249 1.3663h0.75446l0.26252-1.3663zm2.0071 0-0.26252 1.3663h0.75499l0.26252-1.3663zm2.0081 0-0.26303 1.3663h0.75499l0.26303-1.3663zm2.0076 0-0.26252 1.3663h0.75448l0.26252-1.3663zm2.0071 0-0.26252 1.3663h0.75499l0.26252-1.3663zm2.0081 0-0.26252 1.3663h0.75499l0.26251-1.3663zm2.0076 0-0.26252 1.3663h0.75449l0.26249-1.3663zm2.0076 0-0.26305 1.3663h0.75551l0.26252-1.3663zm2.0076 0-0.26252 1.3663h0.75499l0.26252-1.3663zm2.0081 0-0.26252 1.3663h0.75396l0.26252-1.3663zm2.0082 0-0.26305 1.3663h0.75449l0.26252-1.3663zm2.0071 0-0.26252 1.3663h0.75448l0.26252-1.3663zm2.0081 0-0.26252 1.3663h0.75346l0.26302-1.3663zm2.0076 0-0.26252 1.3663h0.75396l0.26252-1.3663zm2.0071 0-0.26252 1.3663h0.75446l0.26252-1.3663zm2.0081 0-0.26252 1.3663h0.75395l0.26252-1.3663zm2.0076 0-0.26252 1.3663h0.75396l0.26252-1.3663zm2.0076 0-0.26305 1.3663h0.75449l0.26305-1.3663zm2.0076 0-0.26252 1.3663h0.755l0.26252-1.3663zm2.0071 0-0.26252 1.3663h0.75499l0.26252-1.3663zm2.0082 0-0.26252 1.3663h0.75498l0.26252-1.3663zm2.0076 0-0.26252 1.3663h0.75446l0.26252-1.3663zm2.0076 0-0.26301 1.3663h0.75499l0.26305-1.3663zm2.0076 0-0.26252 1.3663h0.75502l0.26249-1.3663zm2.0076 0-0.26252 1.3663h0.75448l0.26252-1.3663zm2.0076 0-0.26252 1.3663h0.755l0.26252-1.3663zm2.0066 0.0062-0.26148 1.3601h0.75499l0.26149-1.3601zm-105.84 0.96532c-0.33574 0.36758-0.65828 0.74676-0.97204 1.1338l-1.1865 6.1748c0.35494-0.76038 0.74587-1.5005 1.1793-2.2128zm-2.6841 3.5197c-0.40817 0.64384-0.78682 1.3075-1.1364 1.989l-2.6489 13.782c0.0713 0.76701 0.17947 1.5229 0.31833 2.2686zm-1.5736 14.71-1.1901 6.1929c0.14717 0.47172 0.31197 0.93533 0.48576 1.3947l0.98134-5.1072c-0.13539-0.81362-0.23025-1.6405-0.27699-2.4805zm45.238 4.8865-1.494 7.7727c0.39128-0.58524 0.75908-1.1872 1.1012-1.8056l1.1467-5.9671zm-44.271 0.53123-0.80667 4.1946c0.17456 0.36171 0.35766 0.71834 0.5488 1.0702l0.74207-3.8613c-0.1755-0.4613-0.33831-0.92859-0.4842-1.4035zm1.3544 3.3988-0.66404 3.4541c0.18987 0.29551 0.38533 0.58694 0.58705 0.87385l0.63045-3.2799c-0.19303-0.34411-0.378-0.69324-0.55346-1.048zm40.842 0.34158c-0.34366 0.6667-0.72229 1.3122-1.1276 1.9389l-0.93689 4.8767c0.32873-0.34798 0.65093-0.70242 0.95963-1.0687zm-39.336 2.2639-0.58601 3.0494c0.19977 0.24784 0.40508 0.49071 0.61391 0.7307l0.56534-2.9399c-0.20348-0.27576-0.40203-0.55527-0.59324-0.84026zm36.514 1.9689c-0.31 0.36946-0.62937 0.73043-0.9617 1.0795l-0.72451 3.7708c0.30681-0.24928 0.60714-0.50628 0.90175-0.76946zm-34.912 0.13901-0.53795 2.7972c0.20762 0.2114 0.42071 0.41714 0.63562 0.62115l0.52244-2.7177c-0.21192-0.229-0.41757-0.46322-0.62011-0.70073zm1.6697 1.7596-0.50333 2.619c0.21413 0.18136 0.432 0.35801 0.65216 0.53227l0.49299-2.5632c-0.21791-0.19179-0.43136-0.38826-0.64182-0.58808zm30.745 0.64751c-0.29318 0.25607-0.5921 0.50564-0.89813 0.74672l-0.62271 3.2406c0.29278-0.18705 0.5812-0.3801 0.86559-0.57878zm-29.023 0.83457-0.47852 2.4893c0.22005 0.15558 0.44148 0.30924 0.66663 0.45785l0.4713-2.4531c-0.22292-0.16082-0.4426-0.32548-0.65941-0.49403zm26.668 0.96945c-0.28241 0.18864-0.56835 0.37207-0.85938 0.54829l-0.56224 2.9228c0.28328-0.14218 0.56266-0.29093 0.83974-0.44338zm-24.9 0.27595-0.46095 2.3973c0.22544 0.13243 0.45023 0.26565 0.68006 0.39119l0.45631-2.374c-0.22786-0.13414-0.45268-0.27273-0.67542-0.41445zm1.8081 1.0377-0.44907 2.3368c0.22858 0.11008 0.46221 0.2114 0.69454 0.31471l0.4439-2.3079c-0.23255-0.10995-0.46118-0.22616-0.68937-0.34365zm20.828 0.01654c-0.27416 0.14068-0.55158 0.27588-0.83199 0.40566l-0.51935 2.7027c0.2752-0.10653 0.54758-0.21849 0.81804-0.33435zm-18.983 0.83251-0.43873 2.2841c0.23334 0.09 0.46772 0.17728 0.70435 0.26045l0.43563-2.2676c-0.23637-0.08708-0.4686-0.18238-0.70125-0.27698zm16.787 0.15348c-0.26823 0.10348-0.53834 0.20309-0.81132 0.29662l-0.48937 2.5456c0.26879-0.07686 0.53593-0.15736 0.80098-0.24288zm-14.909 0.51935-0.43305 2.2531c0.23757 0.07045 0.4753 0.14057 0.71572 0.20412l0.43305-2.2536c-0.23971-0.06516-0.47918-0.1309-0.71572-0.2036zm12.766 0.185c-0.26276 0.07233-0.52733 0.14001-0.79375 0.20309l-0.4687 2.4386c0.26334-0.0511 0.52563-0.10506 0.786-0.16433zm-10.853 0.31109-0.4315 2.2459c0.241 0.05112 0.48464 0.09486 0.72811 0.13901l0.4315-2.2448c-0.24372-0.04394-0.48713-0.08842-0.72811-0.14004zm8.754 0.16381c-0.25746 0.04516-0.51689 0.08345-0.77721 0.11989l-0.4532 2.3585c0.25837-0.02804 0.51605-0.05821 0.77205-0.09405zm-6.8089 0.16123-0.43202 2.249c0.2453 0.03211 0.48947 0.06806 0.73691 0.09302l0.43407-2.2593c-0.24776-0.02278-0.49354-0.05203-0.73897-0.08268zm4.7501 0.1049c-0.25346 0.02098-0.50859 0.03545-0.7643 0.04806l-0.44235 2.3022c0.2547-7e-3 0.50842-0.017 0.7612-0.03152zm-2.7735 0.05684-0.43718 2.2748c0.2489 0.01282 0.50063 0.01414 0.75137 0.01964l0.43719-2.2753c-0.25175-0.0013-0.50161-0.0097-0.75139-0.01912z" fill="#f2f2f2"/>
  </g>
 </g>
</svg>
