<svg width="119mm" height="62mm" viewBox="0 0 119 62" xmlns="http://www.w3.org/2000/svg" xmlns:xlink="http://www.w3.org/1999/xlink"><defs><linearGradient id="f" gradientUnits="userSpaceOnUse" gradientTransform="matrix(1.12958 0 0 .80557 -13.761 6.501)" x1="41.5" y1="3.25" x2="41.5" y2="61.803" spreadMethod="reflect" xlink:href="#a"/><linearGradient id="a" x1="41.5" x2="41.5" y1="3.25" y2="61.803" gradientUnits="userSpaceOnUse" spreadMethod="reflect" gradientTransform="matrix(8 0 0 8 115.586 581.96)"><stop offset="0" stop-color="#1a6dff"/><stop offset="1" stop-color="#c822ff"/></linearGradient><linearGradient id="e" gradientUnits="userSpaceOnUse" gradientTransform="translate(-23.336 -21.206) scale(4.32102)" x1="31.877" y1="5.753" x2="32.127" y2="59.003" spreadMethod="reflect" xlink:href="#b"/><linearGradient id="b" x1="31.877" x2="32.127" y1="5.753" y2="59.003" gradientUnits="userSpaceOnUse" spreadMethod="reflect" gradientTransform="translate(347.96 191.245) scale(1.14327)"><stop offset="0" stop-color="#1a6dff"/><stop offset="1" stop-color="#c822ff"/></linearGradient><linearGradient id="c" x1="32" x2="32" y1="10" y2="53.546" gradientUnits="userSpaceOnUse" spreadMethod="reflect" gradientTransform="translate(347.96 191.245) scale(1.14327)"><stop offset="0" stop-color="#6dc7ff"/><stop offset="1" stop-color="#e6abff"/></linearGradient><linearGradient id="g" x1="130.081" y1="-24.153" x2="157.493" y2="-24.153" gradientUnits="userSpaceOnUse" spreadMethod="pad" gradientTransform="translate(0 -.38)" xlink:href="#a"/><linearGradient id="h" gradientUnits="userSpaceOnUse" x1="19.875" y1="117.067" x2="447.756" y2="117.067" spreadMethod="pad" gradientTransform="matrix(.26458 0 0 .26458 75.356 -55.77)" xlink:href="#c"/><linearGradient id="d" x1="45.731" y1="25.76" x2="117.005" y2="25.76" gradientUnits="userSpaceOnUse" spreadMethod="pad" xlink:href="#b"/></defs><g transform="translate(1.374 .309)" style="fill-opacity:1;fill:url(#d);opacity:1"><path style="fill:url(#d);fill-opacity:1;stroke-width:0;stroke-opacity:0;stroke:url(#gradient-5);paint-order:stroke;filter:url(#contrast-filter-0);mix-blend-mode:darken" d="M192.452 131.014c-8.602-1.87-14.688-6.757-17.701-14.209-1.474-3.645-1.524-4.49-1.715-28.859l-.196-25.104h16.595l.211 23.774.211 23.774 1.663 3.325c2.271 4.542 4.785 5.79 11.105 5.51 5.579-.248 7.776-1.487 9.842-5.553 1.245-2.449 1.344-4.168 1.541-26.723l.211-24.107h17.2l-.004 19.784c-.008 29.002-1.096 35.31-7.178 41.62-6.319 6.556-19.682 9.401-31.784 6.768z" transform="scale(.26458)"/><path style="fill:url(#d);fill-opacity:1;stroke-width:0;stroke-opacity:0;stroke:url(#gradient-4);paint-order:stroke;filter:url(#contrast-filter-0);mix-blend-mode:darken" d="M266 116.484v-14.188l-9.404-14.24c-5.172-7.833-11-16.71-12.952-19.727l-3.55-5.487h18.359l7.597 11.961c4.179 6.579 7.873 11.874 8.21 11.766.337-.107 3.954-5.415 8.037-11.795l7.424-11.599 9.087-.185c4.998-.102 9.087-.008 9.087.208 0 .215-5.686 9.025-12.635 19.577l-12.635 19.185v28.712H266z" transform="scale(.26458)"/><path style="fill:url(#d);fill-opacity:1;stroke-width:0;stroke-opacity:0;stroke:url(#gradient-6);paint-order:stroke;filter:url(#contrast-filter-0);mix-blend-mode:darken" d="M317.205 96.757V62.842h47.215v12.635H334.495v13.3h27.93v12.635h-27.93v16.625h30.59v12.635h-47.88z" transform="scale(.26458)"/><path style="fill:url(#d);fill-opacity:1;stroke-width:0;stroke-opacity:0;stroke:url(#gradient-7);paint-order:stroke;filter:url(#contrast-filter-0);mix-blend-mode:darken" d="M381.71 96.703V62.734l18.786.248c17.785.234 18.994.33 22.686 1.793 5.126 2.03 8.696 5.634 10.029 10.122 2.834 9.542-.569 18.288-8.653 22.244l-3.674 1.797 2.561 1.147c4.09 1.831 7.235 6.2 13.199 18.343 3.07 6.25 5.58 11.561 5.58 11.804 0 .242-3.98.44-8.846.44h-8.847l-4.727-9.854c-6.874-14.33-8.738-16.08-17.125-16.08h-4.344v25.934H381.71zm33.038-6.08c1.508-1.51 1.848-2.504 2.044-5.984.434-7.707-2.35-9.816-12.97-9.823l-5.487-.004v18.073l7.301-.225c6.92-.213 7.396-.32 9.112-2.036z" transform="scale(.26458)"/></g><path style="fill:#b3b3b3;fill-opacity:.71773684;stroke-width:0;stroke-opacity:0" d="M62.663 48.383v-7.465h3.943c2.17 0 4.444.03 5.055.066 2.51.149 4.026.61 4.988 1.519.73.687 1.006 1.39 1.006 2.55 0 .775-.167 1.381-.534 1.934-.503.757-1.52 1.402-2.748 1.744-.214.059-.388.124-.388.145 0 .02.147.071.326.113.482.113 1.143.46 1.608.845.602.498 1.109 1.169 2.404 3.183l1.49 2.317.331.513h-5.273l-1.28-2.006c-1.432-2.244-1.718-2.629-2.254-3.035-.63-.477-1.02-.572-2.5-.605l-1.26-.029V55.847h-4.914Zm8.613-.963c.53-.151.798-.304 1.046-.593.566-.661.513-1.969-.103-2.537-.516-.475-1.368-.634-3.413-.635h-1.229v3.932l1.665-.03c1.311-.024 1.742-.053 2.034-.137zM83.191 48.383v-7.465h13.5V43.779h-8.523V46.64H96.193v2.862H88.168v3.484h8.833V55.847h-13.81zM102.682 52.457a2809.52 2809.52 0 0 1 3.28-3.712l.48-.539-3.187-3.566-3.187-3.567 2.354-.074 2.355-.073.871.944c.48.52 1.493 1.65 2.253 2.51l1.381 1.566 2.18-2.498 2.18-2.5h2.348c1.292 0 2.348.066 2.348.145 0 .08-1.4 1.716-3.11 3.637l-3.11 3.493 1.226 1.401c.675.771 2.121 2.41 3.214 3.642l1.988 2.24-2.353.07-2.353.072-1.297-1.439a288.176 288.176 0 0 0-2.307-2.528l-1.011-1.09-2.218 2.52-2.218 2.519h-4.907z"/><path style="fill:url(#e);stroke-width:4.32102" d="M114.938 4.719C52.986 4.719 2.591 55.114 2.591 117.064c0 61.951 50.395 112.348 112.346 112.348 53.955 0 99.138-38.229 109.904-89.023h-8.858c-10.611 45.986-51.885 80.38-101.047 80.38-57.18 0-103.705-46.524-103.705-103.705 0-57.18 46.525-103.703 103.706-103.703 33.654 0 63.582 16.146 82.54 41.067h10.626c-20.2-29.948-54.402-49.71-93.167-49.71z" transform="scale(.26458)"/><path style="fill:url(#f);stroke-width:.953919" d="M53.036 37.146v1.36h65.433v-1.36z"/><path style="fill:url(#g);fill-opacity:1;stroke-width:0;stroke-opacity:0" d="M135.424-43.926v2.691h-5.343v33.43l5.343-.003v2.667h4.208v-2.682c.745-.007 1.45-.019 2.142-.03v2.712h4.208v-2.833l.11-.005c7.588-.494 11.064-3.182 11.38-8.8.158-2.818-.566-4.996-2.254-6.781-.776-.821-2.73-2.016-3.297-2.016-.415 0-.173-.29.421-.505 1.03-.373 2.604-1.975 3.163-3.221.58-1.294.788-3.663.459-5.247-.814-3.915-3.758-5.905-9.6-6.493-.077-.008-.274-.015-.382-.022v-2.862h-4.208v2.73c-.692-.011-1.388-.02-2.142-.027v-2.703zm3.102 8.476 3.387.054c2.907.047 3.483.103 4.063.39.964.48 1.575 1.484 1.666 2.741.124 1.719-.446 2.858-1.786 3.567-.663.35-1.042.393-4.03.451l-3.3.065v-3.634zm0 12.825 3.564.088c4.006.1 4.528.213 5.686 1.232.967.85 1.4 2.115 1.258 3.676-.19 2.094-1.324 3.403-3.32 3.83-.479.103-2.292.188-4.03.188h-3.158v-4.508z" transform="translate(-112.042 54.511)"/><path style="fill:#ccc;fill-opacity:1;stroke-width:0;stroke-opacity:0" d="M134.905-43.925v.292a53.799 53.799 0 0 1 .475-.28v-.012zm1.795 0a53.187 53.187 0 0 0-.102.054v.523a52.727 52.727 0 0 1 .732-.39v-.187zm2.335 0a52.127 52.127 0 0 0-.488.232v.585a51.612 51.612 0 0 1 .566-.28v-.537zm3.411 0v.153a50.583 50.583 0 0 1 .394-.153zm1.986 0a50.008 50.008 0 0 0-.036.014v.391a49.643 49.643 0 0 1 .732-.266v-.14zm-1.253.487a50.008 50.008 0 0 0-.733.292v.398a49.643 49.643 0 0 1 .733-.299zm-7.799.236a53.187 53.187 0 0 0-.475.28v.534a52.727 52.727 0 0 1 .475-.279zm9.748.02a49.078 49.078 0 0 0-.732.26v.457a48.654 48.654 0 0 1 .732-.268zm-7.798.12a52.127 52.127 0 0 0-.732.39v.597a51.612 51.612 0 0 1 .732-.402zm1.783.33a51.024 51.024 0 0 0-.566.278v.489a50.583 50.583 0 0 1 .566-.279zm4.066.298a49.078 49.078 0 0 0-.733.294v.466a48.654 48.654 0 0 1 .733-.303zm1.95.287a48.1 48.1 0 0 0-.733.278v.513a47.625 47.625 0 0 1 .732-.286zm-9.749.173a52.127 52.127 0 0 0-.475.279v.46h-.257v.304a51.612 51.612 0 0 1 .732-.444zm1.95.167a51.024 51.024 0 0 0-.732.401v.5a50.583 50.583 0 0 1 .732-.401zm1.783.206a50.008 50.008 0 0 0-.566.284v.416a49.643 49.643 0 0 1 .623-.321h-.057zm4.066.22a48.1 48.1 0 0 0-.733.314v.523a47.625 47.625 0 0 1 .733-.323zm-12.43.146v.255a53.799 53.799 0 0 1 .36-.255zm1.95 0v.223a52.727 52.727 0 0 1 .345-.223zm7.798.03v.423a48.654 48.654 0 0 1 .732-.34v-.074c-.237-.004-.493-.006-.732-.009zm4.631.14a47.083 47.083 0 0 0-.732.294v.438a46.676 46.676 0 0 1 .732-.294zm-11.697.29a52.127 52.127 0 0 0-.732.474v.633a51.612 51.612 0 0 1 .732-.49zm13.647.012a46.145 46.145 0 0 0-.733.263v.42a45.75 45.75 0 0 1 .733-.265zm-15.597.016a53.187 53.187 0 0 0-.733.518v.566a52.727 52.727 0 0 1 .733-.518zm3.9.058a51.024 51.024 0 0 0-.733.444v.513a50.583 50.583 0 0 1 .732-.444zm1.949.04a50.008 50.008 0 0 0-.732.41v.425a49.643 49.643 0 0 1 .732-.419zm1.95.01a49.078 49.078 0 0 0-.733.374v.482a48.654 48.654 0 0 1 .733-.38zm1.949.125a48.1 48.1 0 0 0-.732.353v.535a47.625 47.625 0 0 1 .732-.364zm7.798.105a45.229 45.229 0 0 0-.732.226v.41a44.837 44.837 0 0 1 .732-.227zm-5.848.129a47.083 47.083 0 0 0-.733.333v.446a46.676 46.676 0 0 1 .733-.333zm1.95.22a46.145 46.145 0 0 0-.733.3v.427a45.75 45.75 0 0 1 .732-.304zm5.638.113a44.327 44.327 0 0 0-.523.136v.454a43.89 43.89 0 0 1 .734-.19v-.32c-.068-.028-.142-.052-.21-.08zm-3.69.156a45.229 45.229 0 0 0-.732.264v.416a44.837 44.837 0 0 1 .733-.264zm-9.747.212a49.078 49.078 0 0 0-.732.416v.498a48.654 48.654 0 0 1 .732-.427zm1.95.038a48.1 48.1 0 0 0-.733.395v.548a47.625 47.625 0 0 1 .733-.408zm-3.9.04a50.008 50.008 0 0 0-.732.458v.438a49.643 49.643 0 0 1 .732-.47zm13.647.034a44.327 44.327 0 0 0-.732.227v.46a43.89 43.89 0 0 1 .732-.227zm-15.596.015a51.024 51.024 0 0 0-.732.489v.528a50.583 50.583 0 0 1 .732-.49zm-1.95.002a52.127 52.127 0 0 0-.733.518v.656a51.612 51.612 0 0 1 .733-.537zm9.748.06a47.083 47.083 0 0 0-.732.373v.455a46.676 46.676 0 0 1 .732-.373zm1.95.134a46.145 46.145 0 0 0-.733.338v.436a45.75 45.75 0 0 1 .733-.344zm9.015.008v.308a43.015 43.015 0 0 1 .341-.075c-.114-.077-.22-.16-.34-.233zm-7.066.175a45.229 45.229 0 0 0-.732.303v.423a44.837 44.837 0 0 1 .732-.303zm5.85.038a43.39 43.39 0 0 0-.734.197v.39a43.015 43.015 0 0 1 .734-.197zm-3.9.2a44.327 44.327 0 0 0-.733.265v.468a43.89 43.89 0 0 1 .733-.265zm5.849.234a42.525 42.525 0 0 0-.733.16v.32a42.215 42.215 0 0 1 .733-.16zm-3.9.113a43.39 43.39 0 0 0-.732.234v.396a43.015 43.015 0 0 1 .732-.235zm-11.697.033a48.1 48.1 0 0 0-.732.443v.563a47.625 47.625 0 0 1 .732-.458zm-1.95.054a49.078 49.078 0 0 0-.732.462v.517a48.654 48.654 0 0 1 .732-.478zm3.9.012a47.083 47.083 0 0 0-.733.415v.467a46.676 46.676 0 0 1 .733-.416zm1.949.043a46.145 46.145 0 0 0-.732.381v.446a45.75 45.75 0 0 1 .732-.386zm1.95.095a45.229 45.229 0 0 0-.733.344v.432a44.837 44.837 0 0 1 .733-.343zm-9.748.021a50.008 50.008 0 0 0-.732.512v.451a49.643 49.643 0 0 1 .732-.525zm17.547.09a42.525 42.525 0 0 0-.734.196v.324a42.215 42.215 0 0 1 .734-.197zm-5.85.04a44.327 44.327 0 0 0-.732.304v.476a43.89 43.89 0 0 1 .732-.303zm-13.647.015a51.024 51.024 0 0 0-.733.537v.556a50.583 50.583 0 0 1 .733-.55zm15.597.245a43.39 43.39 0 0 0-.733.273v.402a43.015 43.015 0 0 1 .733-.273zm5.849.047a41.735 41.735 0 0 0-.733.16v.369a41.374 41.374 0 0 1 .733-.16zm-3.9.213a42.525 42.525 0 0 0-.732.234v.327a42.215 42.215 0 0 1 .732-.234zm1.95.257a41.735 41.735 0 0 0-.733.197v.373a41.374 41.374 0 0 1 .734-.197zm-11.697 0a46.145 46.145 0 0 0-.733.43v.457a45.75 45.75 0 0 1 .733-.43zm1.949.007a45.229 45.229 0 0 0-.732.386v.442a44.837 44.837 0 0 1 .732-.386zm-3.9.048a47.083 47.083 0 0 0-.731.46v.48a46.676 46.676 0 0 1 .732-.46zm5.85.012a44.327 44.327 0 0 0-.733.344v.485a43.89 43.89 0 0 1 .733-.344zm-7.799.01a48.1 48.1 0 0 0-.732.497v.58a47.625 47.625 0 0 1 .732-.507zm18.96.02a40.903 40.903 0 0 0-.197.034v.407a40.5 40.5 0 0 1 .433-.075c-.073-.127-.155-.246-.236-.367zm-20.91.13a49.078 49.078 0 0 0-.731.52v.534a48.654 48.654 0 0 1 .732-.537zm11.698.009a43.39 43.39 0 0 0-.732.314v.41a43.015 43.015 0 0 1 .732-.314zm7.799.147a40.903 40.903 0 0 0-.733.165v.411a40.5 40.5 0 0 1 .733-.164zm-5.85.022a42.525 42.525 0 0 0-.732.273v.334a42.215 42.215 0 0 1 .733-.274zm-15.596.092a50.008 50.008 0 0 0-.733.575v.466a49.643 49.643 0 0 1 .733-.587zm17.546.074a41.735 41.735 0 0 0-.732.234v.379a41.374 41.374 0 0 1 .732-.234zm1.95.292a40.903 40.903 0 0 0-.733.203v.417a40.5 40.5 0 0 1 .734-.203zm3.823.03a40.038 40.038 0 0 0-.657.113v.352a39.692 39.692 0 0 1 .734-.127v-.193c-.024-.05-.053-.096-.077-.146zm-13.571.132a44.327 44.327 0 0 0-.732.386v.496a43.89 43.89 0 0 1 .732-.386zm-1.95.036a45.229 45.229 0 0 0-.732.43v.391l.104.002a44.837 44.837 0 0 1 .629-.37zm3.9.04a43.39 43.39 0 0 0-.733.356v.418a43.015 43.015 0 0 1 .733-.355zm-5.85.051a46.145 46.145 0 0 0-.731.478v.47a45.75 45.75 0 0 1 .732-.477zm7.8.024a42.525 42.525 0 0 0-.733.314v.34a42.215 42.215 0 0 1 .732-.315zm1.949.072a41.735 41.735 0 0 0-.733.273v.385a41.374 41.374 0 0 1 .733-.273zm5.849.02a40.038 40.038 0 0 0-.733.164v.356a39.692 39.692 0 0 1 .733-.165zm-17.547.04a47.083 47.083 0 0 0-.732.506v.494a46.676 46.676 0 0 1 .732-.508zm-1.95.11a48.1 48.1 0 0 0-.731.558v.6a47.625 47.625 0 0 1 .732-.558zm15.597.03a40.903 40.903 0 0 0-.732.241v.423a40.5 40.5 0 0 1 .732-.242zm-17.546.227a49.078 49.078 0 0 0-.733.585v.553a48.654 48.654 0 0 1 .733-.606zm23.396.014a39.24 39.24 0 0 0-.734.127v.657a38.597 38.597 0 0 1 .734-.13zm-3.9.07a40.038 40.038 0 0 0-.733.202v.36a39.692 39.692 0 0 1 .734-.202zm-5.849.276a41.735 41.735 0 0 0-.244.105c.074.017.181.027.244.047zm7.799.05a39.24 39.24 0 0 0-.733.165v.668a38.597 38.597 0 0 1 .733-.172zm-5.85.054a40.903 40.903 0 0 0-.732.283v.43a40.5 40.5 0 0 1 .733-.282zm-9.747.105a45.229 45.229 0 0 0-.732.477v.467a44.837 44.837 0 0 1 .732-.477zm11.697.112a40.038 40.038 0 0 0-.732.242v.369a39.692 39.692 0 0 1 .732-.245zm-13.647.085a46.145 46.145 0 0 0-.732.527v.485a45.75 45.75 0 0 1 .732-.526zm15.598.145a39.24 39.24 0 0 0-.734.208v.68a38.597 38.597 0 0 1 .734-.219zm-17.547.114a47.083 47.083 0 0 0-.732.557v.51a46.676 46.676 0 0 1 .732-.557zm21.446.091a38.158 38.158 0 0 0-.734.132v.333a37.828 37.828 0 0 1 .734-.131zm-23.396.131a48.1 48.1 0 0 0-.733.612v.62a47.625 47.625 0 0 1 .733-.611zm15.597.142a40.038 40.038 0 0 0-.55.213c.064.096.124.197.179.302a39.692 39.692 0 0 1 .37-.143zm1.95.132a39.24 39.24 0 0 0-.733.254v.691a38.597 38.597 0 0 1 .732-.265zm3.899.004a38.158 38.158 0 0 0-.733.17v.34a37.828 37.828 0 0 1 .733-.174zm-15.597.119a44.327 44.327 0 0 0-.732.482v.542a43.89 43.89 0 0 1 .732-.5zm17.547.245a37.398 37.398 0 0 0-.734.134v.379a37.028 37.028 0 0 1 .734-.138zm-19.497.004a45.229 45.229 0 0 0-.732.527v.486a44.837 44.837 0 0 1 .732-.531zm15.598.148a38.158 38.158 0 0 0-.734.213v.346a37.828 37.828 0 0 1 .734-.218zm-17.547.163a46.145 46.145 0 0 0-.732.58v.503a45.75 45.75 0 0 1 .732-.58zm13.647.04a39.24 39.24 0 0 0-.19.074c.072.198.131.406.17.626a38.597 38.597 0 0 1 .02-.008zm5.849.06a37.398 37.398 0 0 0-.733.18v.384a37.028 37.028 0 0 1 .733-.184zm-21.446.271a47.083 47.083 0 0 0-.733.612v.55a46.676 46.676 0 0 1 .733-.634zm17.546.095a38.158 38.158 0 0 0-.732.261v.353a37.828 37.828 0 0 1 .732-.268zm5.85.02a36.607 36.607 0 0 0-.734.143v.326a36.29 36.29 0 0 1 .734-.146zm-17.547.084a43.39 43.39 0 0 0-.732.495v.468a43.015 43.015 0 0 1 .732-.509zm13.648.058a37.398 37.398 0 0 0-.734.226v.39a37.028 37.028 0 0 1 .734-.232zm-15.598.17a44.327 44.327 0 0 0-.732.553v.561a43.89 43.89 0 0 1 .732-.572zm17.547.114a36.607 36.607 0 0 0-.733.189v.33a36.29 36.29 0 0 1 .733-.194zm-19.496.255a45.229 45.229 0 0 0-.732.59v.519a44.837 44.837 0 0 1 .732-.61zm21.446.066a35.877 35.877 0 0 0-.734.143v.264a35.616 35.616 0 0 1 .734-.145zm-5.85.037a37.398 37.398 0 0 0-.732.276v.397a37.028 37.028 0 0 1 .732-.283zm1.95.18a36.607 36.607 0 0 0-.733.238v.335a36.29 36.29 0 0 1 .734-.244zm-19.496.154a46.145 46.145 0 0 0-.733.637v.537a45.75 45.75 0 0 1 .733-.65zm5.849.01a42.525 42.525 0 0 0-.732.53v.387a42.215 42.215 0 0 1 .732-.541zm15.597.053a35.877 35.877 0 0 0-.733.19v.269a35.616 35.616 0 0 1 .733-.194zm1.95.24a35.21 35.21 0 0 0-.734.15v.318a34.906 34.906 0 0 1 .734-.154zm-19.497.067a43.39 43.39 0 0 0-.732.568v.488a43.015 43.015 0 0 1 .732-.586zm13.647.13a36.607 36.607 0 0 0-.732.291v.342a36.29 36.29 0 0 1 .732-.292zm1.95.113a35.877 35.877 0 0 0-.733.24v.274a35.616 35.616 0 0 1 .734-.245zm-17.546.099a44.327 44.327 0 0 0-.732.635v.582a43.89 43.89 0 0 1 .732-.637zm19.496.033a35.21 35.21 0 0 0-.733.2v.322a34.906 34.906 0 0 1 .733-.204zm-5.85.04c-.002.017-.007.032-.01.048a37.028 37.028 0 0 1 .01-.005zm-9.747.192a41.735 41.735 0 0 0-.732.548v.449a41.374 41.374 0 0 1 .732-.548zm17.547.041a34.51 34.51 0 0 0-.734.158v.354a34.168 34.168 0 0 1 .734-.162zm-23.396.195a45.229 45.229 0 0 0-.733.68v.542a44.837 44.837 0 0 1 .733-.7zm17.546.072a35.877 35.877 0 0 0-.732.294v.278a35.616 35.616 0 0 1 .732-.3zm-1.95.005a36.607 36.607 0 0 0-.149.07 3.046 3.046 0 0 1-.19.436 36.29 36.29 0 0 1 .34-.156zm3.9.015a35.21 35.21 0 0 0-.733.252v.328a34.906 34.906 0 0 1 .734-.258zm-15.597.15a42.525 42.525 0 0 0-.732.605v.402a42.215 42.215 0 0 1 .732-.604zm17.547.013a34.51 34.51 0 0 0-.733.21v.359a34.168 34.168 0 0 1 .733-.215zm1.95.294a33.78 33.78 0 0 0-.734.167v.297a33.487 33.487 0 0 1 .734-.163zm-21.446.18a43.39 43.39 0 0 0-.732.656v.51a43.015 43.015 0 0 1 .732-.666zm15.596.05a35.21 35.21 0 0 0-.732.304v.334a34.906 34.906 0 0 1 .732-.303zm-11.697.012a40.903 40.903 0 0 0-.732.571v.509a40.5 40.5 0 0 1 .732-.572zm13.648.04a34.51 34.51 0 0 0-.734.259v.365a34.168 34.168 0 0 1 .734-.26zm-3.9.042a35.877 35.877 0 0 0-.733.35v.284a35.616 35.616 0 0 1 .733-.348zm5.849.138a33.78 33.78 0 0 0-.733.217v.303a33.487 33.487 0 0 1 .733-.216zm-21.446.214a44.327 44.327 0 0 0-.733.7v.608a43.89 43.89 0 0 1 .733-.7zm23.396.013a33.106 33.106 0 0 0-.734.167v.292a32.822 32.822 0 0 1 .734-.171zm-19.497.028a41.735 41.735 0 0 0-.732.604v.467a41.374 41.374 0 0 1 .732-.605zm13.647.275a34.51 34.51 0 0 0-.732.303v.373a34.168 34.168 0 0 1 .732-.303zm1.95.065a33.78 33.78 0 0 0-.733.26v.311a33.487 33.487 0 0 1 .734-.27zm-3.9.002a35.21 35.21 0 0 0-.732.349v.343a34.906 34.906 0 0 1 .733-.35zm5.85.1a33.106 33.106 0 0 0-.733.222v.296a32.822 32.822 0 0 1 .733-.225zm-15.597.177a40.038 40.038 0 0 0-.732.572v.44a39.692 39.692 0 0 1 .732-.572zm-3.9.004a42.525 42.525 0 0 0-.731.665v.42a42.215 42.215 0 0 1 .732-.666zm21.188.078a32.449 32.449 0 0 0-.475.118v.293a32.168 32.168 0 0 1 .228-.057c.087-.119.17-.236.247-.354zm-9.49.064a2.671 2.671 0 0 1-.732.204v.279a35.616 35.616 0 0 1 .732-.398zm5.85.283a33.106 33.106 0 0 0-.734.27v.3a32.822 32.822 0 0 1 .734-.27zm-7.8.017c-.122.005-.296.009-.459.013a36.607 36.607 0 0 0-.273.16v.374a36.29 36.29 0 0 1 .733-.436zm5.85.002a33.78 33.78 0 0 0-.733.303v.322a33.487 33.487 0 0 1 .732-.314zm-13.648.012a40.903 40.903 0 0 0-.732.632v.53a40.5 40.5 0 0 1 .732-.632zm5.849.037-.042.001a37.398 37.398 0 0 0-.69.455v.448a37.028 37.028 0 0 1 .732-.488zm5.849.005a34.51 34.51 0 0 0-.733.349v.382a34.168 34.168 0 0 1 .733-.35zm5.849.007a32.449 32.449 0 0 0-.733.225v.298a32.168 32.168 0 0 1 .733-.226zm-13.917.032-.463.009v.33a38.597 38.597 0 0 1 .463-.34zm-7.529.093a43.39 43.39 0 0 0-.733.733v.533a43.015 43.015 0 0 1 .733-.733zm13.647.059a35.21 35.21 0 0 0-.732.398v.351a34.906 34.906 0 0 1 .732-.398zm-5.848.2a38.158 38.158 0 0 0-.733.538v.41a37.828 37.828 0 0 1 .733-.54zm-1.95.12a39.24 39.24 0 0 0-.732.591v.851a38.597 38.597 0 0 1 .732-.624zm5.849.027a35.877 35.877 0 0 0-.733.448v.302a35.616 35.616 0 0 1 .733-.449zm-9.748.03a41.735 41.735 0 0 0-.732.687v.508a41.374 41.374 0 0 1 .732-.709zm17.547.061a32.449 32.449 0 0 0-.734.27v.302a32.168 32.168 0 0 1 .734-.27zm-1.95.042a33.106 33.106 0 0 0-.733.315v.308a32.822 32.822 0 0 1 .732-.315zm3.899.016a31.802 31.802 0 0 0-.733.224V-27a31.488 31.488 0 0 1 .733-.225zm-5.85.123a33.78 33.78 0 0 0-.732.353v.334a33.487 33.487 0 0 1 .733-.363zm-5.848.104a36.607 36.607 0 0 0-.732.506v.394a36.29 36.29 0 0 1 .732-.52zm3.9.077a34.51 34.51 0 0 0-.733.403v.404a34.168 34.168 0 0 1 .732-.415zm-9.749.106a40.038 40.038 0 0 0-.732.648v.48a39.692 39.692 0 0 1 .732-.67zm7.799.218a35.21 35.21 0 0 0-.733.456v.375a34.906 34.906 0 0 1 .733-.468zm7.799.006a31.802 31.802 0 0 0-.734.27v.333a31.488 31.488 0 0 1 .734-.27zm-11.698.014a37.398 37.398 0 0 0-.733.56v.477a37.028 37.028 0 0 1 .733-.58zm-7.799.021a42.525 42.525 0 0 0-.733.753v.46a42.215 42.215 0 0 1 .733-.774zm21.446.027a31.13 31.13 0 0 0-.733.234v.282a30.86 30.86 0 0 1 .218-.069c.17-.11.338-.217.515-.361zm-3.9.006a32.449 32.449 0 0 0-.732.315v.31a32.168 32.168 0 0 1 .732-.316zm-1.95.17a33.106 33.106 0 0 0-.732.363v.316a32.822 32.822 0 0 1 .733-.363zm-13.646.154a40.903 40.903 0 0 0-.732.707v.582a40.5 40.5 0 0 1 .732-.735zm7.798.091a35.877 35.877 0 0 0-.732.515v.324a35.616 35.616 0 0 1 .732-.528zm3.9.019a33.78 33.78 0 0 0-.733.429v.33a33.487 33.487 0 0 1 .732-.418zm-7.8.085a38.158 38.158 0 0 0-.731.62v.443a37.828 37.828 0 0 1 .732-.64zm13.649.126a31.13 31.13 0 0 0-.734.28v.288a30.86 30.86 0 0 1 .734-.28zm-1.95.062a31.802 31.802 0 0 0-.733.32v.349a31.488 31.488 0 0 1 .732-.329zm-5.85.043a34.51 34.51 0 0 0-.732.485v.418a34.168 34.168 0 0 1 .733-.499zm-7.798.014a39.24 39.24 0 0 0-.732.696v.89a38.597 38.597 0 0 1 .732-.698zm11.698.142a32.449 32.449 0 0 0-.733.376v.326a32.168 32.168 0 0 1 .733-.385zm-7.798.023a36.607 36.607 0 0 0-.733.597v.41a36.29 36.29 0 0 1 .733-.598zm-7.799.159a41.735 41.735 0 0 0-.733.806v.534a41.374 41.374 0 0 1 .733-.806zm13.647.125a33.106 33.106 0 0 0-.732.433v.336a32.822 32.822 0 0 1 .732-.445zm-3.9.007a35.21 35.21 0 0 0-.731.546v.388a34.906 34.906 0 0 1 .732-.56zm9.75.089a30.51 30.51 0 0 0-.734.28v.236a30.287 30.287 0 0 1 .734-.28zm-1.95.133a31.13 31.13 0 0 0-.733.327v.297a30.86 30.86 0 0 1 .732-.33zm-11.698.061a37.398 37.398 0 0 0-.732.662v.497a37.028 37.028 0 0 1 .732-.662zm-3.9.013a40.038 40.038 0 0 0-.731.766v.504a39.692 39.692 0 0 1 .732-.77zm18.764.033v.198a29.683 29.683 0 0 1 .229-.073c-.075-.04-.158-.09-.229-.125zm-9.015.07a33.78 33.78 0 0 0-.733.504v.355a33.487 33.487 0 0 1 .733-.507zm3.899.012a31.802 31.802 0 0 0-.733.397v.36a31.488 31.488 0 0 1 .733-.407zm-7.798.232a35.877 35.877 0 0 0-.733.615v.338a35.616 35.616 0 0 1 .733-.626zm13.549.033a29.346 29.346 0 0 0-.635.202v.314a29.056 29.056 0 0 1 .733-.243v-.22c-.035-.02-.064-.033-.098-.053zm-1.851.021a29.942 29.942 0 0 0-.734.282v.282a29.683 29.683 0 0 1 .734-.287zm-5.85.053a32.449 32.449 0 0 0-.732.459v.337a32.168 32.168 0 0 1 .732-.47zm-3.9.12a34.51 34.51 0 0 0-.731.56v.435a34.168 34.168 0 0 1 .732-.562zm7.8.03a30.51 30.51 0 0 0-.733.341v.249a30.287 30.287 0 0 1 .732-.348zm-13.648.125a38.158 38.158 0 0 0-.732.733v.464a37.828 37.828 0 0 1 .732-.733zm-3.899.065a40.903 40.903 0 0 0-.733.843v.614a40.5 40.5 0 0 1 .733-.849zm15.597.083a31.13 31.13 0 0 0-.733.402v.312a30.86 30.86 0 0 1 .733-.411zm-3.9.032a33.106 33.106 0 0 0-.732.523v.348a32.822 32.822 0 0 1 .733-.526zm9.749.091a28.725 28.725 0 0 0-.733.243v.263a28.477 28.477 0 0 1 .733-.242zm-1.95.036a29.346 29.346 0 0 0-.733.297v.31a29.056 29.056 0 0 1 .734-.29zm-13.647.015a36.607 36.607 0 0 0-.732.661v.44a36.29 36.29 0 0 1 .732-.673zm-3.9.106a39.24 39.24 0 0 0-.731.769v.98a38.597 38.597 0 0 1 .732-.815zm5.85.05a35.21 35.21 0 0 0-.733.627v.405a34.906 34.906 0 0 1 .733-.625zm5.848.007a31.802 31.802 0 0 0-.732.469v.372a31.488 31.488 0 0 1 .732-.469zm3.9.013a29.942 29.942 0 0 0-.733.358v.29a29.683 29.683 0 0 1 .732-.365zm5.115.053v.274a27.84 27.84 0 0 1 .237-.064c-.082-.07-.146-.137-.237-.21zm-12.914.216a33.78 33.78 0 0 0-.732.561v.388a33.487 33.487 0 0 1 .732-.589zm5.849.078a30.51 30.51 0 0 0-.733.424v.257a30.287 30.287 0 0 1 .733-.432zm5.849.028a28.153 28.153 0 0 0-.733.243v.33a27.84 27.84 0 0 1 .733-.244zm-1.95.105a28.725 28.725 0 0 0-.733.299v.276a28.477 28.477 0 0 1 .734-.306zm-7.798.01a32.449 32.449 0 0 0-.733.527v.349a32.168 32.168 0 0 1 .733-.526zm11.485.027a27.523 27.523 0 0 0-.52.14v.248a27.285 27.285 0 0 1 .705-.19c-.05-.056-.098-.112-.15-.167-.01-.01-.026-.021-.035-.031zm-19.284.06a37.398 37.398 0 0 0-.732.733v.548a37.028 37.028 0 0 1 .732-.758zm13.647.073a29.346 29.346 0 0 0-.732.376v.327a29.056 29.056 0 0 1 .732-.37zm-3.899.122a31.13 31.13 0 0 0-.732.49v.323a30.86 30.86 0 0 1 .732-.49zm-7.798.04a35.877 35.877 0 0 0-.732.695v.354a35.616 35.616 0 0 1 .732-.695zm-5.849.069a40.038 40.038 0 0 0-.733.853v.564a39.692 39.692 0 0 1 .733-.885zm7.799.024a34.51 34.51 0 0 0-.689.592l.51.013a34.168 34.168 0 0 1 .179-.153zm7.798.094a29.942 29.942 0 0 0-.733.432v.3a29.683 29.683 0 0 1 .733-.431zm7.799.029a26.975 26.975 0 0 0-.734.204v.275a26.708 26.708 0 0 1 .734-.204zm-1.95.011a27.523 27.523 0 0 0-.733.25v.26a27.285 27.285 0 0 1 .733-.257zm-1.95.056a28.153 28.153 0 0 0-.733.314v.345a27.84 27.84 0 0 1 .734-.323zm-9.748.024a33.106 33.106 0 0 0-.535.43l.436.011a32.822 32.822 0 0 1 .099-.079zm1.95.17a31.802 31.802 0 0 0-.444.318c.151.006.308.01.444.017zm5.848.057a28.725 28.725 0 0 0-.732.381v.284a28.477 28.477 0 0 1 .732-.39zm-3.899.172a30.51 30.51 0 0 0-.34.227c.112.013.24.024.338.04a30.287 30.287 0 0 1 .002-.002zm-11.697.002a38.158 38.158 0 0 0-.732.82v.518a37.828 37.828 0 0 1 .732-.849zm21.446.096a26.404 26.404 0 0 0-.734.205v.237a26.176 26.176 0 0 1 .734-.205zm-1.95.006a26.975 26.975 0 0 0-.733.253v.285a26.708 26.708 0 0 1 .733-.257zm-5.85.066a29.346 29.346 0 0 0-.732.432v.024c.091.047.178.106.265.163a29.056 29.056 0 0 1 .468-.288zm-11.697.006a36.607 36.607 0 0 0-.732.79v.474a36.29 36.29 0 0 1 .732-.81zm1.95.032a35.21 35.21 0 0 0-.732.719v.448a34.906 34.906 0 0 1 .732-.742zm13.648.047a27.523 27.523 0 0 0-.734.332v.265a27.285 27.285 0 0 1 .734-.339zm-1.95.208a28.153 28.153 0 0 0-.733.395v.355a27.84 27.84 0 0 1 .732-.395zm-17.547.125a39.24 39.24 0 0 0-.733.928v1.046a38.597 38.597 0 0 1 .733-.939zm23.396.058a25.878 25.878 0 0 0-.734.205v.195a25.69 25.69 0 0 1 .734-.205zm-1.95.058a26.404 26.404 0 0 0-.733.265v.247a26.176 26.176 0 0 1 .733-.27zm-1.95.155a26.975 26.975 0 0 0-.733.334v.294a26.708 26.708 0 0 1 .734-.341zm-3.9.029a28.725 28.725 0 0 0-.178.11c.06.046.118.088.179.139zm9.016.123v.048a25.178 25.178 0 0 1 .018-.004c-.007-.014-.01-.03-.018-.044zm-22.662.125a37.398 37.398 0 0 0-.732.889v.583a37.028 37.028 0 0 1 .732-.897zm21.446.008a25.397 25.397 0 0 0-.734.206v.234a25.178 25.178 0 0 1 .734-.21zm-17.547.032a34.51 34.51 0 0 0-.732.771v.5a34.168 34.168 0 0 1 .732-.772zm11.697.003a27.523 27.523 0 0 0-.732.395v.273a27.285 27.285 0 0 1 .732-.395zm-13.647.067a35.877 35.877 0 0 0-.732.82v.397a35.616 35.616 0 0 1 .732-.843zm17.547.017a25.878 25.878 0 0 0-.733.277v.204a25.69 25.69 0 0 1 .733-.282zm3.294.061a24.891 24.891 0 0 0-.128.029v.256a24.645 24.645 0 0 1 .224-.05c-.032-.079-.061-.158-.096-.235zm-5.243.149a26.404 26.404 0 0 0-.734.35v.254a26.176 26.176 0 0 1 .734-.357zm3.899.196a24.891 24.891 0 0 0-.734.213v.26a24.645 24.645 0 0 1 .734-.213zm-1.95.1a25.397 25.397 0 0 0-.733.29v.24a25.178 25.178 0 0 1 .733-.295zm-3.9.029a26.975 26.975 0 0 0-.732.413v.304a26.708 26.708 0 0 1 .732-.413zm7.398.024a24.365 24.365 0 0 0-.332.075v.215a24.154 24.154 0 0 1 .412-.092c-.022-.068-.056-.13-.08-.198zm-5.447.232a25.878 25.878 0 0 0-.734.357v.208a25.69 25.69 0 0 1 .734-.357zm3.899.167a24.365 24.365 0 0 0-.734.217v.223a24.154 24.154 0 0 1 .734-.22zm-19.497.009a35.21 35.21 0 0 0-.732.858v.474a34.906 34.906 0 0 1 .732-.857zm1.95.008a33.78 33.78 0 0 0-.732.774v.453a33.487 33.487 0 0 1 .732-.816zm19.252.044a23.88 23.88 0 0 0-.489.11v.212a23.674 23.674 0 0 1 .539-.12c-.018-.067-.03-.137-.05-.202zm-3.655.03a24.891 24.891 0 0 0-.733.29v.273a24.645 24.645 0 0 1 .733-.297zm-21.446.012a38.158 38.158 0 0 0-.733.998v.554a37.828 37.828 0 0 1 .733-.998zm1.95.051a36.607 36.607 0 0 0-.732.91v.536a36.29 36.29 0 0 1 .732-.943zm15.596.073a26.404 26.404 0 0 0-.727.41c.025.074.042.152.063.227a26.176 26.176 0 0 1 .664-.374zm1.95.138a25.397 25.397 0 0 0-.733.358v.245a25.178 25.178 0 0 1 .734-.357zm3.9.138a23.88 23.88 0 0 0-.734.227v.22a23.674 23.674 0 0 1 .734-.231zm1.82.02a23.405 23.405 0 0 0-.604.135v.208a23.203 23.203 0 0 1 .651-.146c-.014-.067-.032-.131-.048-.197zm-3.77.132a24.365 24.365 0 0 0-.733.305v.23a24.154 24.154 0 0 1 .733-.31zm-3.9.18a25.878 25.878 0 0 0-.587.33c.013.064.021.131.032.197a25.69 25.69 0 0 1 .555-.313zm1.95.084a24.891 24.891 0 0 0-.733.374v.28a24.645 24.645 0 0 1 .734-.373zm5.83.055a22.939 22.939 0 0 0-.714.166v.235a22.712 22.712 0 0 1 .733-.17v-.152c-.005-.028-.015-.052-.02-.08zm-1.93.025a23.405 23.405 0 0 0-.734.237v.216a23.203 23.203 0 0 1 .734-.242zm-17.547.002a33.106 33.106 0 0 0-.732.816v.436a32.822 32.822 0 0 1 .732-.83zm-1.95.09a34.51 34.51 0 0 0-.732.891v.565a34.168 34.168 0 0 1 .732-.926zm17.547.078a23.88 23.88 0 0 0-.733.316v.227a23.674 23.674 0 0 1 .733-.318zm-19.496.157a35.877 35.877 0 0 0-.732.955v.454a35.616 35.616 0 0 1 .732-.987zm15.596.058a25.397 25.397 0 0 0-.512.295c.008.083.01.17.014.254a25.178 25.178 0 0 1 .498-.295zm-17.546.004a37.398 37.398 0 0 0-.733 1.042v.67a37.028 37.028 0 0 1 .733-1.089zm25.345.082a22.454 22.454 0 0 0-.733.17v.197a22.26 22.26 0 0 1 .733-.17zm-1.95.017a22.939 22.939 0 0 0-.733.238v.245a22.712 22.712 0 0 1 .734-.243zm-3.898.028a24.365 24.365 0 0 0-.734.374v.236a24.154 24.154 0 0 1 .734-.374zm1.949.172a23.405 23.405 0 0 0-.733.318v.22a23.203 23.203 0 0 1 .733-.316zm3.899.242a22.006 22.006 0 0 0-.733.17v.162a21.846 21.846 0 0 1 .733-.17zm-7.799.042a24.891 24.891 0 0 0-.491.29 5.648 5.648 0 0 1-.013.3 24.645 24.645 0 0 1 .504-.3zm-11.697.016a32.449 32.449 0 0 0-.732.868v.45a32.168 32.168 0 0 1 .732-.895zm17.547.01a22.454 22.454 0 0 0-.734.25v.204a22.26 22.26 0 0 1 .734-.254zm-3.9.06a23.88 23.88 0 0 0-.733.373v.239a23.674 23.674 0 0 1 .734-.38zm1.95.127a22.939 22.939 0 0 0-.733.332v.252a22.712 22.712 0 0 1 .733-.332zm-17.547.045a33.78 33.78 0 0 0-.732.954v.498a33.487 33.487 0 0 1 .732-.973zm21.446.12a21.597 21.597 0 0 0-.733.174v.192a21.41 21.41 0 0 1 .733-.177zm-23.395.066a35.21 35.21 0 0 0-.732 1.036v.545a34.906 34.906 0 0 1 .732-1.066zm21.446.05a22.006 22.006 0 0 0-.734.259v.168a21.846 21.846 0 0 1 .734-.263zm-5.85.122a24.365 24.365 0 0 0-.538.334c-.012.096-.024.19-.04.282a24.154 24.154 0 0 1 .578-.371zm1.95.004a23.405 23.405 0 0 0-.733.39v.236a23.203 23.203 0 0 1 .734-.398zm1.95.13a22.454 22.454 0 0 0-.733.331v.21a22.26 22.26 0 0 1 .733-.332zm-21.446.031a36.607 36.607 0 0 0-.733 1.112v.61a36.29 36.29 0 0 1 .733-1.144zm25.345.122a21.167 21.167 0 0 0-.733.2v.136a20.958 20.958 0 0 1 .733-.191zm-1.95.018a21.597 21.597 0 0 0-.733.27v.196a21.41 21.41 0 0 1 .734-.274zm-17.546.086a31.802 31.802 0 0 0-.732.91v.51a31.488 31.488 0 0 1 .732-.92zm13.648.139a22.939 22.939 0 0 0-.734.393v.27a22.712 22.712 0 0 1 .734-.403zm-1.95.03a23.88 23.88 0 0 0-.661.442c-.024.095-.044.194-.072.285v.013a23.674 23.674 0 0 1 .732-.497zm3.899.064a22.006 22.006 0 0 0-.733.332v.173a21.846 21.846 0 0 1 .733-.332zm3.899.037a20.72 20.72 0 0 0-.733.182v.19a20.54 20.54 0 0 1 .733-.186zm-21.446.07a33.106 33.106 0 0 0-.732 1.018v.483a32.822 32.822 0 0 1 .732-1.02zm19.497.155a21.167 21.167 0 0 0-.734.284v.11a20.958 20.958 0 0 1 .734-.274zm-21.446.153a34.51 34.51 0 0 0-.732 1.08v.659a34.168 34.168 0 0 1 .732-1.132zm19.496.035a21.597 21.597 0 0 0-.733.332v.206a21.41 21.41 0 0 1 .733-.337zm-1.95.01a22.454 22.454 0 0 0-.733.414v.224a22.26 22.26 0 0 1 .734-.422zm5.849.005a20.306 20.306 0 0 0-.733.19v.171a20.146 20.146 0 0 1 .733-.193zm-7.799.04a23.405 23.405 0 0 0-.732.497v.245a23.203 23.203 0 0 1 .732-.497zm5.85.1a20.72 20.72 0 0 0-.734.283v.193a20.54 20.54 0 0 1 .734-.286zm-17.547.22a31.13 31.13 0 0 0-.732.973v.448a30.86 30.86 0 0 1 .732-.973zm19.496.043a19.917 19.917 0 0 0-.733.197v.183a19.745 19.745 0 0 1 .733-.201zm-25.345 0a35.877 35.877 0 0 0-.733 1.196v.52a35.616 35.616 0 0 1 .733-1.223zm19.497.098a22.006 22.006 0 0 0-.734.433v.186a21.846 21.846 0 0 1 .734-.441zm3.899.08a20.306 20.306 0 0 0-.734.288v.175a20.146 20.146 0 0 1 .734-.29zm-5.85.01a22.939 22.939 0 0 0-.732.52v.282a22.712 22.712 0 0 1 .732-.525zm3.9.03a21.167 21.167 0 0 0-.733.37v.084a20.958 20.958 0 0 1 .733-.362zm-17.547.149a32.449 32.449 0 0 0-.732 1.058v.524a32.168 32.168 0 0 1 .732-1.098zm21.446.039a19.52 19.52 0 0 0-.733.205v.202a19.327 19.327 0 0 1 .733-.202zm-3.9.138a20.72 20.72 0 0 0-.732.348v.206a20.54 20.54 0 0 1 .733-.355zm-1.948.018a21.597 21.597 0 0 0-.734.452v.216a21.41 21.41 0 0 1 .734-.457zm3.899.035a19.917 19.917 0 0 0-.734.29v.187a19.745 19.745 0 0 1 .734-.29zm-5.85.187a22.454 22.454 0 0 0-.732.524v.235a22.26 22.26 0 0 1 .732-.525zm-15.596.054a33.78 33.78 0 0 0-.732 1.188v.583a33.487 33.487 0 0 1 .732-1.213zm23.369.004a19.107 19.107 0 0 0-.707.2v.175a18.942 18.942 0 0 1 .667-.193c.012-.062.03-.119.04-.182zm-19.47.146a30.51 30.51 0 0 0-.732 1.014v.398a30.287 30.287 0 0 1 .732-1.045zm15.597.015a20.306 20.306 0 0 0-.733.365v.187a20.146 20.146 0 0 1 .733-.372zm1.95.018a19.52 19.52 0 0 0-.734.29v.218a19.327 19.327 0 0 1 .734-.304zm1.832.237a18.726 18.726 0 0 0-.616.185v.144a18.59 18.59 0 0 1 .583-.18c.011-.05.023-.098.033-.149zm-25.228.012a35.21 35.21 0 0 0-.733 1.297v.645a34.906 34.906 0 0 1 .733-1.35zm19.497.016a21.167 21.167 0 0 0-.734.462v.055a20.958 20.958 0 0 1 .734-.452zm-1.95.047a22.006 22.006 0 0 0-.733.528v.204a21.846 21.846 0 0 1 .732-.539zm3.899.104a19.917 19.917 0 0 0-.733.38v.2a19.745 19.745 0 0 1 .733-.388zm1.95.023a19.107 19.107 0 0 0-.734.304v.18a18.942 18.942 0 0 1 .734-.303zm-19.497.021a31.802 31.802 0 0 0-.732 1.146v.602a31.488 31.488 0 0 1 .732-1.166zm15.598.096a20.72 20.72 0 0 0-.734.479v.215a20.54 20.54 0 0 1 .734-.481zm5.647.063a18.378 18.378 0 0 0-.532.171v.167a18.22 18.22 0 0 1 .494-.164c.015-.056.024-.117.038-.174zm-9.547.011a22.939 22.939 0 0 0-.733.63v.315a22.712 22.712 0 0 1 .733-.648zm1.95.186a21.597 21.597 0 0 0-.733.555v.237a21.41 21.41 0 0 1 .732-.566zm5.849.035a18.726 18.726 0 0 0-.734.303v.148a18.59 18.59 0 0 1 .734-.304zm-1.95.001a19.52 19.52 0 0 0-.733.396v.223a19.327 19.327 0 0 1 .733-.392zm-15.597.06a29.942 29.942 0 0 0-.732 1.093v.464a29.683 29.683 0 0 1 .732-1.095zm19.204.115a18.012 18.012 0 0 0-.44.147v.187a17.834 17.834 0 0 1 .36-.12c.023-.074.058-.139.08-.214zm-5.556.023a20.306 20.306 0 0 0-.734.48v.195a20.146 20.146 0 0 1 .734-.481zm-17.547.036a33.106 33.106 0 0 0-.732 1.28v.579a32.822 32.822 0 0 1 .732-1.303zm21.446.144a18.378 18.378 0 0 0-.734.303v.173a18.22 18.22 0 0 1 .734-.305zm-7.8.032a22.454 22.454 0 0 0-.732.668v.26a22.26 22.26 0 0 1 .733-.682zm5.85.06a19.107 19.107 0 0 0-.733.4v.194a18.942 18.942 0 0 1 .733-.409zm3.436.158a17.631 17.631 0 0 0-.27.095v.16a17.479 17.479 0 0 1 .201-.07l.07-.185zm-11.32.008c-.079.013-.212.023-.328.035a23.88 23.88 0 0 0-.32.32v.303a23.674 23.674 0 0 1 .648-.658zm5.935.03a19.917 19.917 0 0 0-.734.48v.218a19.745 19.745 0 0 1 .734-.49zm-1.95.102a21.167 21.167 0 0 0-.733.604v.022a20.958 20.958 0 0 1 .732-.591zm5.849.004a18.012 18.012 0 0 0-.734.313v.198a17.834 17.834 0 0 1 .734-.319zm-12.044.006c-.098.004-.194.008-.297.01a25.397 25.397 0 0 0-.09.108v.346a25.178 25.178 0 0 1 .387-.464zm-3.83.027a28.153 28.153 0 0 0-.456.651v.543a27.84 27.84 0 0 1 .733-1.046v-.148zm2.208 0a26.404 26.404 0 0 0-.714.928v.386a26.176 26.176 0 0 1 .732-.978v-.336h-.018zm-2.664 0v.089a28.477 28.477 0 0 1 .062-.088zm1.95 0v.42a26.708 26.708 0 0 1 .321-.42zm-9.016.01a34.51 34.51 0 0 0-.733 1.408v.8a34.168 34.168 0 0 1 .733-1.486zm11.698.014a24.891 24.891 0 0 0-.733.847v.407a24.645 24.645 0 0 1 .733-.876zm-7.799.007a31.13 31.13 0 0 0-.732 1.239v.546a30.86 30.86 0 0 1 .732-1.258zm17.547.058a18.726 18.726 0 0 0-.733.419v.158a18.59 18.59 0 0 1 .733-.424zm-7.799.038a23.405 23.405 0 0 0-.732.769v.307a23.203 23.203 0 0 1 .732-.789zm1.95.071a22.006 22.006 0 0 0-.733.686v.216a21.846 21.846 0 0 1 .733-.686zm9.124.052a17.28 17.28 0 0 0-.109.039v.156a17.132 17.132 0 0 1 .041-.014c.026-.058.043-.122.068-.18zm-7.175.003a20.72 20.72 0 0 0-.732.596v.238a20.54 20.54 0 0 1 .732-.609zm-11.697.066a29.346 29.346 0 0 0-.732 1.152v.558a29.056 29.056 0 0 1 .732-1.188zm13.648.013a19.52 19.52 0 0 0-.734.503v.24a19.327 19.327 0 0 1 .734-.51zm3.899.047a17.631 17.631 0 0 0-.734.319v.165a17.479 17.479 0 0 1 .734-.32zm-1.95.102a18.378 18.378 0 0 0-.733.434v.184a18.22 18.22 0 0 1 .733-.435zm-13.647.22a27.523 27.523 0 0 0-.733 1.082v.458a27.285 27.285 0 0 1 .733-1.12zm-5.85.05a32.449 32.449 0 0 0-.731 1.385v.634a32.168 32.168 0 0 1 .732-1.446zm13.648.009a21.597 21.597 0 0 0-.733.7v.268a21.41 21.41 0 0 1 .733-.716zm7.799 0a17.28 17.28 0 0 0-.734.328v.167a17.132 17.132 0 0 1 .734-.333zm-5.85.012a20.306 20.306 0 0 0-.732.626v.216a20.146 20.146 0 0 1 .732-.637zm-3.899.02a22.939 22.939 0 0 0-.732.795v.362a22.712 22.712 0 0 1 .732-.821zm-3.9.032a25.878 25.878 0 0 0-.731.996v.333a25.69 25.69 0 0 1 .732-1.012zm1.95.002a24.365 24.365 0 0 0-.732.91v.343a24.154 24.154 0 0 1 .733-.934zm7.8.004a19.107 19.107 0 0 0-.734.512v.214a18.942 18.942 0 0 1 .734-.524zm1.949.074a18.012 18.012 0 0 0-.733.435v.205a17.834 17.834 0 0 1 .733-.435zm1.95.23a16.937 16.937 0 0 0-.734.342v.167a16.79 16.79 0 0 1 .734-.348zm-19.497.114a30.51 30.51 0 0 0-.732 1.332v.481a30.287 30.287 0 0 1 .732-1.378zm13.647.03a19.917 19.917 0 0 0-.732.64v.23a19.745 19.745 0 0 1 .732-.639zm1.95.014a18.726 18.726 0 0 0-.733.538v.175a18.59 18.59 0 0 1 .734-.547zm1.95.043a17.631 17.631 0 0 0-.733.459v.178a17.479 17.479 0 0 1 .733-.46zm-15.597.136a28.725 28.725 0 0 0-.732 1.247v.522a28.477 28.477 0 0 1 .732-1.296zm17.547.034a16.6 16.6 0 0 0-.734.355v.183a16.435 16.435 0 0 1 .734-.362zm-9.749.002a22.454 22.454 0 0 0-.732.85v.3a22.26 22.26 0 0 1 .732-.871zm-1.95.072a23.88 23.88 0 0 0-.732.944v.36a23.674 23.674 0 0 1 .733-.966zm-11.697.002a33.78 33.78 0 0 0-.733 1.573v.752a33.487 33.487 0 0 1 .733-1.658zm9.748.052a25.397 25.397 0 0 0-.732 1.056v.408a25.178 25.178 0 0 1 .732-1.09zm-1.95.04a26.975 26.975 0 0 0-.732 1.153v.54a26.708 26.708 0 0 1 .733-1.205zm11.699.046a18.378 18.378 0 0 0-.734.561v.204a18.22 18.22 0 0 1 .734-.572zm1.949.028a17.28 17.28 0 0 0-.733.46v.174a17.132 17.132 0 0 1 .733-.46zm-3.9.054a19.52 19.52 0 0 0-.732.653v.277a19.327 19.327 0 0 1 .732-.682zm5.85.087a16.248 16.248 0 0 0-.734.369v.158a16.108 16.108 0 0 1 .734-.375zm-7.8.088a20.72 20.72 0 0 0-.732.767v.272a20.54 20.54 0 0 1 .733-.786zm-.311.031a21.167 21.167 0 0 0-.42.448v.009a20.958 20.958 0 0 1 .42-.457zm-13.335.109a31.802 31.802 0 0 0-.732 1.528v.793a31.488 31.488 0 0 1 .732-1.616zm19.496.036a16.937 16.937 0 0 0-.733.46v.182a16.79 16.79 0 0 1 .733-.468zm-1.95.011a18.012 18.012 0 0 0-.733.586v.226a17.834 17.834 0 0 1 .734-.59zm-5.849.005a22.006 22.006 0 0 0-.732.893v.248a21.846 21.846 0 0 1 .732-.893zm9.749.086a15.924 15.924 0 0 0-.734.373v.13a15.808 15.808 0 0 1 .662-.346c.023-.023.05-.043.072-.067zm-5.85.091a19.107 19.107 0 0 0-.732.682v.233a18.942 18.942 0 0 1 .732-.687zm-5.848.01a23.405 23.405 0 0 0-.733 1.008v.361a23.203 23.203 0 0 1 .733-1.037zm-7.799.047a29.942 29.942 0 0 0-.732 1.448v.631a29.683 29.683 0 0 1 .732-1.517zm5.849.104a24.891 24.891 0 0 0-.732 1.123v.49a24.645 24.645 0 0 1 .732-1.17zm11.698.047a16.6 16.6 0 0 0-.733.48v.2a16.435 16.435 0 0 1 .733-.49zm-5.85.007a20.306 20.306 0 0 0-.732.81v.25a20.146 20.146 0 0 1 .733-.83zm-9.747.004a28.153 28.153 0 0 0-.732 1.358v.727a27.84 27.84 0 0 1 .732-1.43zm13.648.083a17.631 17.631 0 0 0-.734.602v.199a17.479 17.479 0 0 1 .734-.613zm-11.698.07a26.404 26.404 0 0 0-.733 1.264v.465a26.176 26.176 0 0 1 .733-1.299zm5.848.097a21.597 21.597 0 0 0-.732.928v.314a21.41 21.41 0 0 1 .732-.953zm9.196.046a15.629 15.629 0 0 0-.18.101v.068c.064-.053.118-.114.18-.169zm-5.297.005a18.726 18.726 0 0 0-.732.709v.2a18.59 18.59 0 0 1 .732-.722zm3.9.102a16.248 16.248 0 0 0-.733.502v.173a16.108 16.108 0 0 1 .733-.51zm-1.95.115a17.28 17.28 0 0 0-.733.628v.195a17.132 17.132 0 0 1 .734-.631zm-3.9.045a19.917 19.917 0 0 0-.732.84v.275a19.745 19.745 0 0 1 .733-.85zm-3.898.005a22.939 22.939 0 0 0-.733 1.066v.434a22.712 22.712 0 0 1 .733-1.106zm-11.698.039a33.106 33.106 0 0 0-.733 1.793v.815a32.822 32.822 0 0 1 .733-1.897zm17.546.173a18.378 18.378 0 0 0-.732.744v.232a18.22 18.22 0 0 1 .732-.76zm3.9.017a15.924 15.924 0 0 0-.733.51v.143a15.808 15.808 0 0 1 .733-.519zm-11.698.086a24.365 24.365 0 0 0-.732 1.223v.43a24.154 24.154 0 0 1 .732-1.255zm9.749.085a16.937 16.937 0 0 0-.734.631v.203a16.79 16.79 0 0 1 .734-.64zm-17.547.127a31.13 31.13 0 0 0-.732 1.74v.406h.133a30.86 30.86 0 0 1 .599-1.486zm1.95.035a29.346 29.346 0 0 0-.733 1.608v.502h.12a29.056 29.056 0 0 1 .612-1.416zm17.546.017a15.629 15.629 0 0 0-.65.465c.224-.104.443-.21.65-.326zm-5.85.015a19.52 19.52 0 0 0-.732.88v.315a19.327 19.327 0 0 1 .733-.909zm-7.797.03a25.878 25.878 0 0 0-.733 1.374v.43a25.69 25.69 0 0 1 .733-1.42zm9.747.086a18.012 18.012 0 0 0-.732.781v.259a17.834 17.834 0 0 1 .732-.787zm-3.899.012a21.167 21.167 0 0 0-.732.987v.07a20.958 20.958 0 0 1 .732-1.015zm-7.798.033a27.523 27.523 0 0 0-.732 1.513v.596a27.285 27.285 0 0 1 .732-1.598zm5.849.083a22.454 22.454 0 0 0-.733 1.151v.362a22.26 22.26 0 0 1 .733-1.178zm7.799.009a16.6 16.6 0 0 0-.734.658v.229a16.435 16.435 0 0 1 .734-.673zm-5.85.25a20.72 20.72 0 0 0-.732 1.049v.326a20.54 20.54 0 0 1 .732-1.08zm1.95.129a19.107 19.107 0 0 0-.733.924v.284h.006a18.942 18.942 0 0 1 .726-.943zm-5.85.021a23.88 23.88 0 0 0-.731 1.32v.07l.198-.003a23.674 23.674 0 0 1 .534-.98zm7.8.014a17.631 17.631 0 0 0-.733.815v.123c.038-.006.073-.015.11-.021a17.479 17.479 0 0 1 .622-.704zm1.95.049a16.248 16.248 0 0 0-.414.371c.1-.028.2-.056.297-.086a16.108 16.108 0 0 1 .117-.1zm-11.698.29a25.397 25.397 0 0 0-.733 1.499v.578a25.178 25.178 0 0 1 .733-1.583zm3.899.057a22.006 22.006 0 0 0-.733 1.236v.335a21.846 21.846 0 0 1 .733-1.273zm-11.698.087a32.449 32.449 0 0 0-.341.93h.3a32.168 32.168 0 0 1 .041-.114zm17.546.017a17.28 17.28 0 0 0-.307.357l.232-.043a17.132 17.132 0 0 1 .075-.088zm-3.899.02a20.306 20.306 0 0 0-.732 1.116v.327a20.146 20.146 0 0 1 .732-1.147zm1.95.05a18.726 18.726 0 0 0-.448.576l.177-.017a18.59 18.59 0 0 1 .27-.342zm-9.748.165a26.975 26.975 0 0 0-.732 1.695v.769a26.708 26.708 0 0 1 .732-1.843zm-1.95.043a28.725 28.725 0 0 0-.475 1.187v.704a28.477 28.477 0 0 1 .475-1.23zm-1.95.047a30.51 30.51 0 0 0-.223.586h.224zm7.799.097a23.405 23.405 0 0 0-.23.447c.077 0 .155-.002.23-.003zm1.95.25a21.597 21.597 0 0 0-.733 1.329v.414a21.41 21.41 0 0 1 .733-1.395zm1.95.061a19.917 19.917 0 0 0-.733 1.198v.354a19.745 19.745 0 0 1 .732-1.235zm-6.016.592a24.891 24.891 0 0 0-.566 1.322v.734a24.645 24.645 0 0 1 .566-1.43zm6.015.126a19.52 19.52 0 0 0-.732 1.283v.461a19.327 19.327 0 0 1 .732-1.35zm-7.798.195a26.404 26.404 0 0 0-.716 1.931h.243a26.176 26.176 0 0 1 .473-1.334zm-1.95.17a28.153 28.153 0 0 0-.475 1.382v.38h.2a27.84 27.84 0 0 1 .275-.829zm7.799.09a21.167 21.167 0 0 0-.733 1.464v.207h.006a20.958 20.958 0 0 1 .727-1.522zm1.95.364a19.107 19.107 0 0 0-.682 1.307h.186a18.942 18.942 0 0 1 .495-.98zm-1.95.234a20.72 20.72 0 0 0-.502 1.073h.192a20.54 20.54 0 0 1 .31-.658zm-4.066.153a24.365 24.365 0 0 0-.339.92h.224a24.154 24.154 0 0 1 .115-.318zm6.015.407a18.726 18.726 0 0 0-.256.513h.153a18.59 18.59 0 0 1 .103-.207zm-7.798.058a25.878 25.878 0 0 0-.157.455h.157zm5.849.34a20.306 20.306 0 0 0-.055.115h.055z" transform="translate(-112.042 54.511)"/><path style="fill:url(#h);fill-opacity:1;fill-rule:nonzero;stroke-width:1.143;stroke-miterlimit:4;stroke-dasharray:none" d="M105.767-49.949c-13.87 0-25.152 11.283-25.152 25.152 0 13.869 11.283 25.152 25.152 25.152 11.74 0 21.624-8.087 24.382-18.981h-2.365c-2.7 9.62-11.547 16.695-22.017 16.695C93.159-1.931 82.9-12.19 82.9-24.797s10.258-22.865 22.866-22.865c6.105 0 11.66 2.405 15.765 6.319h3.161l-.009-.01h3.265v.005h65.876v-1.36h-1.893v-.006H123.39c-4.542-4.468-10.762-7.235-17.622-7.235z" transform="translate(-75.22 55.75)"/><path style="fill:#f2f2f2;fill-opacity:1;fill-rule:nonzero;stroke-width:1.143;stroke-miterlimit:4;stroke-dasharray:none" d="m106.048-49.937-.438 2.28c.04 0 .078-.003.117-.003.213 0 .423.01.635.016l.437-2.275c-.25-.01-.5-.015-.75-.018zm-1.256.015c-.255.01-.509.023-.762.04l-.447 2.326c.254-.023.51-.043.766-.058zm3.244.086-.434 2.26c.248.02.495.043.741.071l.432-2.249c-.246-.03-.491-.059-.739-.082zm-5.282.072c-.259.03-.518.06-.774.099l-.461 2.4c.26-.048.519-.097.781-.137zm7.24.189-.431 2.244c.244.042.488.083.73.132l.43-2.246c-.24-.05-.486-.088-.73-.13zm-9.31.138c-.266.054-.528.12-.79.182l-.478 2.488c.264-.075.528-.149.796-.216zm11.24.266-.433 2.252c.24.063.48.127.716.197l.433-2.248c-.238-.068-.475-.14-.716-.201zm-13.35.268c-.27.08-.538.166-.804.255l-.504 2.618c.27-.108.54-.213.815-.31zm15.247.304-.434 2.26c.237.085.47.177.703.269l.438-2.278c-.234-.088-.47-.17-.707-.251zm-17.4.445c-.275.11-.55.225-.82.345l-.538 2.797c.276-.146.554-.289.836-.424zm19.27.277-.442 2.298c.233.107.461.221.69.336l.446-2.322c-.229-.109-.461-.21-.695-.312zm-21.47.73a25.11 25.11 0 0 0-.842.454l-.588 3.059c.283-.195.571-.383.863-.566zm23.308.154-.453 2.358c.228.131.452.268.675.407l.458-2.381c-.225-.13-.45-.261-.68-.384zm1.803 1.068-.468 2.43c.224.158.443.321.66.487l.475-2.47c-.22-.152-.442-.302-.667-.447zm-27.372.098c-.295.193-.585.393-.87.599l-.666 3.46c.294-.265.596-.52.904-.77zm29.138 1.156-.487 2.535c.218.188.431.382.643.578l.498-2.591c-.215-.178-.434-.351-.654-.522zm-31.48.58c-.31.258-.612.523-.908.796l-.808 4.203c.313-.39.636-.77.973-1.138zm33.206.886-.358 1.864h.754l.263-1.37h-.133c-.172-.169-.35-.33-.526-.494zm1.912.494-.263 1.37h.18l-.008-.01h.584l.262-1.36zm2.008 0-.262 1.36h.755l.261-1.36zm2.008 0-.263 1.366h.754l.263-1.366zm2.007 0-.262 1.366h.754l.263-1.366zm2.008 0-.263 1.366h.755l.262-1.366zm2.008 0-.263 1.366h.755l.263-1.366zm2.007 0-.262 1.366h.755l.262-1.366zm2.008 0-.263 1.366h.755l.263-1.366zm2.008 0-.263 1.366h.755l.262-1.366zm2.007 0-.262 1.366h.755l.262-1.366zm2.008 0-.263 1.366h.755l.263-1.366zm2.008 0-.263 1.366h.755l.262-1.366zm2.007 0-.263 1.366h.755l.263-1.366zm2.008 0-.262 1.366h.755l.262-1.366zm2.008 0-.263 1.366h.755l.262-1.366zm2.007 0-.263 1.366h.756l.262-1.366zm2.008 0-.263 1.366h.755l.263-1.366zm2.008 0-.262 1.366h.754l.262-1.366zm2.008 0-.263 1.366h.755l.262-1.366zm2.007 0-.262 1.366h.754l.263-1.366zm2.008 0-.262 1.366h.753l.263-1.366zm2.008 0-.262 1.366h.754l.262-1.366zm2.007 0-.262 1.366h.754l.263-1.366zm2.008 0-.262 1.366h.754l.262-1.366zm2.008 0-.262 1.366h.753l.263-1.366zm2.008 0-.263 1.366h.754l.263-1.366zm2.007 0-.262 1.366h.755l.262-1.366zm2.007 0-.262 1.366h.755l.262-1.366zm2.009 0-.263 1.366h.755l.263-1.366zm2.007 0-.262 1.366h.754l.263-1.366zm2.008 0-.263 1.366h.755l.263-1.366zm2.007 0-.262 1.366h.755l.262-1.366zm2.008 0-.262 1.366h.754l.263-1.366zm2.008 0-.263 1.366h.755l.263-1.366zm2.006.006-.261 1.36h.755l.261-1.36zm-105.838.966c-.336.367-.658.746-.972 1.133l-1.187 6.175c.355-.76.746-1.5 1.18-2.213zm-2.684 3.52a25.149 25.149 0 0 0-1.137 1.988l-2.649 13.782c.072.767.18 1.523.319 2.268zM82.9-23.51l-1.19 6.193c.147.472.312.935.486 1.395l.981-5.108c-.135-.813-.23-1.64-.277-2.48zm45.238 4.886-1.494 7.773a25.2 25.2 0 0 0 1.101-1.806l1.147-5.967zm-44.271.532-.807 4.194c.174.362.358.719.549 1.07l.742-3.86a22.657 22.657 0 0 1-.484-1.404zm1.354 3.398-.664 3.454c.19.296.385.587.587.874l.63-3.28a22.834 22.834 0 0 1-.553-1.048zm40.842.342a22.87 22.87 0 0 1-1.127 1.939l-.937 4.877c.329-.348.65-.703.96-1.07zm-39.335 2.264-.586 3.05c.2.247.405.49.614.73l.565-2.94a22.98 22.98 0 0 1-.593-.84zm36.514 1.969c-.31.37-.63.73-.962 1.08l-.724 3.77c.306-.25.607-.506.901-.77zM88.33-9.98l-.538 2.797c.208.211.421.417.636.621l.522-2.717a23.046 23.046 0 0 1-.62-.701zM90-8.22l-.503 2.618c.214.182.432.358.652.533l.493-2.564A23.067 23.067 0 0 1 90-8.22zm30.745.647c-.293.256-.592.506-.898.747l-.622 3.24c.292-.187.58-.38.865-.579zm-29.022.834-.479 2.49c.22.155.442.309.667.458l.471-2.453c-.223-.161-.442-.326-.66-.495zm26.668.97c-.283.189-.569.372-.86.548l-.562 2.923c.283-.142.563-.29.84-.443zm-24.9.276-.461 2.397c.225.133.45.266.68.391l.456-2.374a22.905 22.905 0 0 1-.675-.414zm1.808 1.038-.45 2.336c.23.11.463.212.695.315l.444-2.308c-.232-.11-.46-.226-.69-.343zm20.828.016c-.274.14-.551.276-.832.406l-.52 2.702c.276-.106.548-.218.819-.334zm-18.983.833-.439 2.284c.233.09.468.177.704.26l.436-2.267c-.236-.088-.469-.183-.701-.277zm16.786.153c-.268.104-.538.203-.811.297l-.49 2.545c.27-.077.537-.157.802-.243zm-14.908.52L98.589-.68c.237.07.475.14.715.204l.433-2.254c-.24-.065-.479-.13-.715-.204zm12.765.184c-.262.073-.527.14-.793.204l-.47 2.438c.264-.051.526-.105.787-.164zm-10.853.312-.431 2.245c.24.051.484.095.728.14l.431-2.245a22.728 22.728 0 0 1-.728-.14zm8.754.163c-.257.045-.517.084-.777.12l-.453 2.359c.258-.028.516-.058.772-.094zm-6.809.162-.432 2.249c.246.032.49.068.737.093l.434-2.26a22.81 22.81 0 0 1-.739-.082zm4.75.104c-.253.021-.508.036-.764.049l-.442 2.302c.254-.007.508-.017.761-.032zm-2.773.057-.437 2.275c.249.013.5.014.751.02l.437-2.276c-.251 0-.501-.01-.751-.019z" transform="translate(-75.22 55.75)"/></svg>