<?xml version="1.0" encoding="UTF-8" standalone="no"?>
<svg
   xmlns:dc="http://purl.org/dc/elements/1.1/"
   xmlns:cc="http://creativecommons.org/ns#"
   xmlns:rdf="http://www.w3.org/1999/02/22-rdf-syntax-ns#"
   xmlns:svg="http://www.w3.org/2000/svg"
   xmlns="http://www.w3.org/2000/svg"
   xmlns:sodipodi="http://sodipodi.sourceforge.net/DTD/sodipodi-0.dtd"
   xmlns:inkscape="http://www.inkscape.org/namespaces/inkscape"
   version="1.1"
   width="24"
   height="24"
   viewBox="0 0 24 24"
   id="svg4"
   sodipodi:docname="medal_5star.svg"
   inkscape:version="0.92.5 (2060ec1f9f, 2020-04-08)">
  <metadata
     id="metadata10">
    <rdf:RDF>
      <cc:Work
         rdf:about="">
        <dc:format>image/svg+xml</dc:format>
        <dc:type
           rdf:resource="http://purl.org/dc/dcmitype/StillImage" />
        <dc:title />
      </cc:Work>
    </rdf:RDF>
  </metadata>
  <defs
     id="defs8" />
  <sodipodi:namedview
     pagecolor="#ffffff"
     bordercolor="#666666"
     borderopacity="1"
     objecttolerance="10"
     gridtolerance="10"
     guidetolerance="10"
     inkscape:pageopacity="0"
     inkscape:pageshadow="2"
     inkscape:window-width="1876"
     inkscape:window-height="1016"
     id="namedview6"
     showgrid="false"
     inkscape:zoom="13.906434"
     inkscape:cx="-5.9559464"
     inkscape:cy="12.057657"
     inkscape:window-x="44"
     inkscape:window-y="27"
     inkscape:window-maximized="1"
     inkscape:current-layer="svg4" />
  <path
     d="m 2.8000848,23.42258 18.3108852,0.07111 0.0089,-2.288861 -6.629763,-5.015538 C 18.695532,14.820841 21.001993,10.297786 19.633543,6.0923494 18.265093,1.8869124 13.764926,-0.41945914 9.5366,0.94890169 5.331163,2.3173514 3.024748,6.8289626 4.3931533,11.045844 c 0.7917233,2.417859 2.6726564,4.324946 5.0843366,5.123981 l -6.6685163,4.963895 -0.00889,2.28886 M 8.6686776,3.4175368 12.025659,5.3990244 15.397928,3.4436697 14.490473,7.2511573 17.444592,9.8261909 13.540797,10.142921 11.993304,13.730477 10.473722,10.13101 6.5725041,9.7839694 9.5465341,7.2319577 Z"
     id="path2"
     inkscape:connector-curvature="0"
     style="fill:#f97873;fill-opacity:1;stroke:none;stroke-width:0.1;stroke-miterlimit:4;stroke-dasharray:none;stroke-dashoffset:0;stroke-opacity:1" />
  <path
     style="fill:#000000;fill-opacity:1;stroke:none;stroke-width:1.60774863;stroke-opacity:1"
     d="M 0.18945312 19.849609 L 0.18945312 20.03125 L 0.18945312 20.587891 L 2.0351562 23.785156 L 22.291016 23.785156 L 23.953125 20.90625 L 23.953125 20.03125 L 23.953125 19.849609 L 0.18945312 19.849609 z M 17.976562 19.921875 L 17.974609 20.03125 L 17.947266 20.03125 L 17.976562 19.921875 z M 6.9492188 20.365234 L 7.3300781 21.314453 L 8.2148438 21.482422 L 9.1054688 21.347656 L 9.5175781 20.417969 L 9.9003906 21.365234 L 10.785156 21.539062 L 11.675781 21.404297 L 12.085938 20.470703 L 12.470703 21.421875 L 13.355469 21.589844 L 14.246094 21.455078 L 14.65625 20.523438 L 15.039062 21.472656 L 15.925781 21.640625 L 16.814453 21.507812 L 17.226562 20.570312 L 17.609375 21.523438 L 18.494141 21.691406 L 17.839844 22.414062 L 17.976562 23.451172 L 17.191406 22.947266 L 16.390625 23.417969 L 16.556641 22.386719 L 15.925781 21.640625 L 15.271484 22.361328 L 15.40625 23.400391 L 14.619141 22.894531 L 13.820312 23.369141 L 13.986328 22.335938 L 13.355469 21.589844 L 12.701172 22.308594 L 12.835938 23.349609 L 12.048828 22.841797 L 11.25 23.318359 L 11.417969 22.285156 L 10.785156 21.539062 L 10.130859 22.257812 L 10.269531 23.292969 L 9.4824219 22.789062 L 8.6796875 23.263672 L 8.8476562 22.230469 L 8.2148438 21.482422 L 7.5644531 22.201172 L 7.6992188 23.242188 L 6.9121094 22.738281 L 6.1113281 23.210938 L 6.2773438 22.177734 L 5.6484375 21.431641 L 6.5390625 21.296875 L 6.9492188 20.365234 z "
     id="path819-9" />
</svg>
