<?xml version="1.0" encoding="UTF-8" standalone="no"?>
<svg
   xmlns:dc="http://purl.org/dc/elements/1.1/"
   xmlns:cc="http://creativecommons.org/ns#"
   xmlns:rdf="http://www.w3.org/1999/02/22-rdf-syntax-ns#"
   xmlns:svg="http://www.w3.org/2000/svg"
   xmlns="http://www.w3.org/2000/svg"
   xmlns:sodipodi="http://sodipodi.sourceforge.net/DTD/sodipodi-0.dtd"
   xmlns:inkscape="http://www.inkscape.org/namespaces/inkscape"
   version="1.1"
   width="24"
   height="24"
   viewBox="0 0 24 24"
   id="svg4"
   sodipodi:docname="medal.svg"
   inkscape:version="0.92.5 (2060ec1f9f, 2020-04-08)">
  <metadata
     id="metadata10">
    <rdf:RDF>
      <cc:Work
         rdf:about="">
        <dc:format>image/svg+xml</dc:format>
        <dc:type
           rdf:resource="http://purl.org/dc/dcmitype/StillImage" />
      </cc:Work>
    </rdf:RDF>
  </metadata>
  <defs
     id="defs8" />
  <sodipodi:namedview
     pagecolor="#ffffff"
     bordercolor="#666666"
     borderopacity="1"
     objecttolerance="10"
     gridtolerance="10"
     guidetolerance="10"
     inkscape:pageopacity="0"
     inkscape:pageshadow="2"
     inkscape:window-width="1876"
     inkscape:window-height="1016"
     id="namedview6"
     showgrid="false"
     inkscape:zoom="19.666667"
     inkscape:cx="11.351414"
     inkscape:cy="18.720487"
     inkscape:window-x="44"
     inkscape:window-y="27"
     inkscape:window-maximized="1"
     inkscape:current-layer="svg4" />
  <path
     d="M 21.437237,0.20227089 H 2.5627624 V 2.5615803 L 9.4165563,7.7048748 C 5.0872235,9.132257 2.727914,13.803689 4.1552963,18.133022 c 1.4273821,4.329333 6.0752217,6.688642 10.4281477,5.26126 4.329333,-1.427382 6.688642,-6.087018 5.26126,-10.428147 -0.825758,-2.489072 -2.772189,-4.4472985 -5.26126,-5.2612602 L 21.437237,2.5615803 V 0.20227089 M 15.468185,20.846229 12,18.817222 8.5318152,20.846229 9.4519458,16.917978 6.3966402,14.275552 10.419262,13.933452 12,10.229336 l 1.580738,3.704116 4.022622,0.3421 -3.055306,2.642426 z"
     id="path2"
     inkscape:connector-curvature="0"
     style="stroke-width:1.17965472;fill:#999999" />
  <path
     sodipodi:type="star"
     style="fill:#008080;fill-opacity:1;stroke-width:0.61109126"
     id="path817"
     sodipodi:sides="5"
     sodipodi:cx="27.276901"
     sodipodi:cy="-4.6081293"
     sodipodi:r1="1.0727869"
     sodipodi:r2="0.53639346"
     sodipodi:arg1="0.96007036"
     sodipodi:arg2="1.5883889"
     inkscape:flatsided="false"
     inkscape:rounded="0"
     inkscape:randomized="0"
     d="m 27.892104,-3.7292682 -0.624639,-0.3425508 -0.636302,0.3203653 0.132761,-0.699921 -0.501314,-0.5061613 0.70669,-0.090024 0.326473,-0.6331902 0.303998,0.644283 0.703085,0.1148282 -0.518809,0.488213 z"
     inkscape:transform-center-x="-0.0058318006"
     inkscape:transform-center-y="-0.096879811" />
  <path
     style="fill:#999999;stroke-width:1.17965472"
     d="m 17.460805,-11.186706 v 2.3593755 l 0.244141,0.1835938 h 18.386718 l 0.244141,-0.1835938 v -2.3593755 z"
     id="path819"
     inkscape:connector-curvature="0" />
  <path
     style="fill:#999999;stroke-width:1.17965472"
     d="m -12.6922,-15.204616 v 2.359376 l 0.24414,0.183594 H 5.9386585 l 0.244141,-0.183594 v -2.359376 z m 9.4511711,0.296875 0.3046875,0.644532 0.703125,0.115234 -0.5195312,0.488281 0.1074219,0.703125 -0.625,-0.341797 -0.6347657,0.320313 0.1328125,-0.701172 -0.5019531,-0.505859 0.7070313,-0.08984 z"
     id="path824"
     inkscape:connector-curvature="0" />
  <path
     style="fill:#999999;stroke-width:1.17965472"
     d="m -12.487421,-11.999967 v 2.3593751 l 0.244141,0.1835937 H 6.1434388 l 0.2441406,-0.1835937 v -2.3593751 z m 8.4296879,0.277344 0.3027344,0.644531 0.703125,0.113281 0.7070313,-0.08984 0.3261718,-0.632812 0.3046876,0.644531 0.703125,0.115234 -0.5195313,0.488282 0.109375,0.7031246 -0.625,-0.3417966 -0.6367188,0.3203123 0.1328125,-0.6992183 -0.5019531,-0.507813 -0.5175782,0.488281 0.1074219,0.7050784 -0.625,-0.3417964 -0.6367187,0.320312 0.1328125,-0.701172 -0.5,-0.505859 0.7070312,-0.08984 z"
     id="path4532"
     inkscape:connector-curvature="0" />
  <path
     style="fill:#999999;stroke-width:1.17965472"
     d="m -12.488016,-8.6946836 v 2.359375 l 0.24414,0.1835938 H 6.1428429 l 0.2441407,-0.1835938 v -2.359375 z m 7.4101558,0.2597656 0.3027344,0.6445313 0.703125,0.1132813 0.7070312,-0.089844 0.3261719,-0.6328125 0.3046875,0.6445313 0.703125,0.1152343 0.7070312,-0.089844 0.32617193,-0.6328125 0.30468752,0.6445312 0.703125,0.1132813 -0.51953124,0.4882812 0.10742187,0.7050782 -0.62500008,-0.34375 -0.6347656,0.3222656 0.1328125,-0.7011719 -0.5019531,-0.5058594 -0.5195312,0.4882813 0.109375,0.703125 -0.625,-0.3417969 -0.6367188,0.3203125 0.1328125,-0.6992188 -0.5019531,-0.5078124 -0.5175782,0.4882812 0.1074219,0.7050781 -0.625,-0.3417969 -0.6367187,0.3203126 0.1328125,-0.7011719 -0.5,-0.5058594 0.7070312,-0.089844 z"
     id="path4572"
     inkscape:connector-curvature="0" />
  <path
     style="fill:#999999;stroke-width:1.17965472"
     d="m -19.342327,-5.5923928 v 2.359375 l 0.244141,0.1835937 h 18.3867188 l 0.2441406,-0.1835937 v -2.359375 z m 6.390625,0.2421875 0.302735,0.6445312 0.703125,0.1132813 0.707031,-0.089844 0.326172,-0.6328125 0.304687,0.6445313 0.7031254,0.1152344 0.7070313,-0.089844 0.3261718,-0.6328125 0.3046875,0.6445313 0.703125,0.1132812 0.7070313,-0.089844 0.3261719,-0.6328124 0.3046875,0.6445312 0.703125,0.1132812 -0.5195313,0.4882813 0.1074219,0.7050781 -0.625,-0.34375 -0.6347656,0.3222656 0.1328125,-0.7011718 -0.5019532,-0.5058594 -0.5195312,0.4882812 0.1074219,0.7050782 -0.625,-0.34375 -0.6347657,0.3222656 0.1328125,-0.7011719 -0.5019531,-0.5058593 -0.5195314,0.4882812 0.109375,0.703125 -0.625,-0.3417969 -0.636719,0.3203125 0.132813,-0.6992187 -0.501953,-0.5078125 -0.517578,0.4882812 0.107422,0.7050782 -0.625,-0.3417969 -0.636719,0.3203125 0.132812,-0.7011719 -0.5,-0.5058594 0.707032,-0.089844 z"
     id="path4593"
     inkscape:connector-curvature="0" />
  <path
     style="fill:#999999;stroke-width:1.17965472"
     d="M -20.623047 -1.0175781 L -20.623047 1.3417969 L -20.378906 1.5253906 L -1.9921875 1.5253906 L -1.7480469 1.3417969 L -1.7480469 -1.0175781 L -20.623047 -1.0175781 z M -15.253906 -0.79296875 L -14.951172 -0.1484375 L -14.248047 -0.03515625 L -13.541016 -0.125 L -13.214844 -0.7578125 L -12.910156 -0.11328125 L -12.207031 0.001953125 L -11.5 -0.087890625 L -11.173828 -0.72070312 L -10.869141 -0.076171875 L -10.166016 0.037109375 L -9.4589844 -0.052734375 L -9.1328125 -0.68554688 L -8.828125 -0.041015625 L -8.125 0.072265625 L -7.4179688 -0.017578125 L -7.0917969 -0.65234375 L -6.7871094 -0.0078125 L -6.0839844 0.10742188 L -6.6035156 0.59570312 L -6.4960938 1.3007812 L -7.1191406 0.95703125 L -7.7558594 1.2773438 L -7.6230469 0.578125 L -8.125 0.072265625 L -8.6445312 0.56054688 L -8.5371094 1.265625 L -9.1621094 0.921875 L -9.796875 1.2441406 L -9.6640625 0.54296875 L -10.166016 0.037109375 L -10.685547 0.52539062 L -10.578125 1.2304688 L -11.203125 0.88671875 L -11.837891 1.2089844 L -11.705078 0.5078125 L -12.207031 0.001953125 L -12.726562 0.49023438 L -12.617188 1.1933594 L -13.242188 0.8515625 L -13.878906 1.171875 L -13.746094 0.47265625 L -14.248047 -0.03515625 L -14.765625 0.453125 L -14.658203 1.1582031 L -15.283203 0.81640625 L -15.919922 1.1367188 L -15.787109 0.43554688 L -16.287109 -0.0703125 L -15.580078 -0.16015625 L -15.253906 -0.79296875 z "
     id="path819-9" />
</svg>
